<svg width="960" height="540" xmlns="http://www.w3.org/2000/svg" xmlns:xlink="http://www.w3.org/1999/xlink" overflow="hidden"><defs><clipPath id="clip0"><rect x="0" y="0" width="960" height="540"/></clipPath></defs><g clip-path="url(#clip0)"><rect x="0" y="0" width="960" height="540" fill="#F0E2E2"/><path d="M57.712 0C56.8355 0 55.9599 0 55.0422 0.0397388 50.6211 0.197165 46.2412 0.236904 42.9464 0.236904L42.1953 0.236904C41.8735 0.223149 41.5525 0.217035 41.2331 0.217035 39.6888 0.217035 38.1679 0.369876 36.6479 0.631235L35.4804 0.867375C34.0201 1.22273 32.5187 1.45887 31.0172 1.57732 30.0995 1.6163 29.1818 1.73475 28.2641 1.89294 27.3044 2.09011 26.3455 2.20779 25.3445 2.24753L18.6708 2.24753C18.4889 2.25135 18.307 2.25365 18.1242 2.25365 16.4643 2.25365 14.7769 2.09011 13.1234 1.73475 11.1207 1.26171 9.07748 0.985827 7.03349 0.907114 6.1158 0.867375 5.1981 0.867375 4.28041 0.867375 3.80095 0.828401 3.32067 0.808531 2.84121 0.808531 2.36175 0.808531 1.88228 0.828401 1.40201 0.867375 0.777007 0.946089 0.818243 0.749687 0.568404 1.34042 0.00080854 2.62276 1.05272 2.88488 2.27442 2.88488 3.11854 2.88488 4.04432 2.76032 4.57229 2.76032 5.36466 2.76032 6.15703 2.76032 6.95021 2.79929 8.99339 2.91774 10.9961 3.19362 12.956 3.66667 14.5707 3.98611 16.2185 4.14582 17.8695 4.14582 18.0531 4.14582 18.2366 4.14353 18.4202 4.13971L24.844 4.13971C25.7617 4.13971 26.6794 4.10074 27.5963 3.94255 27.9723 3.90357 28.3474 3.82409 28.7646 3.74538 29.3484 3.62693 29.9322 3.54821 30.558 3.4695 30.8498 3.43053 31.1838 3.43053 31.4757 3.39079 32.0182 3.39079 32.602 3.35105 33.1445 3.27234 34.0201 3.15388 34.8545 2.95672 35.6882 2.76032L36.0221 2.72058C36.8985 2.48367 37.8154 2.32625 38.7331 2.20779 39.3589 2.12908 39.9847 2.12908 40.6518 2.12908L48.1186 2.12908C49.6201 2.12908 51.1636 2.05037 52.6651 2.01063 54.2078 1.93192 55.71 1.89294 57.2115 1.89294 58.0871 1.89294 58.9628 1.89294 59.8392 1.97165 60.8402 2.01063 61.7991 2.16882 62.8009 2.32625 63.7178 2.4447 64.6776 2.60213 65.5952 2.68084 66.2623 2.72058 66.9714 2.76032 67.6392 2.76032L68.5149 2.79929C69.4326 2.83903 70.3082 2.95672 71.2259 3.11491L71.6019 3.19362C72.4775 3.35105 73.3532 3.43053 74.2709 3.4695L74.7301 3.4695C75.3139 3.4695 75.8977 3.43053 76.4814 3.43053L77.3579 3.35105 78.5254 3.35105C78.6249 3.34417 78.7243 3.34111 78.8238 3.34111 79.2652 3.34111 79.7018 3.40531 80.1102 3.4695 80.4441 3.54821 80.778 3.66667 81.1119 3.78512 81.6537 3.98228 82.1962 4.13971 82.78 4.21842 83.0718 4.25816 83.3637 4.25816 83.6556 4.25816 84.1149 4.25816 84.6153 4.21842 85.0738 4.17945L85.6584 4.13971 86.2421 4.13971C87.0345 4.13971 87.7856 4.21842 88.5359 4.37662L89.0785 4.45533C89.7455 4.61276 90.4134 4.73121 91.0804 4.77095 91.623 4.84966 92.1647 4.84966 92.7493 4.84966L107.389 4.84966C108.224 4.84966 109.1 4.84966 109.975 4.80992 110.81 4.77095 111.644 4.77095 112.478 4.77095L113.521 4.77095C115.356 4.88863 117.191 5.12554 118.944 5.51987L119.986 5.71703C120.945 5.95318 121.946 6.07163 122.947 6.11137L125.492 6.11137C125.669 6.10372 125.847 6.10067 126.024 6.10067 126.848 6.10067 127.671 6.17174 128.495 6.26879 129.204 6.30777 129.913 6.50493 130.497 6.82055 130.789 7.01772 130.831 7.29359 130.622 7.64819 130.247 8.27942 129.163 8.5553 128.369 8.71273 127.035 8.94963 125.7 9.02834 124.366 9.02834L87.1178 9.02834C86.576 9.06808 86.0756 9.06808 85.533 9.06808 85.4109 9.07267 85.2889 9.07496 85.1651 9.07496 84.3202 9.07496 83.451 8.9588 82.6134 8.75247 81.779 8.51556 80.9033 8.35814 80.0269 8.27942 79.5684 8.23968 79.1092 8.23968 78.6087 8.23968 78.0249 8.23968 77.3991 8.23968 76.8154 8.27942L75.6478 8.35814C74.7301 8.39787 73.8124 8.47659 72.8947 8.47659 72.2269 8.47659 71.5178 8.39787 70.8087 8.3184 70.1837 8.23968 69.5991 8.12123 69.0154 8.04252 68.0144 7.88509 67.0547 7.68793 66.0537 7.60921 64.5943 7.45179 63.134 7.37231 61.6746 7.37231L60.6737 7.37231C58.9628 7.45179 57.2527 7.64819 55.5847 8.00354 54.0752 8.23586 52.5357 8.32833 50.9922 8.32833 50.7019 8.32833 50.4109 8.32527 50.1206 8.3184L49.5781 8.3184 45.1982 8.35814C44.8942 8.35814 44.6443 8.32909 44.439 8.32909 44.1099 8.32909 43.8924 8.40399 43.7388 8.79144 43.1688 10.0891 44.2393 10.3229 45.4222 10.3229 46.0876 10.3229 46.7886 10.2488 47.2535 10.2488 47.2931 10.2488 47.3311 10.2495 47.3675 10.2503L50.5378 10.2503C50.7666 10.2557 50.9954 10.258 51.2243 10.258 52.8211 10.258 54.3905 10.1372 55.9599 9.89572 57.712 9.54113 59.422 9.34396 61.1741 9.30422L61.6746 9.30422C63.3014 9.30422 64.9282 9.38294 66.5129 9.5801 67.222 9.65882 67.8891 9.77727 68.5982 9.89572 69.6412 10.0929 70.6842 10.2503 71.7264 10.329 72.1024 10.3688 72.4775 10.3688 72.8527 10.3688 73.8537 10.3688 74.8134 10.2901 75.8144 10.2503 76.5235 10.1716 77.2326 10.1319 77.9417 10.1319L78.734 10.1319C79.4852 10.1319 80.1942 10.1716 80.8613 10.2901 81.1952 10.3688 81.5283 10.4475 81.821 10.5262 82.4048 10.7234 83.0306 10.8418 83.6556 10.9205 84.0316 10.9603 84.4488 10.9603 84.8239 10.9603L119.611 10.9603C120.612 10.9603 121.655 10.9992 122.656 10.9992 123.782 10.9992 124.949 10.9992 126.118 10.9205 128.12 10.8418 131.499 10.6844 132.541 8.35814 133 7.60921 132.958 6.66312 132.457 5.95318 131.623 4.73121 129.455 4.13971 125.658 4.13971L122.781 4.13971C122.53 4.13971 122.322 4.13971 122.072 4.10074 121.029 3.98228 119.986 3.78512 118.944 3.54821 117.943 3.35105 116.983 3.15388 115.982 3.0362 114.981 2.878 113.938 2.83903 112.937 2.83903 112.27 2.83903 111.561 2.83903 110.852 2.878L109.809 2.91774 93.5829 2.91774C93.3896 2.92462 93.1964 2.92768 93.0039 2.92768 92.0717 2.92768 91.1443 2.85126 90.246 2.72058L89.4124 2.56315C88.8278 2.4447 88.2441 2.32625 87.6603 2.24753 87.2851 2.20779 86.8679 2.20779 86.492 2.20779 85.9082 2.20779 85.3244 2.24753 84.7407 2.28651L84.5321 2.28651C84.3235 2.28651 84.1149 2.32625 83.9062 2.32625 83.1972 2.32625 82.4881 2.20779 81.821 1.97165 80.9446 1.65604 79.9856 1.49861 79.0259 1.45887L78.3168 1.45887C77.691 1.45887 77.066 1.45887 76.4402 1.49861 75.8144 1.53759 75.2306 1.53759 74.646 1.53759 74.1043 1.53759 73.5618 1.53759 73.0201 1.45887 72.5188 1.4199 72.0603 1.34042 71.5598 1.26171 71.0594 1.18299 70.5589 1.10428 70.0996 1.02557 69.3073 0.946089 68.5569 0.867375 67.7637 0.867375L67.1387 0.867375C65.9292 0.788662 64.6776 0.631235 63.468 0.473044 62.7168 0.355356 61.9245 0.236904 61.1741 0.158191 60.0058 0.0397388 58.8795 0 57.712 0Z" fill="#56618F" fill-rule="evenodd" transform="matrix(1 -1.22465e-16 -1.22465e-16 -1 854 108)"/><path d="M738.701 43C737.097 43 735.564 43.0739 734.031 43.2941 732.289 43.5129 730.546 43.5868 728.804 43.5868L726.017 43.5868C725.32 43.5868 724.622 43.6606 723.857 43.6606L723.647 43.6606C722.114 43.6606 720.51 43.5129 719.047 43.2202 718.282 43.1122 717.554 43.0455 716.836 43.0455 716.574 43.0455 716.311 43.054 716.051 43.0739L714.03 43.0739C713.262 43.0739 712.426 43.1463 711.66 43.3666 710.963 43.5129 710.196 43.5868 709.499 43.5868L709.081 43.5868C707.826 43.5868 706.572 43.5129 705.249 43.4404 703.993 43.4404 702.67 43.3666 701.415 43.3666L699.673 43.3666C698.837 43.4404 697.999 43.5129 697.233 43.7331 696.467 43.8794 695.63 44.0258 694.864 44.0258L680.088 44.0258C679.322 44.0997 678.486 44.246 677.789 44.4662 677.231 44.6864 676.326 44.9791 676.117 45.5659 676.046 45.7122 676.046 45.9324 676.117 46.0788 676.117 46.2251 676.187 46.4453 676.256 46.5916 676.395 46.6655 676.552 46.701 676.708 46.701 676.865 46.701 677.023 46.6655 677.162 46.5916 677.511 46.299 677.928 46.0788 678.347 45.9324 678.978 45.7506 679.656 45.6199 680.342 45.6199 680.49 45.6199 680.638 45.6255 680.786 45.6383L682.458 45.6383C683.016 45.7122 683.504 45.7122 684.062 45.7122L688.73 45.7122C690.125 45.7122 691.519 45.7122 692.982 45.7861L694.237 45.7861C695.283 45.7861 696.258 45.7122 697.233 45.4195 698.418 45.1254 699.603 45.053 700.788 45.053L701.206 45.053C702.112 45.053 702.948 45.053 703.854 45.1254L705.597 45.1993 706.782 45.1993C707.478 45.1993 708.106 45.2718 708.803 45.2718L709.778 45.2718C710.405 45.1993 711.032 45.1254 711.729 44.9791 712.357 44.8328 712.984 44.7589 713.681 44.6864L716.12 44.6864C716.678 44.6864 717.235 44.7589 717.862 44.7589 718.42 44.8328 718.977 44.9066 719.535 45.053 720.302 45.1993 721.138 45.2718 721.975 45.3456L723.228 45.3456C724.065 45.3456 724.832 45.3456 725.598 45.2718L726.156 45.2718C727.27 45.2718 728.316 45.1993 729.432 45.1993L730.686 45.1993C731.941 45.1993 733.194 45.053 734.449 44.9066L734.728 44.9066C736.192 44.6864 737.724 44.6125 739.188 44.6125L750.13 44.6125C750.827 44.6125 751.593 44.6125 752.29 44.6864 753.057 44.7589 753.684 44.8328 754.381 44.9066 755.078 44.9791 755.775 45.053 756.541 45.1254L757.587 45.1254C757.749 45.1141 757.91 45.107 758.069 45.107 758.865 45.107 759.62 45.2604 760.375 45.5659 761.002 45.8585 761.56 46.299 762.048 46.8119 762.187 46.9582 762.256 47.1045 762.326 47.1045L761.629 47.1045 760.515 47.0321C759.886 47.0321 759.33 46.9582 758.702 46.9582L749.852 46.9582C748.876 46.9582 747.97 47.1045 746.994 47.2509 746.575 47.3247 746.158 47.3247 745.739 47.3986 745.042 47.4711 744.345 47.4711 743.648 47.4711L736.958 47.4711C735.564 47.4711 734.24 47.545 732.916 47.7638 731.453 47.984 729.988 48.0578 728.525 48.0578L723.996 48.0578 722.741 48.1303C722.253 48.1303 721.765 48.0578 721.278 48.0578 720.79 48.0578 720.302 48.1303 719.813 48.2042 719.466 48.2781 719.117 48.3505 718.769 48.4244 718.489 48.5707 718.211 48.6446 717.933 48.6446 717.514 48.7171 717.026 48.7171 716.678 48.7909L715.841 48.7909C715.074 48.7909 714.447 48.9373 713.75 49.0097 713.123 49.1575 712.496 49.23 711.868 49.3038 711.241 49.3038 710.683 49.4502 710.127 49.5241 709.359 49.5965 708.594 49.6704 707.826 49.6704L705.666 49.6704C704.9 49.5965 704.342 49.5965 703.715 49.5965L703.436 49.5965C702.948 49.5965 702.391 49.5965 701.902 49.6704 701.554 49.7428 701.275 49.8167 700.997 49.9631 700.717 50.0369 700.369 50.1094 700.022 50.1833L699.533 50.1833C699.325 50.1094 699.045 50.1094 698.837 50.1094 698.418 50.1094 697.93 50.2557 697.582 50.4759 697.304 50.77 697.163 51.0627 697.094 51.5017 697.163 52.016 697.443 52.5289 697.93 52.8216 698.628 53.4084 699.464 53.701 700.369 53.7749 701.066 53.9212 701.763 53.9212 702.46 53.9212 703.575 53.9212 704.691 53.8474 705.805 53.6272 707.199 53.4084 708.594 53.262 709.988 53.262 710.963 53.3345 712.009 53.4084 713.053 53.6272L714.169 53.7749C715.354 53.9937 716.678 54.1415 718.281 54.2878 718.838 54.3603 719.396 54.4341 719.954 54.5805 720.72 54.7268 721.556 54.8007 722.323 54.8731 721.068 55.0934 719.813 55.2397 718.628 55.2397L718.141 55.2397C715.354 55.1672 712.496 55.1672 709.778 55.1672L704.203 55.1672C702.879 55.1672 701.624 55.1672 700.369 55.2397L696.119 55.2397C695.351 55.2397 694.654 55.1672 693.818 55.0209 693.191 54.947 692.564 54.8731 691.936 54.8007 690.683 54.7268 689.288 54.6544 687.546 54.6544L680.507 54.6544C679.88 54.6544 679.252 54.6544 678.696 54.8007 678.208 54.8007 677.719 54.8731 677.231 55.0209 676.395 55.1672 675.49 55.2397 674.583 55.3136 671.307 55.2397 668.033 55.2397 664.756 55.2397L656.951 55.2397C655.558 55.2397 654.093 55.1672 652.699 54.947L652.212 54.8731C651.724 54.8007 651.236 54.7268 650.678 54.7268L648.518 54.7268C646.775 54.5805 645.034 54.2139 643.291 53.6272 642.385 53.4084 641.409 53.1143 640.434 52.8955 639.737 52.8216 639.04 52.7477 638.343 52.7477 637.716 52.6753 637.158 52.6753 636.601 52.6014 635.834 52.455 635.137 52.2348 634.51 51.9422 634.232 51.7958 633.952 51.6495 633.744 51.3554 633.883 51.2829 634.093 51.2829 634.301 51.2829L635.904 51.2829C636.322 51.2829 636.67 51.2091 637.089 51.1352L637.716 50.9888C638.124 50.9036 638.556 50.8681 639.013 50.8681 639.334 50.8681 639.669 50.8851 640.015 50.9164L641.48 50.9164C642.385 50.9164 643.362 50.9164 644.267 50.9888 644.895 50.9888 645.522 51.1352 646.148 51.2091 646.846 51.2829 647.682 51.4293 648.518 51.4293 649.145 51.4293 649.773 51.5756 650.33 51.6495 651.097 51.7958 651.863 51.8683 652.63 51.8683L662.457 51.8683C662.7 51.8867 662.949 51.8967 663.199 51.8967 663.951 51.8967 664.721 51.8143 665.454 51.6495 666.29 51.4847 667.126 51.4009 667.962 51.4009 668.242 51.4009 668.52 51.4108 668.799 51.4293L674.025 51.4293C674.654 51.3554 675.28 51.2829 675.907 51.1352 676.395 50.9888 676.953 50.9164 677.441 50.9164L677.719 50.9164C678.486 50.8425 678.835 49.8167 678.277 49.3038 678.154 49.2172 678.032 49.1817 677.909 49.1817 677.823 49.1817 677.736 49.2001 677.65 49.23 676.953 49.23 676.326 49.3763 675.698 49.5241 675.21 49.5965 674.722 49.6704 674.235 49.7428L668.101 49.7428C667.475 49.7428 666.917 49.7428 666.429 49.8167 666.012 49.8892 665.663 49.9631 665.314 50.0369 664.478 50.1833 663.711 50.2557 662.875 50.2557L653.396 50.2557C652.699 50.2557 652.004 50.2557 651.375 50.1833 651.097 50.1833 650.819 50.1094 650.539 50.0369 650.33 49.9631 649.912 49.8892 649.564 49.8892 649.389 49.8537 649.215 49.8537 649.041 49.8537 648.867 49.8537 648.692 49.8537 648.518 49.8167 648.344 49.7798 648.205 49.7798 648.074 49.7798 647.944 49.7798 647.821 49.7798 647.682 49.7428 647.124 49.6704 646.636 49.5965 646.08 49.5241 645.312 49.4502 644.615 49.3038 643.849 49.3038 643.082 49.23 642.316 49.23 641.619 49.23L639.876 49.23C638.691 49.23 637.577 49.3763 636.461 49.5965 635.904 49.6704 635.346 49.7428 634.788 49.7428L634.022 49.7428C633.958 49.7372 633.894 49.7343 633.831 49.7343 633.151 49.7343 632.598 50.0923 632.28 50.6962 632.001 51.4293 632.211 52.2348 632.767 52.7477 633.883 53.6272 635.137 54.1415 636.531 54.2878 637.019 54.3603 637.506 54.3603 638.064 54.3603L638.064 53.6272 638.274 54.3603C638.971 54.3603 639.668 54.4341 640.364 54.6544 641.2 54.8007 642.038 55.0209 642.804 55.2397 643.221 55.3875 643.71 55.4599 644.059 55.6063 645.173 55.9003 646.219 56.1191 647.333 56.2669 647.821 56.3394 648.24 56.4132 648.727 56.4132L651.167 56.4132C651.724 56.4132 652.282 56.4857 652.77 56.5596 653.467 56.7059 654.164 56.7798 654.93 56.8522 656.185 56.9261 657.438 56.9261 658.554 56.9261L666.778 56.9261C669.425 56.9261 672.004 56.9261 674.654 57L674.862 57C675.977 57 677.092 56.8522 678.208 56.5596 678.717 56.4516 679.264 56.3848 679.822 56.3848 680.026 56.3848 680.232 56.3933 680.437 56.4132L690.054 56.4132C691.031 56.4132 692.285 56.5596 693.401 56.7059 694.794 56.8522 696.119 56.9261 697.512 57L697.721 57 700.858 56.9261C702.391 56.9261 703.993 56.8522 705.527 56.8522L713.82 56.8522C715.005 56.8522 716.259 56.8522 717.444 56.9261L719.047 56.9261C719.744 56.9261 720.441 56.8522 721.138 56.7798L722.183 56.6334C722.95 56.4857 723.716 56.4132 724.483 56.4132L725.388 56.4132C725.807 56.4132 726.226 56.3394 726.644 56.1191 727.411 55.754 727.828 54.8731 727.619 53.9937L727.48 53.4084 727.062 53.262C726.434 53.1143 725.878 53.0418 725.32 53.0418 724.832 53.0418 724.344 53.0418 723.857 53.1143L723.089 53.1881 722.741 53.1881C721.975 53.1881 721.207 53.0418 720.441 52.8955 719.883 52.8216 719.325 52.7477 718.769 52.6753L718.35 52.6014C716.748 52.455 715.144 52.3087 713.542 52.0885L712.845 51.9422C712.426 51.8683 711.938 51.7219 711.451 51.7219 711.032 51.6495 710.615 51.6495 710.196 51.6495L708.384 51.6495C707.826 51.6495 707.199 51.6495 706.641 51.7219L705.666 51.9422C705.249 52.016 704.759 52.0885 704.272 52.1624 703.645 52.2348 702.948 52.2348 702.321 52.2348L701.415 52.2348C700.649 52.2348 699.881 52.0885 699.254 51.7958L699.393 51.7958C699.603 51.7958 699.881 51.8683 700.091 51.8683 700.23 51.8683 700.369 51.7958 700.509 51.7958 700.858 51.7219 701.206 51.6495 701.554 51.5756 701.902 51.4293 702.251 51.3554 702.53 51.2829L705.736 51.2829C706.363 51.2829 706.99 51.3554 707.618 51.3554 708.245 51.3554 708.942 51.3554 709.569 51.2091 710.266 51.1352 710.893 51.0627 711.59 50.9888 712.496 50.9164 713.472 50.77 714.378 50.6223 715.074 50.4759 715.702 50.4035 716.329 50.4035 717.235 50.4035 718.072 50.3296 718.908 50.1094 719.605 49.8892 720.371 49.7428 721.138 49.7428L729.083 49.7428C730.686 49.7428 732.289 49.5965 733.891 49.3763 734.728 49.23 735.564 49.1575 736.47 49.1575L744.137 49.1575C745.112 49.1575 746.088 49.0836 747.063 48.8634 747.76 48.7909 748.457 48.7171 749.154 48.6446L759.469 48.6446C759.817 48.6446 760.235 48.6446 760.583 48.7171 761.071 48.7171 761.49 48.7909 761.907 48.7909L762.326 48.7909C762.814 48.7909 763.302 48.5707 763.65 48.2042 763.928 47.8376 763.999 47.4711 763.999 47.0321 763.859 45.8585 762.745 45.1254 762.256 44.6864 761.351 44.0258 760.305 43.6606 759.26 43.5129 758.772 43.5129 758.284 43.4404 757.865 43.4404L756.89 43.4404C756.193 43.4404 755.496 43.3666 754.799 43.2202L754.311 43.2202C752.638 43.0739 750.897 43 749.223 43Z" fill="#56618F" fill-rule="evenodd"/><path d="M385.722 40C386.592 40 387.461 40 388.372 39.9566 392.76 39.7849 397.106 39.7416 400.376 39.7416L401.122 39.7416C401.441 39.7566 401.76 39.7632 402.077 39.7632 403.61 39.7632 405.119 39.5965 406.628 39.3114L407.786 39.0538C409.236 38.6661 410.726 38.4085 412.216 38.2793 413.127 38.2368 414.038 38.1075 414.948 37.935 415.901 37.7199 416.853 37.5915 417.846 37.5481L424.47 37.5481C424.65 37.544 424.831 37.5415 425.012 37.5415 426.659 37.5415 428.334 37.7199 429.975 38.1075 431.963 38.6236 433.991 38.9246 436.019 39.0104 436.93 39.0538 437.841 39.0538 438.752 39.0538 439.228 39.0963 439.704 39.118 440.18 39.118 440.656 39.118 441.132 39.0963 441.609 39.0538 442.229 38.9679 442.188 39.1822 442.436 38.5377 442.999 37.1388 441.955 36.8529 440.743 36.8529 439.905 36.8529 438.986 36.9887 438.462 36.9887 437.676 36.9887 436.889 36.9887 436.102 36.9462 434.074 36.817 432.087 36.516 430.141 36 428.539 35.6515 426.903 35.4773 425.265 35.4773 425.083 35.4773 424.9 35.4798 424.718 35.484L418.343 35.484C417.432 35.484 416.521 35.5265 415.611 35.699 415.238 35.7416 414.866 35.8283 414.452 35.9141 413.872 36.0434 413.293 36.1292 412.672 36.2151 412.382 36.2576 412.051 36.2576 411.761 36.301 411.223 36.301 410.643 36.3443 410.105 36.4302 409.236 36.5594 408.408 36.7745 407.58 36.9887L407.249 37.0321C406.379 37.2905 405.469 37.4623 404.558 37.5915 403.937 37.6774 403.316 37.6774 402.654 37.6774L395.243 37.6774C393.753 37.6774 392.221 37.7632 390.731 37.8066 389.2 37.8925 387.709 37.935 386.219 37.935 385.35 37.935 384.481 37.935 383.611 37.8491 382.617 37.8066 381.665 37.634 380.671 37.4623 379.761 37.3331 378.809 37.1613 377.898 37.0754 377.236 37.0321 376.532 36.9887 375.869 36.9887L375 36.9462C374.089 36.9029 373.22 36.7745 372.31 36.6019L371.936 36.516C371.067 36.3443 370.198 36.2576 369.288 36.2151L368.832 36.2151C368.252 36.2151 367.673 36.2576 367.094 36.2576L366.224 36.3443 365.065 36.3443C364.966 36.3518 364.868 36.3551 364.769 36.3551 364.331 36.3551 363.897 36.2851 363.492 36.2151 363.161 36.1292 362.829 36 362.498 35.8708 361.96 35.6557 361.422 35.484 360.842 35.3981 360.553 35.3547 360.263 35.3547 359.973 35.3547 359.518 35.3547 359.021 35.3981 358.566 35.4406L357.986 35.484 357.406 35.484C356.62 35.484 355.874 35.3981 355.13 35.2255L354.591 35.1396C353.929 34.9679 353.266 34.8387 352.604 34.7953 352.066 34.7095 351.528 34.7095 350.948 34.7095L336.418 34.7095C335.59 34.7095 334.721 34.7095 333.852 34.7528 333.024 34.7953 332.195 34.7953 331.367 34.7953L330.333 34.7953C328.511 34.6669 326.69 34.4085 324.951 33.9783L323.916 33.7632C322.964 33.5056 321.97 33.3764 320.977 33.3331L318.452 33.3331C318.276 33.3414 318.099 33.3447 317.924 33.3447 317.106 33.3447 316.289 33.2672 315.471 33.1613 314.768 33.1188 314.064 32.9037 313.484 32.5594 313.194 32.3443 313.153 32.0434 313.36 31.6565 313.732 30.9679 314.808 30.6669 315.596 30.4952 316.92 30.2368 318.245 30.1509 319.569 30.1509L356.537 30.1509C357.075 30.1075 357.572 30.1075 358.11 30.1075 358.231 30.1025 358.352 30.1 358.475 30.1 359.314 30.1 360.176 30.2268 361.008 30.4519 361.836 30.7103 362.705 30.882 363.575 30.9679 364.03 31.0113 364.486 31.0113 364.982 31.0113 365.562 31.0113 366.183 31.0113 366.762 30.9679L367.921 30.882C368.832 30.8387 369.743 30.7528 370.653 30.7528 371.316 30.7528 372.02 30.8387 372.724 30.9254 373.344 31.0113 373.924 31.1405 374.504 31.2263 375.497 31.3981 376.45 31.6132 377.443 31.699 378.891 31.8708 380.341 31.9575 381.789 31.9575L382.783 31.9575C384.481 31.8708 386.178 31.6565 387.833 31.2689 389.331 31.0154 390.859 30.9145 392.391 30.9145 392.679 30.9145 392.968 30.9179 393.256 30.9254L393.795 30.9254 398.142 30.882C398.443 30.882 398.691 30.9137 398.895 30.9137 399.222 30.9137 399.438 30.832 399.59 30.4093 400.156 28.9937 399.093 28.7386 397.919 28.7386 397.259 28.7386 396.563 28.8195 396.102 28.8195 396.062 28.8195 396.025 28.8187 395.989 28.8178L392.842 28.8178C392.615 28.812 392.388 28.8095 392.161 28.8095 390.576 28.8095 389.018 28.9412 387.461 29.2047 385.722 29.5915 384.025 29.8066 382.286 29.8499L381.789 29.8499C380.175 29.8499 378.56 29.7641 376.987 29.549 376.283 29.4631 375.621 29.3339 374.918 29.2047 373.882 28.9896 372.847 28.8178 371.813 28.732 371.44 28.6886 371.067 28.6886 370.695 28.6886 369.702 28.6886 368.749 28.7745 367.756 28.8178 367.052 28.9037 366.348 28.9471 365.644 28.9471L364.858 28.9471C364.112 28.9471 363.409 28.9037 362.747 28.7745 362.415 28.6886 362.085 28.6028 361.794 28.5169 361.215 28.3018 360.594 28.1726 359.973 28.0867 359.6 28.0434 359.186 28.0434 358.814 28.0434L324.289 28.0434C323.295 28.0434 322.26 28.0008 321.267 28.0008 320.149 28.0008 318.99 28.0008 317.831 28.0867 315.844 28.1726 312.49 28.3443 311.456 30.882 311 31.699 311.042 32.7311 311.538 33.5056 312.367 34.8387 314.519 35.484 318.286 35.484L321.142 35.484C321.391 35.484 321.598 35.484 321.846 35.5265 322.881 35.6557 323.916 35.8708 324.951 36.1292 325.944 36.3443 326.897 36.5594 327.89 36.6878 328.884 36.8604 329.919 36.9029 330.912 36.9029 331.574 36.9029 332.278 36.9029 332.982 36.8604L334.017 36.817 350.121 36.817C350.313 36.8095 350.504 36.8062 350.695 36.8062 351.621 36.8062 352.541 36.8895 353.433 37.0321L354.26 37.2038C354.84 37.3331 355.419 37.4623 355.999 37.5481 356.371 37.5915 356.785 37.5915 357.158 37.5915 357.738 37.5915 358.317 37.5481 358.896 37.5056L359.104 37.5056C359.311 37.5056 359.518 37.4623 359.725 37.4623 360.428 37.4623 361.132 37.5915 361.794 37.8491 362.664 38.1934 363.616 38.3652 364.568 38.4085L365.272 38.4085C365.893 38.4085 366.513 38.4085 367.135 38.3652 367.756 38.3226 368.335 38.3226 368.915 38.3226 369.453 38.3226 369.991 38.3226 370.529 38.4085 371.026 38.451 371.481 38.5377 371.978 38.6236 372.475 38.7095 372.972 38.7953 373.427 38.8812 374.214 38.9679 374.959 39.0538 375.746 39.0538L376.366 39.0538C377.567 39.1396 378.809 39.3114 380.009 39.484 380.755 39.6123 381.541 39.7416 382.286 39.8274 383.445 39.9566 384.563 40 385.722 40Z" fill="#56618F" fill-rule="evenodd"/><path d="M934.892 28C933.301 28 931.779 28.0739 930.258 28.2941 928.529 28.5129 926.8 28.5868 925.07 28.5868L922.304 28.5868C921.613 28.5868 920.921 28.6606 920.161 28.6606L919.953 28.6606C918.431 28.6606 916.84 28.5129 915.388 28.2202 914.629 28.1122 913.906 28.0455 913.193 28.0455 912.933 28.0455 912.673 28.054 912.414 28.0739L910.408 28.0739C909.647 28.0739 908.817 28.1463 908.057 28.3666 907.365 28.5129 906.603 28.5868 905.911 28.5868L905.497 28.5868C904.252 28.5868 903.008 28.5129 901.694 28.4404 900.448 28.4404 899.134 28.3666 897.889 28.3666L896.16 28.3666C895.331 28.4404 894.499 28.5129 893.739 28.7331 892.979 28.8794 892.148 29.0258 891.388 29.0258L876.724 29.0258C875.964 29.0997 875.134 29.246 874.442 29.4662 873.888 29.6864 872.99 29.9791 872.782 30.5659 872.713 30.7122 872.713 30.9324 872.782 31.0788 872.782 31.2251 872.852 31.4453 872.921 31.5916 873.059 31.6655 873.214 31.701 873.37 31.701 873.525 31.701 873.682 31.6655 873.82 31.5916 874.166 31.299 874.58 31.0788 874.996 30.9324 875.622 30.7506 876.295 30.6199 876.976 30.6199 877.122 30.6199 877.27 30.6255 877.416 30.6383L879.076 30.6383C879.629 30.7122 880.113 30.7122 880.667 30.7122L885.301 30.7122C886.684 30.7122 888.068 30.7122 889.52 30.7861L890.765 30.7861C891.803 30.7861 892.771 30.7122 893.739 30.4195 894.915 30.1254 896.091 30.053 897.267 30.053L897.682 30.053C898.58 30.053 899.41 30.053 900.31 30.1254L902.039 30.1993 903.215 30.1993C903.906 30.1993 904.529 30.2718 905.221 30.2718L906.189 30.2718C906.811 30.1993 907.433 30.1254 908.125 29.9791 908.748 29.8328 909.371 29.7589 910.062 29.6864L912.482 29.6864C913.036 29.6864 913.59 29.7589 914.212 29.7589 914.766 29.8328 915.318 29.9066 915.872 30.053 916.633 30.1993 917.463 30.2718 918.293 30.3456L919.537 30.3456C920.367 30.3456 921.129 30.3456 921.889 30.2718L922.443 30.2718C923.549 30.2718 924.586 30.1993 925.694 30.1993L926.938 30.1993C928.183 30.1993 929.428 30.053 930.673 29.9066L930.949 29.9066C932.403 29.6864 933.923 29.6125 935.376 29.6125L946.235 29.6125C946.927 29.6125 947.687 29.6125 948.379 29.6864 949.14 29.7589 949.762 29.8328 950.454 29.9066 951.146 29.9791 951.838 30.053 952.598 30.1254L953.636 30.1254C953.797 30.1141 953.956 30.107 954.114 30.107 954.904 30.107 955.653 30.2604 956.403 30.5659 957.025 30.8585 957.579 31.299 958.063 31.8119 958.201 31.9582 958.269 32.1045 958.339 32.1045L957.647 32.1045 956.541 32.0321C955.918 32.0321 955.365 31.9582 954.742 31.9582L945.959 31.9582C944.991 31.9582 944.091 32.1045 943.123 32.2509 942.707 32.3247 942.293 32.3247 941.878 32.3986 941.186 32.4711 940.494 32.4711 939.802 32.4711L933.163 32.4711C931.779 32.4711 930.465 32.545 929.151 32.7638 927.699 32.984 926.246 33.0578 924.794 33.0578L920.299 33.0578 919.053 33.1303C918.569 33.1303 918.085 33.0578 917.601 33.0578 917.117 33.0578 916.633 33.1303 916.148 33.2042 915.803 33.2781 915.457 33.3505 915.112 33.4244 914.834 33.5707 914.558 33.6446 914.282 33.6446 913.866 33.7171 913.382 33.7171 913.036 33.7909L912.206 33.7909C911.445 33.7909 910.823 33.9373 910.131 34.0097 909.509 34.1575 908.887 34.23 908.263 34.3038 907.641 34.3038 907.087 34.4502 906.535 34.5241 905.773 34.5965 905.013 34.6704 904.252 34.6704L902.108 34.6704C901.348 34.5965 900.794 34.5965 900.172 34.5965L899.894 34.5965C899.41 34.5965 898.858 34.5965 898.373 34.6704 898.027 34.7428 897.751 34.8167 897.474 34.9631 897.197 35.0369 896.851 35.1094 896.506 35.1833L896.021 35.1833C895.815 35.1094 895.537 35.1094 895.331 35.1094 894.915 35.1094 894.431 35.2557 894.085 35.4759 893.809 35.77 893.669 36.0627 893.601 36.5017 893.669 37.016 893.947 37.5289 894.431 37.8216 895.123 38.4084 895.953 38.701 896.851 38.7749 897.543 38.9212 898.235 38.9212 898.926 38.9212 900.032 38.9212 901.14 38.8474 902.246 38.6272 903.63 38.4084 905.013 38.262 906.397 38.262 907.365 38.3345 908.403 38.4084 909.439 38.6272L910.546 38.7749C911.722 38.9937 913.036 39.1415 914.628 39.2878 915.18 39.3603 915.734 39.4341 916.287 39.5805 917.047 39.7268 917.877 39.8007 918.639 39.8731 917.393 40.0934 916.148 40.2397 914.972 40.2397L914.488 40.2397C911.722 40.1672 908.887 40.1672 906.189 40.1672L900.656 40.1672C899.342 40.1672 898.096 40.1672 896.851 40.2397L892.633 40.2397C891.872 40.2397 891.18 40.1672 890.35 40.0209 889.728 39.947 889.106 39.8731 888.482 39.8007 887.238 39.7268 885.854 39.6544 884.125 39.6544L877.14 39.6544C876.518 39.6544 875.894 39.6544 875.342 39.8007 874.858 39.8007 874.372 39.8731 873.888 40.0209 873.059 40.1672 872.16 40.2397 871.261 40.3136 868.009 40.2397 864.76 40.2397 861.508 40.2397L853.762 40.2397C852.379 40.2397 850.926 40.1672 849.542 39.947L849.058 39.8731C848.574 39.8007 848.09 39.7268 847.537 39.7268L845.393 39.7268C843.663 39.5805 841.935 39.2139 840.206 38.6272 839.306 38.4084 838.338 38.1143 837.37 37.8955 836.678 37.8216 835.986 37.7477 835.295 37.7477 834.673 37.6753 834.119 37.6753 833.566 37.6014 832.805 37.455 832.113 37.2348 831.491 36.9422 831.215 36.7958 830.937 36.6495 830.731 36.3554 830.869 36.2829 831.077 36.2829 831.283 36.2829L832.875 36.2829C833.289 36.2829 833.635 36.2091 834.05 36.1352L834.673 35.9888C835.077 35.9036 835.506 35.8681 835.96 35.8681 836.279 35.8681 836.611 35.8851 836.954 35.9164L838.408 35.9164C839.306 35.9164 840.275 35.9164 841.174 35.9888 841.797 35.9888 842.419 36.1352 843.041 36.2091 843.733 36.2829 844.563 36.4293 845.393 36.4293 846.015 36.4293 846.638 36.5756 847.191 36.6495 847.952 36.7958 848.713 36.8683 849.474 36.8683L859.226 36.8683C859.468 36.8867 859.714 36.8967 859.962 36.8967 860.709 36.8967 861.473 36.8143 862.2 36.6495 863.03 36.4847 863.86 36.4009 864.69 36.4009 864.967 36.4009 865.244 36.4108 865.52 36.4293L870.707 36.4293C871.33 36.3554 871.953 36.2829 872.575 36.1352 873.059 35.9888 873.612 35.9164 874.096 35.9164L874.372 35.9164C875.134 35.8425 875.48 34.8167 874.926 34.3038 874.804 34.2172 874.684 34.1817 874.562 34.1817 874.476 34.1817 874.39 34.2001 874.304 34.23 873.612 34.23 872.99 34.3763 872.367 34.5241 871.883 34.5965 871.399 34.6704 870.915 34.7428L864.828 34.7428C864.206 34.7428 863.652 34.7428 863.168 34.8167 862.754 34.8892 862.408 34.9631 862.062 35.0369 861.232 35.1833 860.471 35.2557 859.641 35.2557L850.234 35.2557C849.542 35.2557 848.852 35.2557 848.229 35.1833 847.952 35.1833 847.676 35.1094 847.399 35.0369 847.191 34.9631 846.777 34.8892 846.431 34.8892 846.258 34.8537 846.085 34.8537 845.912 34.8537 845.739 34.8537 845.566 34.8537 845.393 34.8167 845.22 34.7798 845.082 34.7798 844.952 34.7798 844.823 34.7798 844.701 34.7798 844.563 34.7428 844.009 34.6704 843.525 34.5965 842.973 34.5241 842.211 34.4502 841.52 34.3038 840.759 34.3038 839.998 34.23 839.238 34.23 838.546 34.23L836.816 34.23C835.641 34.23 834.534 34.3763 833.427 34.5965 832.875 34.6704 832.321 34.7428 831.767 34.7428L831.007 34.7428C830.943 34.7372 830.88 34.7343 830.817 34.7343 830.142 34.7343 829.594 35.0923 829.278 35.6962 829.001 36.4293 829.209 37.2348 829.762 37.7477 830.869 38.6272 832.113 39.1415 833.497 39.2878 833.981 39.3603 834.465 39.3603 835.018 39.3603L835.018 38.6272 835.226 39.3603C835.918 39.3603 836.61 39.4341 837.3 39.6544 838.13 39.8007 838.962 40.0209 839.722 40.2397 840.136 40.3875 840.621 40.4599 840.967 40.6063 842.073 40.9003 843.111 41.1191 844.217 41.2669 844.701 41.3394 845.117 41.4132 845.601 41.4132L848.022 41.4132C848.574 41.4132 849.128 41.4857 849.612 41.5596 850.304 41.7059 850.996 41.7798 851.756 41.8522 853.001 41.9261 854.246 41.9261 855.353 41.9261L863.514 41.9261C866.142 41.9261 868.701 41.9261 871.33 42L871.537 42C872.644 42 873.75 41.8522 874.858 41.5596 875.363 41.4516 875.906 41.3848 876.46 41.3848 876.662 41.3848 876.866 41.3933 877.07 41.4132L886.615 41.4132C887.584 41.4132 888.828 41.5596 889.936 41.7059 891.318 41.8522 892.633 41.9261 894.015 42L894.223 42 897.336 41.9261C898.858 41.9261 900.448 41.8522 901.97 41.8522L910.2 41.8522C911.376 41.8522 912.62 41.8522 913.796 41.9261L915.388 41.9261C916.079 41.9261 916.771 41.8522 917.463 41.7798L918.5 41.6334C919.261 41.4857 920.021 41.4132 920.783 41.4132L921.681 41.4132C922.097 41.4132 922.512 41.3394 922.927 41.1191 923.688 40.754 924.102 39.8731 923.895 38.9937L923.756 38.4084 923.342 38.262C922.719 38.1143 922.166 38.0418 921.613 38.0418 921.129 38.0418 920.645 38.0418 920.161 38.1143L919.399 38.1881 919.053 38.1881C918.293 38.1881 917.531 38.0418 916.771 37.8955 916.218 37.8216 915.664 37.7477 915.112 37.6753L914.696 37.6014C913.106 37.455 911.514 37.3087 909.924 37.0885L909.232 36.9422C908.817 36.8683 908.333 36.7219 907.849 36.7219 907.433 36.6495 907.019 36.6495 906.603 36.6495L904.805 36.6495C904.252 36.6495 903.63 36.6495 903.076 36.7219L902.108 36.9422C901.694 37.016 901.208 37.0885 900.724 37.1624 900.102 37.2348 899.41 37.2348 898.788 37.2348L897.889 37.2348C897.128 37.2348 896.367 37.0885 895.745 36.7958L895.883 36.7958C896.091 36.7958 896.367 36.8683 896.575 36.8683 896.713 36.8683 896.851 36.7958 896.99 36.7958 897.336 36.7219 897.682 36.6495 898.027 36.5756 898.373 36.4293 898.719 36.3554 898.996 36.2829L902.178 36.2829C902.8 36.2829 903.422 36.3554 904.045 36.3554 904.667 36.3554 905.359 36.3554 905.981 36.2091 906.673 36.1352 907.295 36.0627 907.987 35.9888 908.887 35.9164 909.855 35.77 910.754 35.6223 911.445 35.4759 912.068 35.4035 912.69 35.4035 913.59 35.4035 914.42 35.3296 915.25 35.1094 915.941 34.8892 916.702 34.7428 917.463 34.7428L925.348 34.7428C926.938 34.7428 928.529 34.5965 930.119 34.3763 930.949 34.23 931.779 34.1575 932.679 34.1575L940.287 34.1575C941.255 34.1575 942.223 34.0836 943.191 33.8634 943.883 33.7909 944.575 33.7171 945.267 33.6446L955.503 33.6446C955.849 33.6446 956.263 33.6446 956.609 33.7171 957.093 33.7171 957.509 33.7909 957.923 33.7909L958.339 33.7909C958.823 33.7909 959.307 33.5707 959.653 33.2042 959.929 32.8376 959.999 32.4711 959.999 32.0321 959.861 30.8585 958.754 30.1254 958.269 29.6864 957.371 29.0258 956.333 28.6606 955.295 28.5129 954.811 28.5129 954.327 28.4404 953.912 28.4404L952.944 28.4404C952.252 28.4404 951.56 28.3666 950.868 28.2202L950.384 28.2202C948.725 28.0739 946.996 28 945.335 28Z" fill="#56618F" fill-rule="evenodd"/><path d="M555.568 79C553.575 79 551.67 79.0844 549.765 79.3361 547.602 79.5862 545.436 79.6706 543.271 79.6706L539.809 79.6706C538.943 79.6706 538.076 79.755 537.125 79.755L536.865 79.755C534.96 79.755 532.967 79.5862 531.149 79.2517 530.199 79.1283 529.295 79.052 528.402 79.052 528.076 79.052 527.751 79.0617 527.427 79.0844L524.916 79.0844C523.962 79.0844 522.923 79.1672 521.972 79.4189 521.106 79.5862 520.152 79.6706 519.286 79.6706L518.768 79.6706C517.208 79.6706 515.651 79.5862 514.006 79.5033 512.446 79.5033 510.802 79.4189 509.242 79.4189L507.079 79.4189C506.04 79.5033 504.999 79.5862 504.047 79.8378 503.096 80.0051 502.055 80.1723 501.103 80.1723L482.746 80.1723C481.795 80.2568 480.756 80.424 479.889 80.6757 479.196 80.9273 478.072 81.2618 477.812 81.9324 477.724 82.0997 477.724 82.3513 477.812 82.5186 477.812 82.6858 477.899 82.9375 477.984 83.1047 478.157 83.1892 478.352 83.2298 478.547 83.2298 478.741 83.2298 478.938 83.1892 479.111 83.1047 479.544 82.7702 480.062 82.5186 480.583 82.3513 481.367 82.1435 482.209 81.9941 483.062 81.9941 483.245 81.9941 483.429 82.0006 483.612 82.0152L485.69 82.0152C486.383 82.0997 486.989 82.0997 487.683 82.0997L493.483 82.0997C495.215 82.0997 496.948 82.0997 498.765 82.1841L500.325 82.1841C501.624 82.1841 502.836 82.0997 504.047 81.7652 505.519 81.4291 506.991 81.3463 508.464 81.3463L508.984 81.3463C510.108 81.3463 511.147 81.3463 512.274 81.4291L514.439 81.5135 515.911 81.5135C516.775 81.5135 517.556 81.5963 518.422 81.5963L519.634 81.5963C520.412 81.5135 521.191 81.4291 522.057 81.2618 522.838 81.0946 523.617 81.0101 524.483 80.9273L527.512 80.9273C528.205 80.9273 528.899 81.0101 529.677 81.0101 530.371 81.0946 531.062 81.179 531.755 81.3463 532.709 81.5135 533.748 81.5963 534.787 81.6807L536.344 81.6807C537.383 81.6807 538.337 81.6807 539.288 81.5963L539.981 81.5963C541.366 81.5963 542.665 81.5135 544.052 81.5135L545.609 81.5135C547.169 81.5135 548.726 81.3463 550.286 81.179L550.631 81.179C552.451 80.9273 554.354 80.8429 556.174 80.8429L569.767 80.8429C570.633 80.8429 571.585 80.8429 572.451 80.9273 573.405 81.0101 574.183 81.0946 575.049 81.179 575.916 81.2618 576.782 81.3463 577.733 81.4291L579.032 81.4291C579.234 81.4161 579.434 81.408 579.632 81.408 580.62 81.408 581.558 81.5833 582.497 81.9324 583.276 82.2669 583.969 82.7702 584.575 83.3564 584.747 83.5236 584.833 83.6909 584.92 83.6909L584.054 83.6909 582.67 83.6081C581.889 83.6081 581.198 83.5236 580.417 83.5236L569.422 83.5236C568.21 83.5236 567.083 83.6909 565.872 83.8581 565.351 83.9426 564.833 83.9426 564.312 84.027 563.446 84.1098 562.58 84.1098 561.714 84.1098L553.402 84.1098C551.67 84.1098 550.025 84.1942 548.38 84.4443 546.563 84.696 544.743 84.7804 542.925 84.7804L537.298 84.7804 535.738 84.8632C535.132 84.8632 534.526 84.7804 533.921 84.7804 533.315 84.7804 532.709 84.8632 532.101 84.9476 531.67 85.0321 531.237 85.1149 530.804 85.1993 530.456 85.3666 530.11 85.451 529.765 85.451 529.244 85.5338 528.638 85.5338 528.205 85.6182L527.167 85.6182C526.213 85.6182 525.434 85.7855 524.568 85.8683 523.789 86.0371 523.011 86.1199 522.23 86.2044 521.451 86.2044 520.758 86.3716 520.067 86.4561 519.113 86.5389 518.162 86.6233 517.208 86.6233L514.524 86.6233C513.573 86.5389 512.88 86.5389 512.101 86.5389L511.753 86.5389C511.147 86.5389 510.456 86.5389 509.848 86.6233 509.415 86.7061 509.069 86.7905 508.724 86.9578 508.376 87.0422 507.943 87.125 507.512 87.2095L506.904 87.2095C506.646 87.125 506.298 87.125 506.04 87.125 505.519 87.125 504.914 87.2923 504.481 87.5439 504.135 87.8801 503.96 88.2145 503.875 88.7163 503.96 89.304 504.308 89.8902 504.914 90.2247 505.78 90.8953 506.819 91.2298 507.943 91.3142 508.809 91.4814 509.675 91.4814 510.541 91.4814 511.926 91.4814 513.313 91.397 514.697 91.1453 516.429 90.8953 518.162 90.728 519.894 90.728 521.106 90.8108 522.405 90.8953 523.702 91.1453L525.089 91.3142C526.561 91.5642 528.205 91.7331 530.198 91.9003 530.889 91.9832 531.583 92.0676 532.276 92.2348 533.227 92.4021 534.266 92.4865 535.22 92.5693 533.66 92.821 532.101 92.9882 530.629 92.9882L530.023 92.9882C526.561 92.9054 523.011 92.9054 519.634 92.9054L512.707 92.9054C511.062 92.9054 509.502 92.9054 507.943 92.9882L502.663 92.9882C501.709 92.9882 500.843 92.9054 499.804 92.7382 499.026 92.6537 498.247 92.5693 497.466 92.4865 495.909 92.4021 494.176 92.3193 492.011 92.3193L483.267 92.3193C482.488 92.3193 481.707 92.3193 481.016 92.4865 480.41 92.4865 479.802 92.5693 479.196 92.7382 478.157 92.9054 477.033 92.9882 475.907 93.0727 471.836 92.9882 467.768 92.9882 463.697 92.9882L453.999 92.9882C452.269 92.9882 450.449 92.9054 448.717 92.6537L448.111 92.5693C447.505 92.4865 446.9 92.4021 446.206 92.4021L443.522 92.4021C441.357 92.2348 439.194 91.8159 437.029 91.1453 435.902 90.8953 434.69 90.5592 433.479 90.3091 432.612 90.2247 431.746 90.1402 430.88 90.1402 430.102 90.0574 429.408 90.0574 428.717 89.973 427.763 89.8058 426.897 89.5541 426.119 89.2196 425.773 89.0524 425.425 88.8851 425.167 88.549 425.34 88.4662 425.6 88.4662 425.858 88.4662L427.851 88.4662C428.369 88.4662 428.802 88.3818 429.323 88.2973L430.102 88.1301C430.608 88.0327 431.146 87.9921 431.713 87.9921 432.112 87.9921 432.529 88.0116 432.958 88.0473L434.778 88.0473C435.902 88.0473 437.116 88.0473 438.24 88.1301 439.021 88.1301 439.8 88.2973 440.578 88.3818 441.445 88.4662 442.483 88.6334 443.522 88.6334 444.301 88.6334 445.082 88.8007 445.773 88.8851 446.727 89.0524 447.678 89.1352 448.632 89.1352L460.841 89.1352C461.143 89.1563 461.452 89.1676 461.762 89.1676 462.697 89.1676 463.654 89.0735 464.564 88.8851 465.603 88.6968 466.641 88.601 467.68 88.601 468.028 88.601 468.374 88.6123 468.719 88.6334L475.213 88.6334C475.994 88.549 476.773 88.4662 477.551 88.2973 478.157 88.1301 478.851 88.0473 479.456 88.0473L479.802 88.0473C480.756 87.9629 481.189 86.7905 480.495 86.2044 480.343 86.1053 480.192 86.0647 480.039 86.0647 479.931 86.0647 479.824 86.0859 479.717 86.1199 478.851 86.1199 478.072 86.2872 477.291 86.4561 476.685 86.5389 476.079 86.6233 475.473 86.7061L467.853 86.7061C467.074 86.7061 466.381 86.7061 465.775 86.7905 465.257 86.8734 464.824 86.9578 464.391 87.0422 463.352 87.2095 462.398 87.2923 461.359 87.2923L449.583 87.2923C448.717 87.2923 447.853 87.2923 447.072 87.2095 446.727 87.2095 446.381 87.125 446.033 87.0422 445.773 86.9578 445.255 86.8734 444.822 86.8734 444.605 86.8328 444.389 86.8328 444.172 86.8328 443.956 86.8328 443.739 86.8328 443.522 86.7905 443.306 86.7483 443.133 86.7483 442.97 86.7483 442.809 86.7483 442.656 86.7483 442.483 86.7061 441.79 86.6233 441.184 86.5389 440.493 86.4561 439.539 86.3716 438.673 86.2044 437.722 86.2044 436.768 86.1199 435.817 86.1199 434.951 86.1199L432.785 86.1199C431.313 86.1199 429.929 86.2872 428.542 86.5389 427.851 86.6233 427.158 86.7061 426.464 86.7061L425.513 86.7061C425.432 86.6996 425.353 86.6964 425.274 86.6964 424.43 86.6964 423.744 87.1055 423.347 87.7956 423.002 88.6334 423.262 89.5541 423.953 90.1402 425.34 91.1453 426.897 91.7331 428.63 91.9003 429.235 91.9832 429.841 91.9832 430.535 91.9832L430.535 91.1453 430.795 91.9832C431.661 91.9832 432.527 92.0676 433.391 92.3193 434.43 92.4865 435.471 92.7382 436.423 92.9882 436.941 93.1571 437.549 93.2399 437.982 93.4071 439.367 93.7432 440.666 93.9933 442.05 94.1622 442.656 94.245 443.177 94.3294 443.783 94.3294L446.814 94.3294C447.505 94.3294 448.199 94.4122 448.805 94.4967 449.671 94.6639 450.537 94.7483 451.488 94.8311 453.048 94.9156 454.605 94.9156 455.992 94.9156L466.208 94.9156C469.498 94.9156 472.702 94.9156 475.994 95L476.252 95C477.639 95 479.023 94.8311 480.41 94.4967 481.043 94.3732 481.722 94.2969 482.416 94.2969 482.669 94.2969 482.924 94.3067 483.179 94.3294L495.128 94.3294C496.342 94.3294 497.899 94.4967 499.286 94.6639 501.016 94.8311 502.663 94.9156 504.393 95L504.653 95 508.551 94.9156C510.456 94.9156 512.446 94.8311 514.352 94.8311L524.656 94.8311C526.128 94.8311 527.685 94.8311 529.157 94.9156L531.149 94.9156C532.016 94.9156 532.882 94.8311 533.748 94.7483L535.045 94.5811C535.999 94.4122 536.95 94.3294 537.904 94.3294L539.028 94.3294C539.548 94.3294 540.069 94.245 540.587 93.9933 541.541 93.576 542.059 92.5693 541.799 91.5642L541.626 90.8953 541.108 90.728C540.327 90.5592 539.636 90.4764 538.943 90.4764 538.337 90.4764 537.731 90.4764 537.125 90.5592L536.171 90.6436 535.738 90.6436C534.787 90.6436 533.833 90.4764 532.882 90.3091 532.188 90.2247 531.495 90.1402 530.804 90.0574L530.283 89.973C528.293 89.8058 526.3 89.6385 524.31 89.3868L523.444 89.2196C522.923 89.1352 522.317 88.9679 521.712 88.9679 521.191 88.8851 520.673 88.8851 520.152 88.8851L517.901 88.8851C517.208 88.8851 516.429 88.8851 515.736 88.9679L514.524 89.2196C514.006 89.304 513.398 89.3868 512.792 89.4713 512.013 89.5541 511.147 89.5541 510.369 89.5541L509.242 89.5541C508.291 89.5541 507.337 89.3868 506.558 89.0524L506.731 89.0524C506.991 89.0524 507.337 89.1352 507.597 89.1352 507.77 89.1352 507.943 89.0524 508.118 89.0524 508.551 88.9679 508.984 88.8851 509.415 88.8007 509.848 88.6334 510.281 88.549 510.629 88.4662L514.612 88.4662C515.39 88.4662 516.169 88.549 516.95 88.549 517.729 88.549 518.595 88.549 519.373 88.3818 520.24 88.2973 521.018 88.2145 521.884 88.1301 523.011 88.0473 524.222 87.8801 525.349 87.7112 526.213 87.5439 526.994 87.4611 527.772 87.4611 528.899 87.4611 529.938 87.3767 530.977 87.125 531.843 86.8734 532.794 86.7061 533.748 86.7061L543.619 86.7061C545.609 86.7061 547.602 86.5389 549.592 86.2872 550.631 86.1199 551.67 86.0371 552.797 86.0371L562.322 86.0371C563.534 86.0371 564.745 85.9527 565.957 85.701 566.823 85.6182 567.689 85.5338 568.555 85.451L581.37 85.451C581.803 85.451 582.322 85.451 582.755 85.5338 583.361 85.5338 583.881 85.6182 584.4 85.6182L584.92 85.6182C585.526 85.6182 586.132 85.3666 586.565 84.9476 586.911 84.5287 586.998 84.1098 586.998 83.6081 586.825 82.2669 585.441 81.4291 584.833 80.9273 583.709 80.1723 582.409 79.755 581.11 79.5862 580.504 79.5862 579.898 79.5033 579.378 79.5033L578.166 79.5033C577.3 79.5033 576.434 79.4189 575.568 79.2517L574.962 79.2517C572.884 79.0844 570.721 79 568.641 79Z" fill="#56618F" fill-rule="evenodd"/><path d="M869.135 440.003C867.793 440.003 866.457 440.048 865.138 440.143 862.167 440.568 859.764 442.122 857.076 442.545 853.115 443.25 849.44 444.521 845.479 444.664 841.944 444.664 838.689 445.37 835.297 445.512 831.336 445.512 827.518 445.512 823.557 445.792 820.305 446.358 817.759 448.337 814.648 448.617 811.959 449.043 809.414 449.748 807.009 451.019 804.323 452.29 802.484 455.115 799.796 456.812 797.518 458.202 794.106 461.178 790.979 461.178 790.614 461.178 790.252 461.137 789.897 461.048 786.005 460.238 782.302 459.662 778.57 459.662 775.79 459.662 772.995 459.98 770.097 460.765 766.843 461.613 763.731 462.744 760.762 464.015 759.63 464.578 758.357 465.004 757.227 465.286 756.567 465.286 755.906 465.159 755.246 465.159 754.917 465.159 754.585 465.192 754.256 465.286 752.983 465.426 751.851 465.992 750.861 466.84 748.459 468.251 746.194 469.805 744.074 471.502 740.963 474.184 737.851 474.466 734.173 475.88 732.757 476.443 731.628 477.291 730.212 477.857 728.799 478.14 727.526 478.562 726.253 478.985 722.576 480.964 718.615 482.518 714.656 483.507 707.583 484.778 700.654 486.189 693.581 487.462 689.763 488.308 685.945 488.734 681.986 489.014 681.137 488.981 680.28 488.963 679.418 488.963 676.832 488.963 674.207 489.121 671.662 489.439 668.407 490.005 665.155 489.722 662.044 490.568 660.628 490.85 659.355 491.276 658.083 491.839 655.983 492.58 653.884 492.998 651.785 492.998 651.482 492.998 651.176 492.987 650.87 492.97 647.475 493.112 645.355 494.666 642.95 496.783 641.818 497.771 640.828 498.619 639.981 499.75 638.706 501.444 637.859 503.421 635.737 504.129 634.041 504.552 632.342 504.835 630.646 504.835 628.807 505.117 627.109 505.4 625.413 505.965 623.867 506.381 622.296 506.447 620.72 506.447 619.985 506.447 619.25 506.432 618.516 506.432 617.08 506.432 615.649 506.488 614.239 506.811 610.28 507.799 606.319 508.082 602.218 508.93 600.096 509.353 597.834 509.636 595.711 509.779 595.258 509.738 594.801 509.72 594.349 509.72 593.258 509.72 592.187 509.819 591.187 509.919 589.348 510.344 587.652 510.907 586.096 511.755 583.974 512.461 581.852 513.026 579.73 513.452 577.327 514.015 574.782 516.557 572.234 517.122L572.234 516.417C572.165 515.851 571.703 515.569 571.226 515.569 570.749 515.569 570.255 515.851 570.114 516.417L570.114 516.84 569.831 516.84C569.752 516.801 569.673 516.784 569.599 516.784 569.132 516.784 568.796 517.464 569.405 517.83 569.688 517.83 569.971 517.971 570.255 518.111 570.255 521.078 570.397 524.186 570.255 527.151 569.971 530.684 568.558 533.789 568.275 537.179 567.992 540.004 567.003 545.231 570.678 546.362 571.494 546.617 572.366 546.685 573.259 546.685 574.386 546.685 575.549 546.573 576.682 546.573 577.138 546.573 577.592 546.591 578.034 546.645 581.286 547.208 584.68 547.633 588.075 548.056 590.123 548.328 592.202 548.471 594.283 548.471 598.673 548.471 603.09 547.844 607.309 546.502 609.148 545.937 611.127 545.514 613.109 545.371 614.948 545.514 616.644 545.796 618.483 546.219 622.161 546.645 625.979 546.645 629.657 546.785 631.776 546.912 633.885 546.976 635.985 546.976 640.884 546.976 645.735 546.629 650.586 545.937 653.698 545.514 656.81 545.654 659.921 545.231 664.166 544.808 668.267 544.243 672.368 543.96 673.044 543.934 673.72 543.924 674.396 543.924 677.538 543.924 680.68 544.176 683.823 544.525 685.378 544.665 686.934 544.737 688.508 544.737 690.082 544.737 691.673 544.665 693.3 544.525 694.589 544.584 695.877 544.617 697.175 544.617 699.014 544.617 700.87 544.548 702.776 544.383 706.311 543.677 710.129 543.394 713.807 543.394 721.02 543.677 728.092 545.231 735.305 545.796 738.84 546.079 742.092 545.937 745.63 546.079 749.022 546.219 752.7 546.785 756.235 546.925 762.283 546.925 768.327 546.688 774.375 546.688 776.39 546.688 778.405 546.713 780.422 546.785 783.814 546.785 787.209 547.633 790.604 547.633 794.565 547.633 798.666 547.916 802.625 548.479 807.103 549.505 811.702 549.976 816.344 549.976 818.741 549.976 821.149 549.849 823.557 549.61 828.584 549.128 833.675 548.909 838.789 548.909 841.156 548.909 843.53 548.955 845.902 549.044 853.541 549.327 861.037 549.892 868.533 550.881 873.734 551.53 879.059 551.874 884.385 551.874 887.167 551.874 889.95 551.78 892.717 551.586 900.637 550.741 908.416 550.315 916.335 549.044 918.458 548.761 920.613 548.621 922.788 548.621 924.964 548.621 927.155 548.761 929.348 549.044 933.59 549.47 938.117 549.47 942.359 549.61 946.743 549.892 950.987 549.75 955.229 549.892 957.491 549.892 959.756 550.315 962.018 551.163 963.431 552.012 964.987 552.577 966.686 553 967.109 553 967.675 552.717 967.816 552.294 968.099 550.881 968.382 549.47 968.242 547.916 973.473 543.537 974.465 534.78 975.455 528.705 976.868 519.102 977.293 509.496 976.727 499.89 976.584 489.579 975.312 479.693 975.595 469.522 975.595 464.155 976.018 458.788 976.727 453.561 977.434 450.171 978 446.783 975.878 443.676 975.63 443.429 975.337 443.278 975.023 443.278 974.797 443.278 974.559 443.357 974.322 443.533 974.322 443.393 974.182 443.25 974.039 443.25 972.404 443.018 970.769 442.914 969.134 442.914 967.8 442.914 966.464 442.983 965.13 443.11 962.396 443.11 959.598 443.046 956.779 443.046 955.372 443.046 953.956 443.062 952.543 443.11 949.431 443.25 946.603 444.664 943.348 444.664 942.05 444.753 940.752 444.799 939.454 444.799 936.651 444.799 933.848 444.58 931.044 444.098 927.367 443.393 923.691 443.11 920.154 442.405 917.44 441.91 915.155 440.772 912.453 440.772 912.061 440.772 911.658 440.795 911.245 440.851 908.732 441.332 906.217 441.551 903.705 441.551 902.542 441.551 901.376 441.505 900.213 441.414 896.252 440.851 892.151 440.708 888.05 440.708 887.014 440.749 885.966 440.767 884.91 440.767 882.36 440.767 879.761 440.667 877.159 440.568 874.519 440.191 871.816 440.003 869.135 440.003Z" fill="#313752" fill-rule="evenodd"/><path d="M868.791 440.003C868.198 440.003 867.603 440.013 867.003 440.039 868.994 440.896 870.844 441.753 872.695 442.607 875.115 443.609 877.391 445.034 879.382 446.604 881.092 447.747 882.657 448.887 884.364 450.03 885.929 451.173 887.92 451.886 889.914 452.028 890.412 451.958 890.91 451.922 891.426 451.922 891.942 451.922 892.476 451.958 893.043 452.028 895.037 452.457 896.887 453.456 898.309 455.026 901.725 457.451 905.425 459.165 908.982 461.306 910.547 462.305 912.254 463.445 913.82 464.302 915.955 465.301 918.09 465.872 920.225 466.871 922.358 467.728 924.636 468.441 926.913 469.012 928.096 469.486 929.477 470.258 930.808 470.258 931.078 470.258 931.345 470.227 931.609 470.155 932.179 470.011 932.179 469.44 931.75 469.154 931.18 468.727 930.47 468.441 929.9 468.155 928.334 467.442 927.054 466.444 926.058 465.301 924.067 463.731 922.073 462.447 919.94 461.306 918.09 460.022 916.098 459.021 913.963 458.166 910.547 456.882 907.417 455.026 904.712 452.599 902.864 451.029 901.014 449.603 898.879 448.46 896.458 446.89 895.178 444.463 892.902 442.751 892.047 442.038 891.336 441.467 890.625 440.896L890.34 440.61 887.494 440.61C886.08 440.721 884.689 440.767 883.301 440.767 881.056 440.767 878.823 440.643 876.536 440.468 873.98 440.234 871.424 440.003 868.791 440.003ZM912.146 440.811C911.72 440.811 911.281 440.836 910.832 440.896 908.271 441.323 905.71 441.467 903.146 441.467 903.146 441.894 903.431 442.18 903.86 442.466 905.281 443.464 907.986 443.75 909.552 444.321 911.687 445.179 913.82 445.892 915.955 446.604 920.792 447.603 924.493 450.458 928.334 453.456 931.324 455.881 934.311 458.166 937.157 460.591 938.582 461.734 940.147 462.447 941.854 462.732 944.415 463.445 946.835 464.302 949.111 465.301 953.382 467.157 957.223 469.584 961.35 471.44 963.626 472.294 965.761 473.437 967.753 474.863 969.462 476.433 970.884 477.717 972.593 479.287 973.589 480.144 974.725 481.001 975.865 482 975.58 477.861 975.439 473.864 975.58 469.725 975.58 464.302 975.865 459.021 976.719 453.742 977.43 450.316 978 446.749 975.865 443.75 975.59 443.475 975.254 443.315 974.897 443.315 974.702 443.315 974.502 443.364 974.299 443.464 974.299 443.323 974.158 443.323 974.015 443.323 972.37 443.086 970.725 442.98 969.08 442.98 967.737 442.98 966.393 443.05 965.05 443.179 962.299 443.179 959.484 443.053 956.648 443.053 955.232 443.053 953.807 443.083 952.386 443.179 949.255 443.323 946.409 444.607 943.134 444.749 942.208 444.782 941.279 444.8 940.352 444.8 937.152 444.8 933.955 444.589 930.755 444.036 927.054 443.464 923.356 443.179 919.796 442.466 917.097 441.851 914.82 440.811 912.146 440.811Z" fill="#F89097" fill-rule="evenodd"/><path d="M165.5 137.003C97.4006 137.003 42.0029 192.182 42.0029 260.5 42.0029 328.599 97.4006 384 165.5 384 233.818 384 288.997 328.599 288.997 260.5 288.997 192.182 233.818 137.003 165.5 137.003Z" fill="#F89097" fill-rule="evenodd"/><path d="M179.605 327.003C177.295 327.003 174.968 327.38 172.698 328.158 165.748 330.469 159.449 336.449 152.386 336.449 151.867 336.449 151.349 336.416 150.823 336.35 145.605 335.604 141.626 331.634 137.151 329.149 135.092 328.122 132.914 327.568 130.7 327.568 129.708 327.568 128.707 327.677 127.705 327.908 84.9504 378.795 38.4673 426.706-11 471.142-11 471.142 29.2699 491 200.789 491 372.306 491 425.997 471.142 425.997 471.142 379.762 429.436 336.263 385.003 295.745 337.838 290.52 339.502 285.1 340.323 279.7 340.323 273.024 340.323 266.381 339.066 260.198 336.597 253.985 333.865 247.768 329.894 240.808 329.894 234.096 329.894 227.387 334.611 221.171 338.086 217.367 340.215 212.72 341.878 208.377 341.878 205.631 341.878 203.004 341.211 200.789 339.574 198.8 337.838 196.81 335.851 195.32 333.617 191.053 329.36 185.392 327.003 179.605 327.003Z" fill="#313752" fill-rule="evenodd"/><path d="M220.837 246.003C218.097 246.502 215.608 247.501 213.616 248.999 211.38 250.5 208.888 251.749 206.4 252.497 205.572 252.663 204.742 252.749 203.921 252.749 202.28 252.749 200.675 252.414 199.183 251.749 197.442 250.5 195.45 249.501 193.458 248.501 192.76 248.308 192.042 248.215 191.334 248.215 189.259 248.215 187.224 249.012 185.742 250.5 168.072 277.48 148.909 303.459 128 328.193 128.96 327.951 129.942 327.841 130.925 327.841 133.01 327.841 135.101 328.343 136.961 329.19 141.689 331.691 145.673 335.437 150.65 336.437 151.193 336.503 151.729 336.536 152.258 336.536 159.501 336.536 165.61 330.518 172.8 328.193 175.073 327.409 177.403 327.031 179.716 327.031 185.51 327.031 191.178 329.402 195.45 333.687 196.943 335.935 198.935 337.935 200.927 339.682 203.239 341.329 205.893 342 208.65 342 213.004 342 217.62 340.326 221.581 338.184 227.805 334.686 234.026 330.189 241.243 329.94 248.463 329.94 254.188 333.936 260.657 336.686 266.851 339.17 273.499 340.436 280.143 340.436 285.514 340.436 290.881 339.609 296 337.935 272.106 310.205 250.204 280.977 230.046 250.5 227.805 247.75 224.321 246.003 220.837 246.003Z" fill="#F0E2E2" fill-rule="evenodd"/><path d="M1232.99 0.00551327C1086.65 0.00551327 1049.64 54.7909 980.79 97.1714 956.179 112.344 927.814 117.686 896.831 117.686 823.107 117.686 734.575 87.4295 646.564 87.4295 640.575 87.4295 634.59 87.5673 628.606 87.865 524.83 92.6561 429.926 168.16 355.084 168.16 354.581 168.16 354.077 168.155 353.573 168.149 281.123 167.151 227.681 144.972 167.758 144.972 165.588 144.972 163.407 145.005 161.22 145.065 98.9498 147.133 55.0133 175.73 0.00553565 184L1232.99 184 1232.99 0.00551327Z" fill="#7093BA" fill-rule="evenodd" transform="matrix(-1 0 0 1 1110 373)"/><path d="M17.8069 148.798C19.6484 147.681 21.8091 146.853 24.0403 146.205 26.6301 145.421 29.4135 144.871 32.1152 143.836 32.4748 143.698 32.8903 143.435 33.2498 143.297 33.0158 143.491 32.8354 143.558 32.5979 143.753 28.6921 146.488 23.9552 147.064 19.4961 148.359 18.955 148.567 18.47 148.648 17.8069 148.798ZM-17.2497 172.147C-17.1266 172.202-16.9965 172.254-16.8643 172.301-9.54239 173.626-2.63603 175.213 4.66142 173.245 7.69347 172.806 10.2318 170.801 11.4539 168.061 11.883 166.762 12.135 165.529 12.2605 164.242 12.9271 162.748 13.1669 161.211 13.4034 159.675 13.4885 158.816 13.1985 157.792 13.2691 156.629L13.8247 155.383C13.9356 155.134 14.172 154.942 14.5316 154.804 15.9026 154.073 17.4673 153.576 18.976 153.204 19.2595 153.353 19.5438 153.495 19.8334 153.624 21.2841 154.271 22.8366 154.651 24.4174 154.734 27.1571 154.613 27.5604 152.704 29.3907 151.28 32.4666 149.069 36.6916 147.967 40.1684 146.531 41.069 146.186 41.6381 145.248 41.7233 144.389 42.9139 143.725 44.174 143.242 45.5037 142.941 46.6996 142.667 47.9258 143.052 49.1448 143.595 49.9582 143.958 50.7689 144.392 51.5654 144.748L57.542 147.414C58.4288 147.749 59.3037 148.11 60.1678 148.495 63.5279 149.994 66.6875 151.858 69.5502 153.966 71.2637 155.477 71.7196 157.472 72.7142 159.258 73.571 160.685 74.4803 161.988 75.6966 163.277 76.5518 164.157 77.569 164.848 78.6842 165.345 80.2411 166.04 81.9896 166.357 83.7644 166.277 86.0763 166.116 88.3479 166.383 90.5622 166.772 91.2072 166.935 91.8123 167.161 92.394 167.421 93.6299 167.972 94.7622 168.671 95.9595 169.205 96.1912 169.309 96.4262 169.405 96.6644 169.494 99.3894 170.411 101.178 169.418 103.506 168.216 103.804 168.028 103.688 167.73 103.464 167.63 103.377 167.591 103.273 167.583 103.172 167.622 100.957 168.572 98.5204 168.681 96.1671 167.929 95.006 167.411 93.9169 166.726 92.7558 166.208 92.1741 165.948 91.573 165.732 90.9388 165.597 88.0322 164.749 85.0672 165.368 82.1203 164.948 81.2556 164.817 80.4894 164.588 79.8015 164.281 76.036 162.601 74.6662 158.555 73.0089 154.913 71.796 152.279 69.2904 150.863 67.2576 149.062 64.1607 146.636 60.8957 144.58 57.4101 143.025 55.6167 142.225 53.6289 141.017 51.611 140.117 50.2665 139.517 48.9103 139.054 47.586 138.941 45.384 138.856 43.2793 139.558 41.5038 140.858L41.5038 140.858C41.7963 140.54 42.1447 140.096 42.4336 139.78 42.782 139.336 43.1269 138.894 43.4743 138.452 44.5564 138.038 45.6214 137.318 46.4392 136.49 48.0063 134.651 48.6057 131.634 49.4829 129.336 50.565 126.236 52.0235 123.304 53.2311 120.259 53.5381 118.903 53.9146 117.728 54.5934 116.537 55.5645 115.029 56.9209 115.336 58.0993 115.711 57.6944 115.866 57.2785 115.851 56.9116 115.687 56.7885 115.633 56.6729 115.561 56.5614 115.473 56.4383 115.418 56.2019 115.611 56.4505 115.722 56.6864 115.92 56.8473 116.026 56.9824 116.087 57.2817 116.22 57.4477 116.121 57.9996 116.265 59.5375 116.503 60.9621 116.988 62.499 117.228 65.5019 117.523 68.4936 117.511 71.5257 117.073L72.3154 116.976C73.7681 116.73 75.4024 116.414 76.844 115.862 77.8117 115.697 78.6573 115.476 79.5579 115.131 80.8729 114.525 82.3145 113.973 83.7562 113.421 85.2474 113.296 86.9095 113.8 88.5243 114.52 90.2671 115.298 91.9534 116.325 93.317 117.089 96.0129 118.741 98.1298 121.028 100.7 122.623 101.238 122.924 101.787 123.198 102.347 123.447 104.527 124.42 106.875 125.013 109.364 125.293 111.828 125.796 114.528 126.103 117.159 126.232 120.328 126.152 122.947 124.635 125.91 124.014 128.998 123.45 131.959 124.175 134.772 122.891 135.909 122.354 137.155 121.567 138.153 120.666 139.983 119.242 142.518 118.582 144.912 118.903 148.096 119.131 150.728 117.915 153.886 117.532 156.377 117.3 158.826 118.841 161.277 117.695 161.682 117.539 161.628 117.096 161.348 116.971 161.256 116.93 161.138 116.923 161.002 116.975 158.592 117.692 155.894 116.04 153.292 116.52 151.713 116.713 150.271 117.265 148.693 117.455 146.81 117.66 144.859 117.687 143.017 117.462 140.941 117.432 138.959 118.19 137.31 119.544 134.012 122.254 131.257 122.07 127.366 122.424 124.319 122.558 121.591 124.328 118.615 124.641 114.958 124.801 111.276 124.354 107.761 123.533 106.433 123.285 105.179 122.867 103.979 122.332 98.9486 120.088 94.8179 115.788 89.7351 113.402 89.4793 113.262 89.2216 113.132 88.956 113.014 87.7274 112.466 86.3962 112.141 85.0309 111.9L85.0309 111.9C86.2763 111.112 87.3987 110.27 88.3285 109.191 89.4398 108.043 90.4098 106.537 90.8288 104.93 91.5503 103.312 92.5214 101.803 93.4366 100.42 95.2255 98.0839 97.1848 92.6863 100.121 92.8006 101.644 92.7335 103 93.0405 104.465 93.0978 105.933 93.1562 106.929 93.6009 108.216 93.7264 110.86 94.1589 112.83 91.753 115.116 90.9814 115.392 90.8757 115.334 90.5316 115.129 90.4401 115.069 90.4132 114.993 90.4082 114.909 90.4403 113.827 90.8548 112.692 91.3935 111.804 92.0419 110.974 92.566 110.018 93.0365 108.924 93.145 108.494 93.1036 107.942 93.0049 107.445 92.7831 104.676 92.2946 101.767 92.7884 98.9713 91.6918 98.8482 91.6369 98.6667 91.7064 98.4327 91.9001 96.1441 95.3564 93.3548 98.5923 91.1358 102.23 89.8868 104.362 89.4397 106.7 87.5691 108.552 86.1678 110.019 84.4495 111.192 82.6629 112.186 80.4316 112.835 78.16 113.911 75.9872 114.435 74.4906 115.11 72.8564 115.426 71.2221 115.742 69.5757 115.754 67.9818 115.642 66.2658 115.473 64.6193 115.485 63.152 115.427 61.6165 115.19 60.1345 114.827 58.7099 114.342 57.3388 113.731 52.5237 112.477 51.2543 119.676 49.6848 122.857L46.1293 130.827C44.5744 134.313 42.0274 134.67 38.7432 136.342 35.6392 137.941 32.271 140.47 28.5456 141.795L27.2149 142.099 27.2149 142.099C28.9343 140.924 30.7086 139.626 32.2879 138.09 33.9806 136.307 33.5831 134.188 34.1533 131.904 35.3754 127.821 35.369 123.489 34.0306 119.456 33.6992 118.863 33.4248 118.141 33.2165 117.603 33.0117 115.72 33.4856 113.989 34.5798 112.535 36.2457 110.144 37.7859 107.697 39.2018 105.191 41.8242 99.6436 44.1307 93.8047 46.686 88.0768 47.8532 85.4602 48.8963 82.7911 50.1306 80.355 51.6855 76.8694 55.066 75.9869 58.5539 76.1999 61.4897 76.3143 64.077 76.8723 66.6936 76.6966 66.7294 76.785 66.7782 76.8443 66.8385 76.8713 66.9013 76.8993 66.978 76.8959 67.0677 76.8635L67.3017 76.6698C68.2169 76.6295 69.1857 76.4626 70.1558 76.2991 74.6149 75.0034 79.1323 72.2404 83.9913 73.065 86.6346 73.4975 87.8242 74.1787 90.359 73.518 93.0729 72.7867 95.6759 72.3039 98.2803 71.8248 101.672 71.2482 105.909 70.4497 107.838 67.131 107.922 66.9428 107.809 66.7821 107.637 66.7057 107.466 66.6292 107.237 66.637 107.092 66.7983 104.537 71.1834 98.0462 70.6756 93.754 71.5971 90.9146 72.2724 88.7515 73.099 85.6815 72.6238 83.6463 72.1645 81.5002 71.9538 79.3809 72.3513 76.1138 72.9863 72.8867 74.5306 69.5062 75.4132L69.5062 75.4132C72.2907 73.518 74.1783 70.6295 74.7631 67.3074 74.9043 66.3227 74.9189 65.2844 74.9359 64.2472 74.8809 63.0274 75.3806 61.9074 76.3249 61.1334 77.9592 59.4747 79.9126 58.1061 81.9356 56.9189 82.1904 56.8213 82.1338 56.5848 81.9962 56.5234 81.9383 56.4976 81.8664 56.5031 81.7978 56.5594 78.6952 58.1621 74.2751 60.3695 74.4508 64.3289 74.501 66.8895 73.9443 69.4803 72.6964 71.6094 71.4888 73.3108 69.9631 74.7198 68.1766 75.7143 67.872 75.7289 67.6355 75.9215 67.3309 75.9362 62.7206 76.5653 58.2931 74.4426 53.7095 75.6799 49.9135 76.8257 49.2446 79.6616 47.8006 82.8986 45.3003 88.5034 42.678 94.051 40.2459 99.8339 39.1079 103.06 37.5384 106.241 35.7752 109.188 34.2776 111.208 33.0297 113.337 31.9745 115.703 30.834 118.927 32.4367 122.03 32.0422 125.588 31.7352 128.287 30.8726 130.889 30.3841 133.658 30.0211 136.483 29.2996 136.757 27.4717 138.182 26.5833 138.83 25.7656 139.658 25.0722 140.544 23.3942 142.631 21.3993 143.087 19.5165 144.635L18.6719 144.854C16.3297 145.752 14.2094 147.494 13.0286 149.804 12.9737 149.927 12.9177 150.053 12.8617 150.178 12.1426 150.454 11.3652 150.853 10.7838 151.488 7.02684 154.889 7.84864 161.078 3.01438 163.553-1.94433 165.968-10.084 164.129-15.3025 163.442-20.2278 163.421-21.5632 170.223-17.2497 172.147Z" fill="#313752" fill-rule="evenodd"/><path d="M200.779 56.2825C200.914 56.3428 201.053 56.3698 201.18 56.363 201.552 56.5289 201.858 56.5177 202.217 56.38 202.703 56.2959 203.186 56.2131 203.546 56.0754L204.087 55.8682C204.39 55.856 204.697 55.8424 205.001 55.8302 205.236 55.6341 205.416 55.567 205.527 55.3184 206.013 55.2343 206.428 54.9734 206.718 54.6542L206.774 54.5287C206.954 54.4616 207.01 54.3361 206.94 54.157 207.052 53.9059 207.162 53.6573 207.025 53.2978 207.009 52.8915 206.749 52.5787 206.399 52.4226 206.223 52.344 206.026 52.3053 205.823 52.3131 205.697 52.2571 205.574 52.2022 205.518 52.3277 205.424 52.242 205.321 52.179 205.215 52.1317 204.959 52.0175 204.682 51.9978 204.467 52.0061 203.677 52.1024 202.831 52.3243 201.987 52.5437 201.627 52.6814 201.212 52.9446 200.796 53.2079 200.616 53.275 200.379 53.4676 200.267 53.7186 199.978 54.0355 199.935 54.4645 199.949 54.7691 199.908 55.1992 200.045 55.5588 200.238 55.7952 200.393 56.038 200.583 56.1953 200.779 56.2825Z" fill="#B32B3F" fill-rule="evenodd"/><path d="M190.075 99.7994C190.265 99.8844 190.474 99.9285 190.708 99.917 192.077 100.528 193.377 100.96 194.748 101.572 195.371 101.849 196.091 101.572 196.369 100.949 196.647 100.326 196.371 99.607 195.804 99.2061L195.181 98.9283C195.418 97.3903 193.483 96.3765 192.237 95.8208 190.936 95.3907 189.509 94.9046 188.1 94.7218 186.617 94.3612 185.921 96.5891 187.415 97.2556L188.038 97.5334C188.121 98.016 188.26 98.3791 188.577 98.668 188.772 98.9055 189.02 99.0164 189.269 99.1273 189.508 99.4162 189.768 99.6626 190.075 99.7994Z" fill="#B32B3F" fill-rule="evenodd"/><path d="M120.223 50.371C120.332 50.4194 120.44 50.43 120.53 50.3977 120.662 50.5173 120.803 50.6152 120.948 50.6798 121.156 50.7724 121.371 50.796 121.58 50.7158 121.998 50.4537 122.343 50.0113 122.261 49.5263 122.165 48.7366 121.764 47.9616 121.197 47.5582L121.074 47.5033 120.685 47.0318 120.618 46.8514C120.425 46.6174 120.355 46.4358 120.107 46.3249 120.036 46.1458 119.787 46.0349 119.72 45.8545L119.457 45.439C119.179 44.7188 118.668 44.19 118.214 43.5415 118.134 43.48 118.05 43.428 117.963 43.3893 117.558 43.2084 117.064 43.2573 116.621 43.4271 116.15 43.8135 115.996 44.4911 116.203 45.0322 116.548 45.9328 117.018 46.8893 117.779 47.5267 117.846 47.7071 117.917 47.8862 118.109 48.1226 118.235 48.1786 118.235 48.1786 118.303 48.3566L118.621 48.6491 118.884 49.0646C119.148 49.4801 119.533 49.953 119.907 50.1199 120.003 50.2351 120.115 50.3225 120.223 50.371Z" fill="#B32B3F" fill-rule="evenodd"/><path d="M79.7295 83.2093C80.1784 83.4096 80.7448 83.3208 81.1258 82.8366 81.6522 82.3248 82.1091 81.6314 82.5674 80.9415 82.6234 80.816 82.6793 80.6905 82.7343 80.5674 82.7903 80.4419 82.8452 80.3188 82.8452 80.3188 82.9012 80.1932 82.9572 80.0677 83.0121 79.9446 83.235 79.445 83.4568 78.9477 83.6237 78.5736 83.8455 78.0763 83.7638 77.5913 83.4445 77.3013 83.2969 77.1196 83.1245 76.9935 82.9483 76.9149 82.6635 76.7879 82.3675 76.7832 82.1441 76.8687 81.603 77.076 81.1326 77.4623 80.8426 77.7815 80.7317 78.0302 80.5502 78.0997 80.4952 78.2228 80.4392 78.3483 80.2577 78.4178 80.0797 78.486 79.7873 78.8042 79.5655 79.3014 79.3986 79.6755 79.0098 80.5469 78.9247 81.4061 79.021 82.1958 79.0711 82.687 79.3625 83.0456 79.7295 83.2093Z" fill="#B32B3F" fill-rule="evenodd"/><path d="M136.886 34.1039C137.494 34.3752 138.253 34.2649 138.524 33.4886L139.69 30.8745C140.202 30.058 140.59 29.1866 140.856 28.2603L140.912 28.1348C141.313 27.567 140.912 26.7919 140.292 26.5152 139.669 26.2374 138.947 26.5117 138.724 27.0114L138.614 27.26C138.269 27.7023 138.047 28.1996 137.824 28.6992 137.531 29.0174 137.421 29.266 137.255 29.6377 137.088 30.0119 136.865 30.5115 136.643 31.0088 136.532 31.2574 136.365 31.6315 136.38 31.9361 136.392 32.2397 136.269 32.1848 136.158 32.4334 135.824 33.1817 136.28 33.8336 136.886 34.1039Z" fill="#B32B3F" fill-rule="evenodd"/><path d="M25.1519 183.879C25.8977 184.211 26.6752 183.812 26.953 183.189L28.0643 180.698 28.1752 180.449 28.2312 180.324C28.9916 179.618 29.3804 178.747 29.5205 177.764 29.5765 177.639 29.5083 177.461 29.5643 177.335 29.6752 177.087 29.6606 176.782 29.7166 176.657 29.8085 175.951 29.4164 175.403 28.8877 175.167 28.3591 174.931 27.6916 175.007 27.2255 175.545L26.8795 175.99C26.8246 176.113 26.6431 176.183 26.6431 176.183 26.4066 176.375 26.2957 176.624 26.2397 176.749L25.851 177.621C25.851 177.621 25.7961 177.744 25.7401 177.869L25.6841 177.995 25.5732 178.244C25.3952 178.312 25.1577 178.507 24.9236 178.701 24.9236 178.701 24.9236 178.701 24.8687 178.824 24.6323 179.016 24.4094 179.516 24.2985 179.765 24.3802 180.25 24.5179 180.609 24.8361 180.902L24.3364 182.022C24.0586 182.644 24.4036 183.545 25.1519 183.879Z" fill="#B32B3F" fill-rule="evenodd"/><path d="M62.0402 58.0112C62.383 58.1641 62.7957 58.1601 63.1205 57.9316 63.302 57.8621 63.536 57.6684 63.5909 57.5453 63.8274 57.3527 63.9393 57.1016 63.9247 56.797 64.0356 56.5484 64.0235 56.2449 63.8833 55.8843 63.9271 55.4552 63.7894 55.0957 63.7748 54.7911L63.7053 54.6095C63.7053 54.6095 63.6382 54.4291 63.5676 54.25 63.5676 54.25 63.5676 54.25 63.6236 54.1245L63.6785 54.0014C63.9709 53.6832 64.1927 53.186 64.2341 52.7559 64.401 52.3817 64.3888 52.0782 64.3742 51.7736 64.4862 51.5225 64.4716 51.2179 64.4594 50.9144 64.4594 50.9144 64.3788 50.563 64.3667 50.5576 64.3667 50.5576 64.3667 50.5576 64.3667 50.5576L64.3667 50.5576C64.2923 50.2379 64.0613 49.9901 63.7644 49.8577 63.5882 49.7791 63.3913 49.7404 63.187 49.7506 62.3974 49.8469 61.872 50.3564 61.7173 51.034L61.5942 50.9791C61.3018 51.2973 61.1909 51.5459 61.1495 51.976 61.2166 52.1565 61.2166 52.1565 61.2872 52.3356 61.2312 52.4611 61.2312 52.4611 61.1763 52.5842 61.1203 52.7097 61.1325 53.0132 61.202 53.1948 61.0351 53.5689 60.9948 53.9966 60.951 54.4257 60.6878 55.3531 60.9072 56.1976 61.3082 56.9727L61.4337 57.0287 61.3777 57.1542C61.4247 57.5485 61.6974 57.8583 62.0402 58.0112Z" fill="#B32B3F" fill-rule="evenodd"/><path d="M64.3046 51.592C64.3046 51.592 64.3741 51.7736 64.3046 51.592Z" fill="#B32B3F" fill-rule="evenodd"/><path d="M122.017 5.18574C122.125 5.23419 122.234 5.24481 122.322 5.20897 122.573 5.32096 122.876 5.30876 123.056 5.23816 123.418 5.10153 123.833 4.8383 124.122 4.52149L124.304 4.45196C124.483 4.38136 124.719 4.18873 124.899 4.12162L125.8 3.77667C126.034 3.58297 126.272 3.38793 126.257 3.08331L126.493 2.89068C126.853 2.75297 127.034 2.68344 127.268 2.48974 127.628 2.35203 127.864 2.1594 128.031 1.78526 128.321 1.46603 128.42 0.913872 128.157 0.498344 128.02 0.330426 127.863 0.210785 127.696 0.136486 127.394 0.00188494 127.07 0.0221004 126.8 0.191336 126.677 0.136419 126.622 0.259523 126.441 0.329047 126.441 0.329047 126.441 0.329047 126.385 0.454566L126.081 0.466759C125.845 0.659388 125.484 0.799514 125.25 0.993219 125.07 1.06033 124.888 1.12985 124.654 1.32356L124.295 1.46127 124.239 1.58679C123.821 1.84894 123.283 2.05484 122.809 2.44251 122.339 2.82885 121.868 3.21518 121.467 3.78303 121.412 3.90855 121.479 4.08898 121.424 4.21209 121.438 4.5167 121.451 4.82024 121.699 4.93115 121.797 5.04991 121.908 5.13728 122.017 5.18574Z" fill="#B32B3F" fill-rule="evenodd"/><path d="M151.314 74.4307C151.811 74.6526 152.24 74.6964 152.726 74.6122L153.03 74.6 153.155 74.656C153.638 74.5732 153.945 74.5597 154.428 74.4769L154.802 74.6438C155.232 74.6852 155.784 74.7839 156.27 74.6998 156.451 74.6327 156.81 74.4949 156.866 74.3694L157.24 74.5363C157.489 74.6472 157.793 74.635 157.974 74.5655 158.457 74.4827 158.749 74.1646 158.79 73.7344 158.834 73.3054 158.751 72.8227 158.433 72.5303L157.811 72.2525C156.883 71.9893 155.957 71.7237 155.042 71.764 154.129 71.8054 153.284 72.0249 152.439 72.2467L152.384 72.3698C152.022 72.5065 151.662 72.6442 151.358 72.6588 150.998 72.7965 150.831 73.1706 150.72 73.4193 150.679 73.8494 150.94 74.2638 151.314 74.4307Z" fill="#B32B3F" fill-rule="evenodd"/><path d="M139.981 75.9076C140.136 75.9765 140.307 76.0151 140.458 76.0072 140.832 76.1742 141.192 76.0364 141.428 75.8438 141.484 75.7183 141.662 75.6501 141.662 75.6501 141.718 75.5246 141.718 75.5246 141.773 75.4015L141.829 75.2759C141.996 74.9018 142.287 74.5861 142.648 74.4459 142.759 74.1973 142.995 74.0047 143.162 73.6305 143.328 73.2588 143.314 72.9517 143.232 72.4691 143.15 71.984 142.832 71.6916 142.458 71.5247 141.724 71.4955 141.06 71.6478 140.533 72.1597L140.255 72.7825C139.727 73.2933 139.449 73.916 139.296 74.5948 139.311 74.8994 139.323 75.203 139.586 75.6185 139.684 75.7373 139.825 75.8376 139.981 75.9076Z" fill="#B32B3F" fill-rule="evenodd"/><path d="M163.283 120.23C163.906 120.508 164.584 120.663 165.315 120.691L165.994 120.843 166.119 120.899C166.245 120.955 166.423 120.887 166.548 120.943L167.045 121.165C167.543 121.387 168.084 121.179 168.361 120.557 168.584 120.057 168.376 119.518 167.879 119.297L167.256 119.019C167.021 118.877 166.78 118.749 166.532 118.638 165.791 118.307 165.004 118.124 164.227 118.113L162.958 117.695 162.958 117.695C163.06 117.714 163.109 117.603 163.16 117.49 163.396 117.297 163.578 117.228 163.689 116.979 164.408 116.703 164.99 116.066 165.394 115.499 165.572 115.431 165.628 115.306 165.684 115.18 165.975 114.864 165.838 114.502 165.587 114.39L165.698 114.142C166.294 113.811 166.753 113.119 166.906 112.44 166.986 111.981 166.737 111.581 166.331 111.4 166.249 111.363 166.157 111.336 166.064 111.318 165.633 111.277 165.218 111.54 164.925 111.858 164.871 111.981 164.871 111.981 164.815 112.107L164.76 112.23 164.704 112.355 164.648 112.481C164.593 112.604 164.593 112.604 164.414 112.674 163.943 113.061 163.47 113.446 163.124 113.891 162.307 114.718 161.739 115.66 161.239 116.78 161.072 117.155 161.154 117.64 161.47 117.931 161.506 118.019 161.554 118.079 161.632 118.113 161.711 118.149 161.817 118.158 161.969 118.154 161.914 118.277 162.038 118.332 162.163 118.388L162.786 118.666 162.675 118.914C162.452 119.414 162.838 119.884 163.283 120.23Z" fill="#B32B3F" fill-rule="evenodd"/><path d="M145.772 117.645C146.271 117.868 146.687 117.605 146.909 117.108 147.366 116.415 147.754 115.543 148.213 114.853L148.906 113.967C148.962 113.842 149.073 113.593 149.128 113.47 149.295 113.096 149.462 112.722 149.683 112.225 149.85 111.85 149.698 111.186 149.201 110.964 148.703 110.743 148.107 111.073 147.886 111.57 147.719 111.944 147.496 112.444 147.33 112.816 147.219 113.064 147.107 113.315 146.871 113.508L146.76 113.757C146.704 113.882 146.526 113.95 146.415 114.199 146.303 114.45 146.192 114.699 145.901 115.014L145.719 115.084 145.663 115.209C145.111 115.111 144.833 115.733 145.33 115.955L145.456 116.011 145.289 116.385C145.067 116.883 145.274 117.424 145.772 117.645Z" fill="#B32B3F" fill-rule="evenodd"/><path d="M189.125 127.692C189.265 127.755 189.402 127.778 189.493 127.743 189.978 127.662 190.337 127.524 190.767 127.565L190.89 127.62 191.25 127.483C191.984 127.512 192.65 127.36 193.191 127.153L193.369 127.085C193.495 127.141 193.674 127.07 193.855 127.001 194.033 126.933 194.34 126.919 194.7 126.781 195.185 126.7 195.835 126.243 196.056 125.746 196.112 125.62 196.168 125.495 196.1 125.317 196.406 124.883 196.247 124.332 195.806 124.135 195.668 124.073 195.501 124.045 195.312 124.068 194.829 124.15 194.343 124.234 193.928 124.495 193.442 124.579 193.083 124.717 192.598 124.799 191.697 125.144 190.867 125.668 190.145 125.945 189.911 126.138 189.855 126.264 189.744 126.512 189.563 126.58 189.384 126.65 189.204 126.717 188.899 126.732 188.732 127.106 188.744 127.41 188.842 127.528 188.985 127.63 189.125 127.692Z" fill="#B32B3F" fill-rule="evenodd"/><path d="M104.009 114.207C104.475 114.415 105.068 114.344 105.378 113.811L105.489 113.562C105.6 113.313 105.656 113.188 105.767 112.939L106.212 111.942 107.045 110.074 107.934 108.083C107.99 107.957 108.1 107.708 108.337 107.516 108.504 107.142 108.796 106.824 108.962 106.452 109.074 106.201 109.114 105.773 108.796 105.481 108.729 105.3 108.599 105.17 108.428 105.093 108.256 105.017 108.043 104.994 107.802 105.037 107.08 105.311 106.372 105.893 105.916 106.584 105.457 107.276 105 107.969 104.667 108.715L104.556 108.964C104.501 109.089 104.446 109.212 104.446 109.212L104.223 109.712 103.945 110.335C103.89 110.458 103.834 110.583 103.723 110.832 103.182 111.039 102.972 111.84 103.539 112.243 103.483 112.369 103.483 112.369 103.428 112.492 103.317 112.741 103.443 112.797 103.387 112.922 103.2 113.51 103.541 113.998 104.009 114.207Z" fill="#B32B3F" fill-rule="evenodd"/><path d="M114.616 157.376C114.698 157.413 114.784 157.442 114.871 157.461 115.301 157.502 115.786 157.42 116.338 157.519 116.643 157.505 116.894 157.617 117.197 157.604 117.376 157.534 117.932 157.631 118.417 157.549L118.666 157.66 118.969 157.648C119.771 157.855 120.686 157.815 121.476 157.719 122.099 157.996 122.943 157.777 123.276 157.031 123.332 156.906 123.388 156.78 123.317 156.601 123.428 156.352 123.539 156.104 123.472 155.923 123.388 155.437 123.127 155.023 122.684 154.674 121.633 154.356 120.525 154.16 119.431 154.271 118.517 154.309 117.604 154.35 116.689 154.391 116.329 154.529 116.148 154.598 115.914 154.792L114.821 154.9C114.21 154.926 113.809 155.494 113.709 156.048 113.734 156.577 114.08 157.137 114.616 157.376Z" fill="#B32B3F" fill-rule="evenodd"/><path d="M73.2094 142.227C73.598 142.401 74.0833 142.351 74.3974 142.094L74.8129 141.831 75.2284 141.568 76.129 141.223 76.4214 140.905 76.6019 140.838C76.9065 140.823 77.266 140.685 77.5024 140.493 78.6516 140.259 79.6082 139.788 80.4942 139.139 80.6746 139.072 80.7306 138.946 80.9086 138.878 81.368 138.186 81.3266 137.273 80.6343 136.814 80.5024 136.72 80.3675 136.639 80.2347 136.58 79.8051 136.389 79.3746 136.393 78.9183 136.644 78.6843 136.838 78.5028 136.907 78.3237 136.978L77.9068 137.238C77.5462 137.378 77.0062 137.583 76.4676 137.791 75.8716 138.121 75.1515 138.399 74.6226 138.91 74.1522 139.296 73.6818 139.683 73.2102 140.071 72.6143 140.402 72.406 141.206 72.7374 141.8 72.848 141.999 73.0163 142.141 73.2094 142.227Z" fill="#B32B3F" fill-rule="evenodd"/><path d="M74.3974 142.094 74.3974 142.094C74.3974 142.094 74.2195 142.163 74.3974 142.094Z" fill="#B32B3F" fill-rule="evenodd"/><path d="M78.7392 136.715 78.9183 136.644 78.9183 136.644Z" fill="#B32B3F" fill-rule="evenodd"/><path d="M105.412 196.208C105.866 196.41 106.415 196.294 106.735 195.785 107.024 195.468 107.316 195.15 107.483 194.776 107.705 194.279 107.872 193.905 108.094 193.407 108.329 193.211 108.495 192.839 108.483 192.534 108.594 192.285 108.58 191.98 108.568 191.677 108.72 190.998 108.264 190.346 107.641 190.068 107.393 189.957 107.088 189.972 106.852 190.165 106.603 190.054 106.298 190.068 106.062 190.261 105.106 190.729 104.539 191.671 104.342 192.779 104.258 193.635 104.424 194.607 104.767 195.506 104.899 195.846 105.137 196.085 105.412 196.208Z" fill="#B32B3F" fill-rule="evenodd"/><path d="M187.504 44.856C187.666 44.9281 187.846 44.971 188.042 44.9802 188.888 44.7583 189.551 44.6084 190.34 44.5121 190.589 44.623 190.896 44.6095 191.2 44.5973 191.504 44.5827 191.809 44.5681 192.168 44.4303 192.472 44.4182 192.779 44.4046 193.083 44.39 193.513 44.4338 193.803 44.1146 194.095 43.7964 194.647 43.8952 195.299 43.4393 195.328 42.7056 195.425 42.1524 195.094 41.5565 194.595 41.3336L194.223 41.1677C192.562 40.8753 190.802 41.1351 189.305 41.8104 189.001 41.825 188.767 42.0187 188.656 42.2673L187.866 42.3636C187.201 42.5125 186.618 43.1498 186.645 43.758 186.758 44.2452 187.06 44.6578 187.504 44.856Z" fill="#B32B3F" fill-rule="evenodd"/></g></svg>