<svg width="960" height="540" xmlns="http://www.w3.org/2000/svg" xmlns:xlink="http://www.w3.org/1999/xlink" overflow="hidden"><defs><clipPath id="clip0"><rect x="0" y="0" width="960" height="540"/></clipPath></defs><g clip-path="url(#clip0)"><rect x="0" y="0" width="960" height="540" fill="#F0E2E2"/><path d="M279.752 0.00485839C262.063 0.00485839 244.33 5.01386 228.848 15.1776 204.928 31.5601 189.363 58.5776 164.001 72.0888 136.904 86.4599 104.05 82.4372 73.4993 84.4486 42.9489 86.4599 7.78497 99.6796 0.0048717 129L702.966 129C703.541 128.713 703.828 128.135 704.403 127.849 707 106.005 688.551 85.5951 667.227 78.6962 657.596 75.5431 647.546 74.4305 637.374 74.4305 625.321 74.4305 613.103 75.9901 601.226 77.5496 589.972 79.0072 578.494 80.3141 567.173 80.3141 556.167 80.3141 545.304 79.08 534.932 75.5383 515.274 68.5325 497.527 52.7961 476.632 52.7961 476.086 52.7961 475.536 52.8059 474.985 52.8301 452.215 53.6901 433.483 73.5269 410.713 73.8135 410.582 73.8135 410.455 73.8135 410.323 73.8135 379.724 73.8135 361.904 40.1012 338.368 20.6384 321.381 6.95722 300.593 0.00485839 279.752 0.00485839Z" fill="#7093BA" fill-rule="evenodd" transform="matrix(-1 0 0 1 860 425)"/><path d="M93.36 0C91.2505 0 89.1774 0.394668 87.2768 1.25383 83.9961 2.66249 80.8758 4.38386 78.0643 6.57882 74.4719 9.24131 72.4442 13.6252 68.8518 16.4455 67.2901 17.6963 65.5741 18.7923 63.8551 19.8883 62.1391 20.9873 60.4231 22.5508 58.7041 23.6498 56.8307 24.7457 54.7999 25.529 52.6148 26.1544 50.7415 26.9376 49.0255 27.8757 47.1521 28.9747 43.248 31.0088 39.813 33.6713 36.0662 36.0211 32.0077 38.5257 27.7919 40.5628 23.2643 42.1293 19.0485 43.6959 15.1444 45.8878 10.9285 47.2965 9.36687 47.9249 7.65087 48.5503 6.24659 49.4914 4.8393 50.7422 3.43502 51.9961 2.34247 53.4047 2.21536 53.5322 2.29405 53.763 2.41208 53.763 2.43932 53.763 2.46958 53.7478 2.49985 53.7174L2.6542 53.5626 2.6542 53.5626C2.34247 54.0332 1.87337 54.6586 1.56165 55.2839 1.09255 56.6956 0.780824 57.9464 0.780824 59.3581 0.4691 61.3922 0.157375 63.2714 0 65.3085 0 67.1878 0 69.067 0.4691 70.7914 1.09255 73.1381 1.87337 75.3331 2.96592 77.3672 3.5924 79.4043 4.05847 81.5962 4.05847 83.6333 4.52757 85.5125 5.15102 87.3917 5.93184 89.271 7.49349 93.6548 5.93184 98.5123 6.87004 103.054 7.33914 105.246 7.96259 107.283 8.58604 109.317 9.68162 111.825 10.4594 114.172 10.9285 116.834 11.2402 121.691 11.3976 126.546 11.0859 131.4 11.0859 136.255 10.9285 140.954 10.4594 145.654 9.83597 155.675 9.83597 165.7 10.3051 175.722 10.4594 180.734 9.83597 185.746 8.43169 190.446 7.18177 195.142 7.02742 200 6.24659 204.854 5.30839 209.238 5.15102 213.78 5.46577 218.167 5.7775 220.516 6.55832 222.08 9.05514 222.396 10.408 222.499 11.7789 222.532 13.156 222.532 15.907 222.532 18.6823 222.396 21.391 222.396 23.4187 222.396 25.4494 222.396 27.4802 222.08 29.977 221.767 32.3195 220.984 34.9737 220.671 37.1588 220.516 39.3439 220.359 41.529 219.888 43.8714 219.263 46.3713 218.637 48.7107 217.854 53.084 216.287 57.7689 215.034 62.4508 214.092 67.2901 213.312 72.1324 211.588 76.9717 211.588 81.4993 211.275 86.0269 210.492 90.3971 209.396 110.226 205.792 130.21 203.288 150.351 201.879 155.348 201.879 160.187 202.192 165.026 202.975 170.023 203.443 175.177 203.913 180.328 204.384 190.633 205.325 200.938 206.263 211.086 207.829 221.391 209.238 231.85 210.65 242.155 212.058 251.834 213.625 261.67 214.721 271.506 215.346 281.499 215.659 291.335 217.071 301.326 218.322 306.48 218.95 311.476 219.733 316.627 220.829 321.155 222.08 325.682 222.863 330.367 223.334 335.049 223.492 339.734 224.117 344.419 224.275 348.741 224.275 353.332 225.073 358.065 225.073 358.459 225.073 358.855 225.07 359.252 225.058 360.708 225.058 362.166 224.988 363.622 224.988 364.351 224.988 365.078 225.004 365.807 225.058 368.307 225.371 370.961 225.684 373.458 226.309 376.917 226.789 380.467 226.992 384.038 226.992 385.143 226.992 386.248 226.974 387.352 226.937 390.297 226.937 393.339 228 396.247 228 397.04 228 397.824 227.921 398.596 227.721 398.75 227.721 398.75 227.563 398.75 227.563 399.219 225.213 398.75 223.021 399.219 220.671 399.688 218.479 399.843 216.287 399.843 214.092 400 209.083 399.688 204.226 399.843 199.371L399.843 192.167C399.843 190.758 399.377 189.35 398.75 188.251 396.722 185.904 393.911 184.025 390.787 183.396 389.695 182.771 388.445 182.3 387.198 181.83 384.856 181.517 384.075 179.483 382.201 178.229 380.952 177.759 379.705 177.288 378.455 176.975 376.27 176.037 374.081 174.783 372.054 173.375 363.934 169.301 355.659 165.229 348.635 159.279 345.512 156.304 342.7 153.171 340.046 149.88 338.642 148.316 336.923 146.905 335.518 145.338 334.114 143.617 333.176 141.58 331.929 139.858 329.587 136.413 326.932 133.28 323.655 130.617 320.531 128.738 317.251 127.171 313.661 126.075 311.631 125.292 309.757 124.038 308.353 122.63 307.26 121.063 306.011 119.812 304.606 118.713 302.887 117.775 301.171 117.15 299.298 116.834 296.798 116.366 294.301 115.583 292.116 114.329 288.524 112.45 285.246 109.946 281.499 108.379 277.753 106.812 274.16 107.596 270.571 106.342 266.198 104.775 263.543 101.017 260.42 97.8839 257.454 94.7508 254.019 91.4629 250.741 88.175 247.93 85.1998 244.964 82.3795 241.844 79.8748 238.563 77.525 234.816 76.5839 231.227 74.5499 229.665 73.6087 228.104 72.3549 226.699 71.1041 224.823 69.8503 222.95 68.9091 221.234 67.5005 218.422 64.6831 214.987 62.646 211.398 61.2374 209.367 60.6089 207.493 60.1414 205.466 59.6708 202.966 59.3581 200.623 58.7297 198.284 57.9464 196.722 57.1632 195.003 56.3799 193.287 55.9124 192.037 55.5997 190.945 55.2839 189.852 54.8164 188.602 54.188 187.352 53.4047 186.106 52.7793 182.201 51.2128 177.986 49.6463 173.927 48.5503 170.18 46.8289 166.588 44.9497 163.153 42.7547 158.937 40.4049 155.348 36.4917 151.755 33.2007 148.32 30.0707 144.731 26.7798 141.296 23.334 139.58 21.7705 138.018 20.204 136.457 18.4796 135.207 17.0709 134.114 15.975 132.71 14.7211 131.303 13.9379 129.587 13.3125 127.868 12.9998 125.371 12.2165 122.874 11.2754 120.374 10.0215 118.658 9.08345 116.939 8.30018 114.911 7.67478 112.723 7.04635 110.226 6.89152 108.041 5.95039 105.856 5.01229 103.668 4.07116 101.64 2.81733 100.39 1.87923 98.9861 1.09596 97.4245 0.470566 96.0807 0.163939 94.7128 0 93.36 0Z" fill="#F89097" fill-rule="evenodd" transform="matrix(-1 0 0 1 1020 358)"/><path d="M238.449 6.5633C238.467 6.5633 238.485 6.56633 238.503 6.56633L238.503 6.56633C238.536 6.56633 238.57 6.5633 238.603 6.5633ZM92.8765 0.00302875C91.3156 0.00302875 89.7516 0.157495 88.3422 0.472485 86.9359 0.938912 85.3719 1.25087 83.9656 1.25087L83.6534 1.25087C82.7138 1.25087 81.9318 1.25087 80.9953 1.09641 79.7435 1.09641 78.6493 0.938912 77.3976 0.938912 76.461 0.938912 75.679 1.09641 74.7395 1.09641 74.2727 1.09641 73.6453 1.40837 73.0209 1.40837 72.2389 1.56586 71.2994 1.72033 70.5174 1.87782L66.1407 1.87782 64.107 2.03229 60.3547 2.03229C60.2123 2.06258 60.0728 2.07469 59.9395 2.07469 59.3454 2.07469 58.8332 1.82028 58.324 1.56586 58.2118 1.4538 58.0239 1.34476 57.8118 1.34476 57.7239 1.34476 57.6329 1.36294 57.542 1.40837 57.0722 1.40837 56.6024 1.72033 56.4479 2.03229 55.6659 2.9712 57.0722 3.75262 57.8542 4.06458 58.7908 4.53404 59.8849 4.846 60.9821 4.846L62.3885 4.846 64.889 4.6885C66.1407 4.6885 67.5471 4.53404 69.111 4.53404 70.5174 4.53404 71.9268 4.37654 73.3331 4.06458 74.7395 3.90709 75.9912 3.75262 77.243 3.75262L77.7098 3.75262C78.3372 3.75262 78.9615 3.75262 79.7435 3.90709L84.2778 3.90709C85.2173 3.90709 86.1539 3.90709 87.0935 3.75262 87.5602 3.75262 88.03 3.44066 88.3422 3.28316 89.4394 2.9712 90.5336 2.81371 91.6277 2.65924 93.3463 2.65924 95.0678 2.65924 96.944 2.50175L111.329 2.50175C113.205 2.50175 115.081 2.65924 116.957 2.81371L117.427 2.81371C118.676 2.9712 119.927 3.28316 121.022 3.90709 122.116 4.6885 123.21 5.15796 124.619 5.31546 125.401 5.31546 126.183 5.46992 127.12 5.62742 129.154 5.93938 131.03 6.25134 133.063 6.25134L134.312 6.25134C135.094 6.25134 135.876 6.09687 136.816 5.93938 137.598 5.78491 138.38 5.62742 139.159 5.62742 140.098 5.62742 140.88 5.46992 141.662 5.31546 142.444 5.15796 143.069 5.15796 143.693 5.00349L145.572 5.00349C146.509 5.00349 147.448 4.846 148.542 4.6885 150.106 4.53404 151.513 4.37654 153.077 4.37654L157.923 4.37654C159.017 4.53404 159.957 4.6885 161.051 5.00349 161.675 5.15796 162.3 5.31546 162.927 5.31546 163.551 5.46992 164.176 5.46992 164.646 5.62742L165.115 5.62742C165.74 5.62742 166.367 5.78491 166.834 5.78491L167.616 5.93938C168.556 6.09687 169.492 6.25134 170.432 6.25134L181.688 6.25134C182.158 6.25134 182.47 6.40883 182.783 6.7208 183.41 7.19025 184.192 7.50221 184.816 7.65971L185.286 7.65971C185.911 7.65971 186.38 7.81417 186.85 7.97167L187.475 8.28363C187.944 8.59559 188.569 8.75309 189.038 8.90755 189.975 9.21951 190.915 9.21951 191.854 9.21951 193.573 9.21951 195.291 9.06505 197.013 8.59559L198.265 8.28363C199.201 8.12614 199.983 7.97167 200.923 7.81417 203.111 7.19025 205.457 6.87829 207.8 6.7208L211.555 6.7208C211.789 6.79954 212.061 6.83892 212.337 6.83892 212.61 6.83892 212.883 6.79954 213.116 6.7208L214.995 6.5633C215.932 6.40883 216.714 6.25134 217.65 6.09687L222.5 6.09687C223.436 6.09687 224.531 5.93938 225.47 5.62742 225.94 5.46992 226.407 5.31546 226.876 5.31546 227.971 5.00349 233.599 5.62742 232.975 3.1287 232.838 2.31094 231.811 2.05652 230.592 2.05652 229.016 2.05652 227.113 2.48357 226.407 2.65924 225.94 2.65924 225.313 2.9712 224.846 2.9712 223.906 3.28316 222.812 3.44066 221.872 3.59513L217.184 3.59513C216.402 3.59513 215.462 3.75262 214.68 3.90709 213.898 4.06458 213.274 4.06458 212.649 4.22208L207.8 4.22208C206.081 4.22208 204.517 4.37654 202.953 4.6885L199.513 5.46992C197.483 5.78491 195.606 6.25134 193.73 6.5633 193.103 6.7208 192.321 6.7208 191.697 6.7208 190.915 6.7208 189.975 6.5633 189.196 6.25134 189.038 6.25134 188.726 6.09687 188.414 5.93938 187.944 5.78491 187.632 5.62742 187.162 5.46992 186.693 5.31546 186.38 5.15796 185.911 5.15796L185.129 5.00349C184.816 4.846 184.504 4.6885 184.192 4.53404 183.41 3.90709 182.628 3.59513 181.688 3.59513L170.432 3.59513C169.492 3.59513 168.556 3.44066 167.616 3.28316 166.834 3.1287 166.055 3.1287 165.273 2.9712 164.491 2.9712 163.709 2.81371 163.082 2.65924L161.833 2.50175C160.739 2.18979 159.642 1.87782 158.547 1.87782 157.141 1.72033 155.735 1.72033 154.325 1.72033 152.449 1.72033 150.573 1.72033 148.697 2.03229 147.291 2.18979 145.727 2.34728 144.163 2.34728 143.226 2.34728 142.444 2.50175 141.505 2.65924 140.88 2.65924 140.256 2.9712 139.628 2.9712 138.064 3.1287 136.658 3.28316 135.094 3.44066 134.47 3.59513 133.688 3.59513 133.063 3.59513 131.966 3.59513 131.03 3.59513 130.09 3.44066 129.466 3.44066 128.684 3.28316 128.059 3.1287 127.432 2.9712 126.338 2.81371 125.244 2.81371 124.619 2.65924 123.992 2.65924 123.525 2.50175 123.21 2.34728 122.898 2.18979 122.743 2.03229L122.116 1.56586C120.867 0.938912 119.615 0.626951 118.363 0.472485L117.739 0.31499C116.175 0.157495 114.611 0.00302875 113.047 0.00302875ZM1.40938 0.31499C1.09416 0.31499 0.781977 0.472485 0.315216 0.472485 0 0.472485 0.315216 2.50175 0.469793 2.50175 0.818348 2.93486 1.40635 3.03178 1.99435 3.03178 2.46717 3.03178 2.93696 2.9712 3.28552 2.9712L3.5977 2.9712C4.53426 2.9712 5.47384 3.1287 6.4104 3.28316L8.13196 3.59513C9.85049 4.06458 11.4144 4.22208 13.136 4.22208L15.9487 4.22208C17.3581 4.22208 18.919 4.37654 20.483 4.6885 22.5167 5.15796 24.5505 5.46992 26.5812 5.46992L30.0213 5.46992C30.6487 5.62742 31.1154 5.78491 31.5852 5.93938 32.2096 6.09687 32.9916 6.25134 33.619 6.40883 34.5555 6.5633 35.3375 6.7208 36.1195 7.03276 37.0591 7.50221 37.9956 7.81417 39.0898 8.12614 39.9748 8.2382 40.8598 8.34723 41.7449 8.34723 42.1116 8.34723 42.4783 8.32906 42.8421 8.28363L45.188 8.28363C45.8154 8.44113 46.4398 8.44113 47.0641 8.59559L48.4735 8.90755C48.9403 8.90755 49.4101 9.06505 50.0344 9.06505 50.6618 9.06505 51.2862 9.06505 51.9106 9.21951 53.4442 9.47696 55.0809 9.73137 56.6509 9.73137 57.0025 9.73137 57.3541 9.71926 57.6966 9.68897L74.5849 9.68897C75.3669 9.68897 76.1488 9.5345 76.9308 9.37701 79.1009 9.12259 81.3741 8.86818 83.5837 8.86818 84.0777 8.86818 84.5718 8.88029 85.0597 8.90755L93.1917 8.90755C94.598 8.90755 96.0044 9.06505 97.4138 9.06505 98.9747 9.06505 100.539 9.06505 102.103 8.75309 104.136 8.28363 106.167 8.12614 108.201 7.97167 109.922 7.97167 111.641 8.28363 113.359 8.75309 113.829 8.90755 114.299 9.06505 114.769 9.21951L115.551 9.68897C116.175 9.84647 116.645 10.0009 117.269 10.0009L118.051 10.1584C119.615 10.6279 121.179 10.7823 122.743 10.9398L124.15 11.0973C125.244 11.2518 126.183 11.2518 127.277 11.4093 128.372 11.4093 129.623 11.5638 130.872 11.7213 132.124 11.8757 133.376 11.8757 134.624 11.8757L140.88 11.8757C142.132 11.8757 143.226 11.8757 144.475 11.7213 145.572 11.5638 146.666 11.2518 147.603 10.9398 148.385 10.7823 149.167 10.4704 149.949 10.3159 151.094 10.0857 152.322 9.94036 153.51 9.94036 153.946 9.94036 154.377 9.96156 154.795 10.0009 157.765 10.0009 160.581 10.3159 163.397 10.9398 164.333 11.0973 165.273 11.2518 166.21 11.2518L166.679 11.2518C167.304 11.2518 168.086 11.4093 168.868 11.5638L169.492 11.7213C170.432 11.8757 171.371 12.0332 172.308 12.0332L176.218 12.0332C177.154 12.0332 178.094 12.1907 179.188 12.3452 179.97 12.5027 180.907 12.5027 181.688 12.5027L184.659 12.5027C186.068 12.5027 187.475 12.6571 188.881 12.8146 189.911 13.0448 190.942 13.1872 191.972 13.1872 192.348 13.1872 192.727 13.169 193.103 13.1266L198.731 13.1266C199.053 13.172 199.359 13.1932 199.659 13.1932 200.377 13.1932 201.041 13.0812 201.705 12.9721L202.641 12.8146C203.423 12.6571 204.205 12.5027 204.987 12.3452 205.924 12.3452 207.021 12.1907 207.957 11.8757 208.897 11.4093 209.834 11.2518 210.773 11.2518L211.24 11.2518C212.022 11.2518 212.962 11.0973 213.898 10.9398L214.838 10.6279C215.62 10.4704 216.402 10.3159 217.026 10.1584 217.808 10.1584 218.59 10.0009 219.372 10.0009L221.406 10.0009C223.436 10.0009 225.313 10.0009 227.189 10.1584L228.753 10.1584C230.004 10.1584 231.411 10.0009 232.662 9.68897 233.444 9.37701 234.226 9.37701 235.008 9.37701L236.727 9.37701C236.791 9.37701 237.039 9.38307 237.397 9.38307 238.815 9.38307 241.919 9.28312 241.419 8.28363 240.804 7.2054 239.731 6.5845 238.503 6.56633L238.503 6.56633C237.433 6.57542 236.221 6.7208 235.008 6.7208 234.069 6.7208 232.975 6.87829 231.881 7.19025 230.941 7.50221 229.847 7.65971 228.753 7.65971L226.722 7.65971C224.846 7.50221 222.967 7.50221 221.248 7.50221L219.842 7.50221C217.65 7.50221 215.62 7.81417 213.431 8.44113 212.649 8.59559 211.867 8.59559 210.928 8.75309 209.679 8.75309 208.582 8.90755 207.333 9.21951 206.239 9.68897 204.987 9.84647 203.581 10.0009 202.953 10.1584 202.171 10.3159 201.389 10.3159 200.453 10.4704 199.513 10.6279 198.419 10.6279L194.043 10.6279C192.166 10.6279 190.133 10.4704 188.256 10.1584 187.317 10.0009 186.538 10.0009 185.756 10.0009L181.534 10.0009C181.064 10.0009 180.44 9.84647 179.97 9.68897L178.564 9.37701 173.09 9.37701C172.753 9.41941 172.42 9.43758 172.08 9.43758 171.156 9.43758 170.21 9.2922 169.18 9.06505 168.556 8.75309 167.774 8.75309 166.992 8.75309L166.522 8.75309C165.273 8.75309 164.021 8.59559 162.927 8.28363 160.739 7.81417 158.547 7.50221 156.359 7.34472L155.265 7.34472C153.546 7.34472 151.825 7.50221 150.106 7.81417 149.167 7.97167 148.23 8.28363 147.291 8.59559 146.196 8.90755 145.102 9.06505 144.008 9.21951 143.069 9.37701 141.974 9.37701 141.035 9.37701L135.252 9.37701C133.688 9.37701 132.124 9.37701 130.718 9.21951 129.466 8.90755 128.372 8.90755 127.12 8.90755 125.868 8.75309 125.244 8.75309 124.307 8.59559 121.961 8.28363 120.085 8.12614 117.897 7.65971 117.269 7.50221 116.487 7.19025 115.705 7.03276 114.923 6.5633 114.141 6.40883 113.359 6.25134 111.817 5.86669 110.274 5.58804 108.728 5.58804 108.398 5.58804 108.064 5.60016 107.731 5.62742 106.012 5.62742 104.136 5.78491 102.415 6.25134 100.851 6.5633 99.1323 6.7208 97.5683 6.7208L96.4742 6.7208 90.8458 6.5633C88.6574 6.5633 86.4661 6.40883 84.2778 6.25134L83.3412 6.25134C81.4651 6.25134 79.5889 6.40883 77.7098 6.7208 76.461 7.03276 75.2092 7.03276 74.1151 7.03276L69.5808 7.03276C67.2349 7.03276 64.889 7.03276 62.543 7.19025L57.8542 7.19025C55.1961 7.19025 52.538 6.87829 50.0344 6.40883 48.6281 6.25134 47.3763 5.93938 45.97 5.78491 45.3456 5.78491 44.7879 5.71525 44.209 5.71525 43.9211 5.71525 43.624 5.73039 43.3118 5.78491L42.6875 5.78491C41.4357 5.78491 40.3415 5.62742 39.2474 5.46992 38.623 5.31546 38.1532 5.00349 37.5258 4.6885L36.5893 4.37654C35.8073 4.06458 35.1829 3.90709 34.4009 3.90709L33.9311 3.90709C33.3068 3.75262 32.837 3.59513 32.3672 3.44066 31.8974 3.28316 31.273 3.1287 30.6487 2.9712 29.8667 2.9712 29.2393 2.81371 28.4573 2.81371L27.051 2.81371C24.8626 2.81371 22.8289 2.65924 20.7982 2.18979 19.2342 1.72033 17.6703 1.56586 16.1063 1.56586L13.4482 1.56586C11.5721 1.56586 9.69591 1.25087 7.97435 0.938912L7.66217 0.938912C5.94363 0.626951 4.22207 0.31499 2.50354 0.31499ZM400.591 120.311 400.121 120.469 397.932 121.092C396.526 121.562 395.12 122.031 393.71 122.189 392.462 122.501 391.052 122.501 389.804 122.501 388.709 122.501 387.458 122.501 386.363 122.343L385.736 122.343C384.642 122.031 383.548 122.031 382.454 122.031 382.281 122.001 382.105 121.989 381.923 121.989 381.12 121.989 380.25 122.243 379.483 122.501 378.856 122.813 378.232 122.967 377.607 123.437L376.825 123.749C375.886 124.218 374.949 124.376 374.009 124.53 372.761 124.688 371.664 125 370.415 125.623 369.321 125.938 368.226 126.25 366.975 126.405L363.222 126.405C362.595 126.405 361.813 126.405 361.189 126.562L359.47 126.874 320.535 126.874C318.189 126.874 315.846 127.032 313.5 127.186L312.873 127.186C311.624 127.344 310.215 127.344 309.278 127.344L305.056 127.344C303.65 127.344 302.24 127.186 300.992 127.032 299.897 127.032 298.958 126.874 297.864 126.874L290.514 126.874C289.419 126.874 288.325 126.72 287.389 126.562 286.607 126.405 285.979 126.25 285.355 126.093 285.043 126.093 284.573 126.093 284.261 125.938 283.167 125.781 282.227 125.311 281.445 124.688 280.509 124.218 279.569 123.749 278.632 123.437 276.287 122.813 273.941 122.343 271.44 122.031 271.082 122.031 269.515 121.771 268.13 121.771 266.485 121.771 265.09 122.137 266.278 123.749 267.373 125.311 273.316 124.688 275.192 125.157 276.287 125.311 277.223 125.623 278.32 125.938 278.945 126.25 279.569 126.562 280.196 126.874 280.509 127.032 280.821 127.344 281.133 127.498 282.073 127.968 283.167 128.28 284.415 128.437 285.355 128.595 286.295 128.749 287.231 128.907 288.483 129.219 289.732 129.376 290.983 129.376L297.864 129.376C298.803 129.376 299.582 129.531 300.522 129.688L301.461 129.842C303.022 130 304.432 130 305.838 130L309.59 130C311.466 130 313.343 129.842 315.064 129.688L316.94 129.531C318.189 129.531 319.286 129.376 320.535 129.376L348.368 129.376C351.026 129.376 353.684 129.376 356.497 129.531L358.061 129.531C358.688 129.531 359.47 129.376 360.095 129.376 360.564 129.376 361.031 129.219 361.501 129.219 361.971 129.061 362.91 128.907 363.689 128.907L367.599 128.907C368.851 128.907 369.945 128.595 371.197 128.125 372.133 127.656 373.227 127.344 374.322 127.186 375.419 127.032 376.513 126.874 377.45 126.405L378.856 125.781C379.171 125.469 379.638 125.311 380.108 125 380.89 124.688 381.672 124.53 382.454 124.53L383.078 124.53C383.86 124.53 384.642 124.845 385.424 124.845L386.676 125C387.612 125.157 388.394 125.157 389.334 125.157L390.586 125.157C392.928 125.157 395.274 124.688 397.62 123.906 398.714 123.594 399.966 123.282 401.06 122.967 401.218 122.967 401.373 122.813 401.53 122.655 401.685 122.501 401.842 122.343 401.842 122.189 401.997 121.874 401.997 121.562 401.842 121.25L401.997 121.25C401.997 121.092 401.842 120.78 401.685 120.626 401.53 120.311 401.218 120.311 400.903 120.311Z" fill="#B32B3F" fill-rule="evenodd" transform="matrix(-1 0 0 1 1021 428)"/><path d="M247.859 0.00288554C247.709 0.00288554 247.556 0.00865662 247.403 0.0201988 245.767 0.320295 244.278 0.914716 242.937 1.65919 241.15 2.25361 239.661 3.29529 238.473 4.63706 237.728 5.52869 236.984 6.27316 236.089 6.86758 234.9 7.46489 233.709 7.91215 232.517 8.20936 230.433 8.65662 228.647 9.6983 226.564 10.1427 222.097 11.4844 218.078 13.865 213.614 15.504 211.677 16.2485 209.741 16.9901 207.658 17.5874 205.722 18.1818 203.191 18.479 201.108 19.0763 199.472 19.8208 197.833 20.7124 196.494 21.7541 194.558 22.6486 192.624 23.3931 190.538 23.9875 186.966 25.4764 184.435 27.857 181.46 29.9432 177.888 32.4739 173.868 34.4072 169.699 35.5989 167.54 36.0462 165.344 36.0462 163.148 36.0462 160.953 36.0462 158.757 36.0462 156.598 36.4905 154.218 36.9378 151.837 37.5351 149.454 37.9795 147.073 38.4267 144.542 38.7239 142.159 39.1712 137.398 40.2129 132.484 41.4046 127.72 42.5963 122.809 43.638 118.195 43.9352 113.581 45.2741 109.561 46.613 105.839 48.5492 102.416 50.9327 100.777 51.9743 99.2886 53.3132 97.7996 54.6521 96.0135 56.1411 94.0802 57.48 92.294 58.8217 90.655 60.3107 88.8689 61.4995 86.9327 62.394 84.9994 62.8413 83.0632 63.4357 81.277 64.3273 76.9602 66.7108 72.1962 67.9025 67.285 68.0497 65.0516 68.1997 62.9683 68.4969 60.8849 68.7942 58.5014 69.6887 55.9708 70.133 53.4402 70.4331 51.6541 70.4331 49.8679 70.8775 48.2318 71.772 46.1456 72.8137 44.3594 74.1526 42.2761 74.8971 38.1093 76.6832 33.6425 77.4277 29.4758 79.2138 28.7313 79.5111 27.9869 79.9583 27.2424 80.4056 27.2424 80.4056 27.1097 80.3392 26.9769 80.3392 26.9105 80.3392 26.8442 80.3565 26.7951 80.4056 26.3479 81.15 25.4562 81 24.7118 81.15 23.9673 81.2972 22.7756 81.5973 21.8839 81.8945 20.9894 82.0417 20.245 82.3418 19.3533 82.4889L16.6727 82.4889C15.3338 82.4889 14.142 83.0834 13.2475 83.9779 12.5059 84.5723 11.9086 85.3168 11.3142 86.0612L11.017 86.3584C9.97531 86.5085 8.93075 86.5085 7.7419 86.5085 5.80571 86.6585 3.86951 87.5502 2.23341 88.8891 1.19173 89.6335 0 90.8253 0.297211 92.1641 0.744469 93.5059 1.63899 94.6948 2.97788 95.2921 6.25297 97.2254 9.67522 98.7143 13.3976 99.906 16.0782 101.245 18.9061 102.734 21.4367 104.373 24.4146 106.306 27.5396 107.498 30.5175 109.284 33.6425 110.92 36.6204 112.706 39.7454 114.495 42.8705 116.131 45.9984 117.62 49.1234 119.256 52.2485 120.745 55.3764 122.829 58.2042 125.212 60.4376 127.296 62.371 129.679 64.9016 131.465 70.5601 135.782 76.8102 138.61 82.766 142.329 88.8689 146.202 95.269 149.624 101.969 152.602 108.369 155.282 114.622 158.558 120.575 162.427 121.917 163.319 123.256 164.213 124.595 164.958 126.234 165.702 127.72 166.744 129.209 167.785 131.739 169.869 133.973 172.252 136.653 174.186 142.159 178.205 148.265 181.928 154.068 185.65 160.173 189.667 166.871 192.942 172.974 196.814 175.952 198.747 178.482 201.278 181.607 203.214 184.735 205.15 187.563 206.489 190.241 208.425 193.069 210.359 195.899 211.998 198.874 213.337 201.852 214.676 204.83 215.57 207.808 216.612 214.358 218.992 220.608 221.97 227.008 224.501 228.647 225.095 230.283 225.693 231.922 226.137 233.709 226.734 235.345 227.626 236.984 228.37 240.109 229.562 243.384 230.604 246.809 231.498 253.506 233.582 260.206 235.815 267.054 237.601 273.901 239.534 281.046 240.429 287.893 242.065 291.466 242.96 295.038 243.704 298.61 244.151 302.035 244.596 305.31 245.49 308.435 246.829 310.072 247.764 311.889 248.699 313.817 248.699 314.348 248.699 314.887 248.627 315.433 248.468 315.58 248.318 315.58 248.318 315.58 248.168 316.177 243.554 317.813 239.09 317.813 234.326L317.813 227.479C318.111 224.948 318.558 222.417 319.152 220.034 319.6 217.951 319.75 215.717 320.047 213.634 320.344 211.253 321.239 208.87 321.683 206.192 322.427 201.725 322.875 197.111 323.172 192.497 323.619 187.733 323.469 182.969 322.725 178.205 321.683 173.294 321.239 168.38 321.089 163.469 321.089 158.705 319.75 154.091 319.897 149.327 320.047 147.093 319.897 144.86 319.75 142.629 319.45 140.396 319.152 138.163 318.855 135.782 317.219 125.957 316.177 115.834 315.73 105.859 315.58 100.948 315.433 96.1837 314.986 91.4197 314.538 86.6585 314.388 81.7445 314.836 76.9804 315.283 72.0692 315.58 67.1581 315.58 62.244L315.58 46.9131C315.58 45.127 315.73 43.0407 315.58 40.9574 315.433 39.3213 314.836 37.6823 314.091 36.3434 313.794 35.1516 313.199 34.11 312.305 33.3655 311.324 32.9298 310.265 32.6528 309.125 32.6528 308.707 32.6528 308.28 32.6903 307.841 32.7711 305.916 32.8374 303.787 33.0221 301.649 33.0221 298.985 33.0221 296.307 32.7364 293.996 31.5793 292.36 30.5377 290.721 29.1988 289.382 27.7098 287.743 26.2209 286.107 25.0292 284.171 23.9875 282.535 22.9458 280.749 21.9041 279.26 20.7124 277.176 19.5207 275.387 17.8846 274.198 15.8012 272.71 13.2706 271.371 9.54825 268.393 8.20936 266.607 7.46489 264.523 8.05931 262.737 7.46489 260.504 6.72042 258.27 5.67874 256.187 4.48701 253.627 2.92305 251.068 0.00288554 247.859 0.00288554Z" fill="#56618F" fill-rule="evenodd" transform="matrix(-0.89586 -0.444337 -0.444337 0.89586 297.362 472.705)"/><path d="M127.643 33.2584C127.744 33.2584 127.779 33.3624 127.779 33.6371 126.68 35.4261 125.579 37.2125 124.342 38.8629 124.342 37.7644 124.617 36.8019 125.166 35.8394 125.579 34.8742 126.267 34.0503 127.091 33.5011 127.365 33.3624 127.539 33.2584 127.643 33.2584ZM120.353 60.7339C120.353 62.1096 120.215 63.4854 119.94 64.9972 119.252 67.7487 117.327 68.8498 115.125 70.223 115.399 69.8124 115.677 69.3991 115.813 68.9858 117.463 66.3729 118.839 63.4854 120.353 60.7339ZM96.9491 88.8465C97.5517 88.8465 98.1543 88.8732 98.7568 88.9292 99.4447 88.9292 100.133 89.0678 100.546 89.0678 99.1754 90.057 97.1704 90.3316 95.2134 90.3316 93.635 90.3316 92.0833 90.153 90.9182 90.0303L90.2303 89.8943C92.4059 89.2411 94.6695 88.8465 96.9491 88.8465ZM150.068 0C149.634 0 149.21 0.0693218 148.823 0.213298 146.898 1.1758 145.384 2.69022 144.421 4.61523 144.011 5.02849 143.597 5.57774 143.323 6.12964 142.222 8.32928 140.984 10.3929 139.609 12.4566 138.233 14.5176 136.719 16.4453 135.345 18.5062 134.794 18.9195 134.38 19.3328 133.831 19.6074 131.079 21.5324 129.568 24.4226 126.955 26.4862 124.617 27.998 122.553 29.923 120.764 32.1253 116.362 32.9492 113.749 35.4261 110.035 37.7644 108.062 39.2121 106.086 40.6599 103.505 40.6599 103.391 40.6599 103.276 40.6572 103.159 40.6519 101.095 40.6519 99.1701 40.7905 97.1065 41.0652 97.0131 41.0678 96.9172 41.0705 96.8212 41.0705 93.7523 41.0705 90.6942 38.9695 87.892 37.9003 85.8283 36.9378 83.6287 36.114 81.4264 35.4261 80.016 35.2235 78.5336 35.0955 77.0858 35.0955 76.5552 35.0955 76.0273 35.1141 75.5127 35.1515 73.0358 35.1515 70.9748 33.9117 68.6365 33.6371 68.4739 33.6237 68.3139 33.6184 68.1566 33.6184 64.9518 33.6184 62.4536 36.1966 59.8327 37.9003 58.0436 39.1401 55.7054 39.5507 53.7804 40.7905 51.9913 42.0277 50.3409 44.0913 47.8667 44.9152 47.5921 45.0538 47.728 45.6031 48.1413 45.6031 51.1675 44.9152 53.2311 41.889 56.1186 40.6519 57.769 40.1026 59.2834 39.2761 60.7952 38.4523 62.4456 36.9378 64.2346 35.8394 66.1596 35.0128 66.7435 34.8289 67.3008 34.7542 67.8367 34.7542 69.3218 34.7542 70.6602 35.3328 72.0733 35.8394 74.137 36.114 76.2006 36.3886 78.2643 36.5246 83.0768 37.0765 88.028 40.1026 92.2939 42.3023 95.8693 43.9527 99.4447 43.4034 103.159 44.3659 103.732 44.4912 104.289 44.5472 104.836 44.5472 107.313 44.5472 109.547 43.3794 111.685 42.0277 114.437 40.2386 116.362 38.5882 118.839 37.0765L118.839 37.0765C118.564 39.2761 118.564 41.3398 118.977 43.5394 119.94 47.3921 119.252 51.5194 117.327 55.0948 115.399 58.9448 113.613 63.0721 111.411 66.9222 110.448 68.4366 109.347 69.8124 108.249 71.1881 107.422 72.5612 106.873 74.0756 106.734 75.5874 106.598 76.1393 106.324 76.5526 106.185 77.1018 105.084 78.8908 104.26 80.6772 103.572 82.6022 103.572 82.7409 103.433 83.0155 103.297 83.1541 102.476 84.21 101.255 84.8632 99.9753 84.8632 99.754 84.8632 99.5301 84.8445 99.3088 84.8045 98.7435 84.7619 98.1729 84.7405 97.597 84.7405 92.7045 84.7405 87.4494 86.2309 82.5276 87.8307 82.1143 87.5561 81.701 87.4174 81.4264 87.1428 76.7499 84.5299 70.5616 83.7034 65.3331 83.1541 64.9278 83.1221 64.5386 83.1061 64.1653 83.1061 59.6114 83.1061 57.4118 85.4018 54.7429 89.3424 53.0765 91.75 51.5327 92.7872 49.5277 92.7872 48.5546 92.7872 47.4747 92.5419 46.2163 92.094 43.6034 91.4061 41.1265 90.8568 38.5136 90.7182 37.9617 90.7182 37.8257 91.4061 38.2389 91.5447 40.7132 92.094 43.0515 92.9178 45.3898 93.883 46.7655 94.7069 48.5546 95.2561 50.205 95.3948 53.6417 95.1201 55.7054 92.3686 57.3558 89.6171 59.0701 87.1135 60.6565 85.6204 63.688 85.6204 63.8213 85.6204 63.9573 85.623 64.096 85.6284 66.4342 85.903 68.9112 86.3163 71.3854 86.8682 73.9983 87.1428 76.4752 87.692 78.9521 88.6545L79.3627 88.9292 77.0245 89.6171C74.2756 90.5796 71.3854 91.4061 69.4604 93.883 68.9112 94.7069 68.3593 95.808 67.9487 96.7705 66.8475 98.6955 65.4717 100.346 63.8213 101.722 61.0698 104.609 61.0698 108.598 56.9452 110.251 55.6574 110.766 54.3429 110.944 53.0125 110.944 50.085 110.944 47.0855 110.07 44.1526 109.974 42.9182 109.843 41.6704 109.782 40.4146 109.782 37.759 109.782 35.0768 110.056 32.4612 110.526 30.5362 111.075 28.6086 111.901 26.6835 112.864 25.0332 113.413 23.3828 113.274 21.7324 113.826 19.3941 114.65 17.1945 115.338 14.8562 115.89 13.0672 116.165 11.4168 116.714 9.90501 117.54 6.32694 119.327 3.02616 121.529 0 124.003 2.89018 121.942 6.05232 120.153 9.3531 118.639 12.9285 116.578 17.1945 116.439 21.0445 115.202 22.6949 114.514 24.4839 114.65 26.1343 114.24 27.6461 113.688 29.0218 113 30.3976 112.312 32.7625 111.427 35.2101 111.173 37.671 111.173 39.788 111.173 41.9157 111.36 44.014 111.488 46.9682 111.632 50.4156 112.456 53.6577 112.456 56.6065 112.456 59.3874 111.776 61.4831 109.286 62.3069 108.187 62.8588 107.086 63.4081 105.849 64.3706 104.06 65.7464 102.41 67.3968 101.172 69.599 99.1088 70.9748 95.808 73.7237 94.4323 77.1631 93.0565 80.7385 92.094 84.3166 91.4061L84.4526 91.4061C88.004 92.4832 91.638 93.0538 95.2934 93.0538 96.3093 93.0538 97.3278 93.0085 98.3436 92.9178 101.647 92.6432 103.572 91.8194 104.948 89.4811L104.948 89.4811C104.948 89.7557 104.809 90.0303 104.673 90.3049 103.847 94.8455 104.673 101.447 101.508 105.022 100.133 106.398 98.8955 107.913 97.7943 109.563 96.4186 111.488 94.6322 112.864 92.5686 113.962 89.5424 115.751 87.0655 118.639 85.6897 122.078 85.4924 122.377 85.7217 122.601 85.9697 122.601 86.0656 122.601 86.1643 122.569 86.2416 122.492 87.6174 120.703 88.9931 118.916 90.5049 117.266 92.0166 116.026 93.667 114.927 95.4561 114.101 97.1065 113.138 98.3436 111.763 99.3088 110.112 100.407 108.187 102.335 106.947 103.433 105.022 105.772 101.586 105.358 96.2213 105.91 92.094 106.46 88.1053 108.798 84.3913 109.76 80.5412 110.723 79.1655 111.963 78.0643 113.474 77.3764 115.538 76.1393 117.463 74.6249 119.527 73.2491 121.177 72.4253 122.414 71.1881 123.241 69.5377 125.03 65.685 123.377 61.835 123.241 57.9823 123.241 57.5691 123.241 57.2944 123.377 57.0198 123.734 57.3771 124.206 57.5451 124.675 57.5451 125.478 57.5451 126.283 57.0598 126.542 56.196 127.365 53.8577 126.955 51.6554 127.917 49.4557 128.88 47.1175 130.117 44.9152 131.631 42.9902 134.794 38.4523 137.545 33.6371 139.609 28.6859 141.947 23.3214 145.522 19.1941 148.549 14.243 149.375 12.4566 150.474 10.8062 151.849 9.43043 153.5 8.05466 154.462 5.991 154.462 3.79137 154.462 1.52241 152.124 0 150.068 0Z" fill="#313752" fill-rule="evenodd" transform="matrix(0.972727 -0.231955 -0.231955 -0.972727 826.39 167.387)"/><path d="M1.23713 0.00266622C0.826528 0.00266622 0.413264 0.277286 0.274621 0.551907 0.138643 0.687884 0.138643 0.826527 0 1.10115 0 1.37577 0 1.65305 0 2.06365 0 2.34094 0 2.75154 0.138643 3.02616 0.549241 3.71404 1.23713 4.1273 2.06365 4.26595L2.33827 4.40192 2.61289 4.67921 2.75154 4.67921C3.02616 4.81519 3.1648 4.95383 3.30078 5.08981 3.43942 5.36443 3.71404 5.50307 3.98866 5.77769 4.12731 5.91633 4.40193 6.05231 4.5379 6.19096 4.81519 6.3296 5.22579 6.46558 5.50308 6.46558L5.08981 6.3296 5.08981 6.3296C5.26045 6.38559 5.43109 6.41758 5.60173 6.41758 5.84435 6.41758 6.08431 6.35093 6.32694 6.19096 6.7402 5.91633 6.87618 5.36443 6.7402 4.95383 6.60156 4.1273 6.05232 3.43942 5.50308 3.02616L5.22579 2.89018 5.22579 2.61556C5.22579 2.20229 4.95117 1.65305 4.67655 1.37577 4.40193 1.10115 4.12731 0.96517 3.85269 0.826527L3.43942 0.687884 3.30078 0.687884C3.02616 0.551907 2.88752 0.551907 2.75154 0.413264 2.47692 0.277286 2.19963 0.138643 1.92501 0.138643L1.78903 0.138643C1.65039 0.00266622 1.37577 0.00266622 1.23713 0.00266622Z" fill="#B32B3F" fill-rule="evenodd" transform="matrix(0.972727 -0.231955 -0.231955 -0.972727 896.613 37.3018)"/><path d="M1.92766 0.00266623C1.65304 0.00266623 1.37576 0.138644 1.10114 0.277288 0.687878 0.55191 0.551902 0.965176 0.551902 1.37844 0.277284 1.65306 0.00266619 1.92768 0.00266619 2.34095 0.00266619 3.16482 0.138642 3.8527 0.277284 4.67923L0.551902 5.5031 0.551902 5.77772C0.551902 5.77772 0.551902 5.91637 0.551902 5.91637 0.551902 6.05501 0.551902 6.19099 0.551902 6.19099 0.551902 6.60425 0.687878 7.01752 1.10114 7.29214 1.23978 7.56676 1.5144 7.70541 1.92766 7.70541 2.06363 7.70541 2.06363 7.70541 2.20227 7.56676L2.47689 7.42812 2.75151 7.29214C3.02613 7.01752 3.16477 6.60425 3.30341 6.19099L3.30341 6.05501C3.16477 5.91637 3.16477 5.77772 3.30341 5.77772L3.30341 5.22848C3.30341 4.81521 3.30341 4.40195 3.30341 3.99135L3.30341 2.89019C3.30341 2.47693 3.30341 2.20231 3.30341 1.92768L3.30341 1.37844C3.30341 0.826532 3.16477 0.413266 2.75151 0.277288 2.47689 0.00266623 2.20227 0.00266623 1.92766 0.00266623Z" fill="#B32B3F" fill-rule="evenodd" transform="matrix(0.972727 -0.231955 -0.231955 -0.972727 873.443 11.2948)"/><path d="M2.33824 0C2.20226 0 1.92765 0.138644 1.78901 0.274623 1.65036 0.274623 1.51439 0.413267 1.37575 0.551911 1.23977 0.68789 1.23977 0.826534 1.23977 0.962512L1.23977 0.826534 1.10113 0.962512C0.96249 1.10116 0.826515 1.10116 0.687874 1.2398 0.551899 1.51442 0.413258 1.78905 0.413258 2.06367L0.413258 2.20231C0.274616 2.33829 0.274616 2.47694 0.138641 2.61291 0.138641 2.75156 0 3.02618 0 3.3008L0 3.43945C0 3.57809 0 3.71407 0 3.85272 0 3.98869 0 4.26598 0.138641 4.40196 0.138641 4.67658 0.274616 4.81523 0.413258 4.95121L0.826515 5.22849C0.96249 5.36447 1.10113 5.36447 1.37575 5.36447L1.78901 5.36447C2.06362 5.36447 2.20226 5.36447 2.33824 5.22849 2.61285 4.95121 2.89014 4.67658 3.02611 4.40196 3.16475 3.98869 3.43937 3.57809 3.71399 3.3008 3.85263 2.8902 3.9886 2.61291 4.12724 2.33829 4.12724 2.20231 4.12724 2.06367 4.12724 1.92769 4.12724 1.78905 4.12724 1.78905 4.12724 1.6504L4.12724 1.51442 4.12724 1.37578C4.12724 1.2398 3.9886 1.10116 3.9886 0.962512 3.85263 0.68789 3.71399 0.551911 3.57801 0.413267L3.30073 0.274623C3.16475 0.138644 3.02611 0 2.7515 0Z" fill="#B32B3F" fill-rule="evenodd" transform="matrix(0.972727 -0.231955 -0.231955 -0.972727 856.987 18.1872)"/><path d="M5.22846 0.00266625C4.54058 0.00266625 3.98867 0.690558 3.43943 1.10116 3.02616 1.51443 2.89019 1.65307 2.47692 2.06367L1.65039 3.02886C1.23979 3.30348 0.962507 3.5781 0.551908 3.85273 0 4.54062 0 5.36715 0.551908 6.05238 0.826529 6.42032 1.28512 6.66562 1.76237 6.66562 2.00233 6.66562 2.24763 6.60429 2.47692 6.46565 2.89019 6.19102 3.43943 5.9164 3.71405 5.64178 4.12731 5.36715 4.40194 5.22851 4.67656 4.95389 4.8152 4.67926 4.95384 4.54062 5.08982 4.40197 5.22846 4.12735 5.36444 3.85273 5.36444 3.5781 5.36444 3.43946 5.36444 3.30348 5.36444 3.16483L5.36444 2.89021C5.50309 2.61559 5.63906 2.47694 5.77771 2.20232L5.77771 2.20232 5.63906 2.47694C5.91635 2.06367 6.19097 1.65307 6.19097 1.10116 6.19097 0.551913 5.77771 0.138645 5.22846 0.00266625Z" fill="#B32B3F" fill-rule="evenodd" transform="matrix(0.972727 -0.231955 -0.231955 -0.972727 834.867 6.07048)"/><path d="M0.935857 0C0.557248 0 0.205302 0.207966 0.138646 0.671889 0 1.6344 0 2.5969 0.138646 3.55941 0.138646 4.38594 0.138646 5.20981 0.138646 6.03633 0.138646 7.13749 0.41327 8.23597 0.96252 9.19848 1.10117 9.75039 1.23714 10.2996 1.37579 10.8489 1.37579 11.7447 2.02902 12.19 2.68226 12.19 3.33549 12.19 3.98872 11.7447 3.98872 10.8489 3.98872 10.2996 3.85275 9.75039 3.7141 9.19848 3.7141 8.37461 3.43948 7.54809 3.30083 6.72422L3.16485 5.62307C3.16485 5.34845 3.16485 5.07383 3.0262 4.66056 2.89023 4.2473 3.0262 3.69806 2.89023 3.14881 2.89023 2.73555 2.61293 2.18364 2.20233 2.04766 2.06369 1.49575 1.92504 1.08515 1.92504 0.671889 1.78373 0.242627 1.34379 0 0.935857 0Z" fill="#B32B3F" fill-rule="evenodd" transform="matrix(0.972727 -0.231955 -0.231955 -0.972727 842.882 50.9451)"/><path d="M3.83937 0.00266623C3.36744 0.00266623 2.89019 0.44526 2.89019 0.970507 2.58624 0.767874 2.28496 0.639895 1.98367 0.639895 1.87169 0.639895 1.76238 0.658558 1.65039 0.693219 0.277288 0.970507 0.277288 2.34361 0.277288 3.44477 0.277288 4.82054 0.138644 6.19631 0 7.57209 0.186636 8.50527 0.94651 9.05984 1.75971 9.05984 2.14098 9.05984 2.53558 8.9372 2.89019 8.67324 3.02617 8.5346 3.16481 8.25997 3.30345 7.98535 3.43943 7.84671 3.57808 7.57209 3.71405 7.29747 3.8527 6.74556 3.98867 6.19631 3.98867 5.64707 3.98867 4.82054 3.8527 3.99668 3.8527 3.30879 3.8527 2.89552 3.71405 2.48226 3.43943 2.20764 3.43943 2.06899 3.43943 1.93302 3.43943 1.79437L3.98867 2.34361C3.98867 2.6209 4.26596 2.75688 4.40194 2.89552 4.54058 3.0315 4.67656 3.0315 4.8152 3.17014L4.95385 3.17014C5.08983 3.30879 5.22847 3.44477 5.36445 3.44477 6.19098 4.2713 7.29213 4.82054 8.39061 4.95918L8.66524 4.95918C9.0785 4.95918 9.35312 5.09516 9.63041 5.09516 9.76639 5.12982 9.91303 5.14849 10.0623 5.14849 10.5049 5.14849 10.9715 4.99384 11.2808 4.6819 11.5554 4.40727 11.6914 3.99668 11.5554 3.58341 11.2808 3.17014 10.8675 2.89552 10.4543 2.89552L10.041 2.89552C9.76639 2.89552 9.63041 2.89552 9.35312 2.75688L9.0785 2.6209 8.39061 2.20764 7.01484 1.51975 6.32695 1.10648C6.19098 1.10648 5.91636 0.970507 5.77771 0.970507 5.77771 0.970507 5.6284 0.919849 5.56975 0.909184L5.56975 0.909184C5.4551 0.831863 5.34045 0.831863 5.22847 0.831863 4.95385 0.557242 4.54058 0.28262 4.26596 0.143976 4.13265 0.0453259 3.98601 0.00266623 3.83937 0.00266623Z" fill="#B32B3F" fill-rule="evenodd" transform="matrix(0.972727 -0.231955 -0.231955 -0.972727 820.185 52.4213)"/><path d="M4.01804 0.00266623C3.73008 0.00266623 3.4368 0.0799868 3.16484 0.242627 2.34097 0.653226 1.78905 1.34111 1.51443 2.16764 1.37845 2.58091 1.23981 2.99151 1.10116 3.40477 1.10116 3.40477 1.10116 3.40477 1.10116 3.54342 0.551914 3.81804 0.27729 4.36728 0.27729 5.05517 0.138645 5.32979 0.00266625 5.74305 0.00266625 6.15632L0.00266625 6.70556C0.00266625 6.8442 0.138645 7.11883 0.27729 7.25747 0.551914 7.53209 0.826538 7.80671 1.23981 7.80671 1.39178 7.86804 1.54909 7.8947 1.7064 7.8947 2.26898 7.8947 2.84222 7.54809 3.16484 7.11883 3.30348 6.8442 3.43946 6.70556 3.43946 6.56958 3.57811 6.43094 3.57811 6.2923 3.57811 6.2923 3.85273 5.8817 3.99138 5.60708 4.266 5.32979 4.54063 4.6419 4.81525 4.09266 4.95389 3.40477 5.08987 3.13015 5.36716 2.71689 5.50314 2.44226L5.77777 2.30362C6.05506 2.16764 6.19103 1.75438 6.05506 1.34111 6.05506 1.06649 5.77777 0.930513 5.64179 0.930513 5.50314 0.791869 5.36716 0.653226 5.22852 0.517248 4.89524 0.18397 4.46064 0.00266623 4.01804 0.00266623Z" fill="#B32B3F" fill-rule="evenodd" transform="matrix(0.972727 -0.231955 -0.231955 -0.972727 777.521 26.4963)"/><path d="M2.61287 0.00266624C2.06363 0.00266624 1.5144 0.277289 1.23711 0.690557 1.23711 0.826536 1.10114 0.965181 1.10114 1.10116 0.549236 1.2398 0 1.78905 0 2.34096 0.138642 3.16483 0.687878 3.71675 1.37576 3.71675L7.70264 3.71675C9.21437 3.5781 9.49165 1.51443 8.1159 1.10116 7.1534 0.965181 6.18824 0.690557 5.08977 0.413268 4.53786 0.138645 3.98863 0.138645 3.43939 0.00266624Z" fill="#B32B3F" fill-rule="evenodd" transform="matrix(0.972727 -0.231955 -0.231955 -0.972727 782.905 53.8118)"/><path d="M3.22354 0C3.0689 0 2.90892 0.0453256 2.75427 0.149308 2.75427 0.149308 2.61563 0.149308 2.61563 0.287951L2.341 0.287951C2.25035 0.269287 2.16502 0.261289 2.08237 0.261289 1.51445 0.261289 1.06651 0.650556 0.826549 1.25045L0.826549 1.52507C0.826549 1.66105 0.826549 1.66105 0.826549 1.66105 0.826549 2.07431 0.826549 2.34893 0.826549 2.62622L0.826549 3.58872C0.690568 4.55122 0.00266629 5.37508 0.690568 6.33759 0.826549 6.75085 1.23982 6.88949 1.6531 7.02547 1.92772 7.02547 2.341 6.88949 2.61563 6.75085 2.75427 6.61487 2.89025 6.47623 2.89025 6.47623 3.30353 6.20161 3.43951 5.78835 3.57816 5.37508L3.57816 5.10046C3.7168 4.6872 3.7168 4.27661 3.85278 3.86334 3.85278 3.3141 3.85278 2.7622 3.85278 2.21296 3.85278 2.07431 3.85278 2.07431 3.85278 2.07431L3.85278 1.79969C3.85278 1.79969 3.85278 1.66105 3.85278 1.66105L3.85278 1.52507 3.85278 1.38643C4.41004 0.829192 3.88211 0 3.22354 0Z" fill="#B32B3F" fill-rule="evenodd" transform="matrix(0.972727 -0.231955 -0.231955 -0.972727 788.407 44.8743)"/><path d="M0.138646 0.00266627 0.138646 0.00266627C0.138646 0.00266627 0.00266627 0.138646 0.138646 0.00266627Z" fill="#B32B3F" fill-rule="evenodd" transform="matrix(0.972727 -0.231955 -0.231955 -0.972727 789.148 37.9)"/><path d="M0 0.138646 0 0.138646C0 0.138646 0.138688 0 0 0.138646Z" fill="#B32B3F" fill-rule="evenodd" transform="matrix(0.972727 -0.231955 -0.231955 -0.972727 842.815 69.6436)"/><path d="M7.10553 0C6.74292 0 6.37498 0.0666547 6.05236 0.229292 5.77774 0.229292 5.6391 0.365268 5.36447 0.503909 5.07652 0.330607 4.78857 0.255954 4.51128 0.255954 4.12467 0.255954 3.7594 0.402594 3.43945 0.642551L3.3008 0.642551 3.02618 0.778527 2.47694 1.05314 2.06367 1.05314C1.92502 1.19179 1.6504 1.33043 1.37578 1.33043 0.549245 1.60504 0 2.4289 0.274623 3.39139 0.413267 3.80465 0.68789 4.07927 0.962512 4.35388 1.2558 4.45253 1.54642 4.54851 1.8877 4.54851 2.02901 4.54851 2.17832 4.53252 2.33829 4.49253 2.47694 4.49253 2.47694 4.49253 2.61291 4.35388L3.02618 4.21791 3.16483 4.21791C3.57543 4.21791 3.98869 4.07927 4.26332 3.80465 4.67658 3.66867 4.95121 3.39139 5.22583 3.11677L5.6391 2.70351 5.77774 2.56754C6.05236 2.4289 6.32699 2.29292 6.46563 2.15428 6.60161 2.01564 6.74025 2.01564 6.74025 2.01564L7.01488 2.01564C7.15352 1.87966 7.42814 1.74102 7.70277 1.74102 8.11603 1.60504 8.39066 1.33043 8.39066 0.917168 8.39066 0.503909 8.11603 0.229292 7.84141 0.0906503 7.61211 0.0346604 7.36149 0 7.10553 0Z" fill="#B32B3F" fill-rule="evenodd" transform="matrix(0.972727 -0.231955 -0.231955 -0.972727 837.69 73.645)"/><path d="M4.95389 0.0026662C4.67927 0.0026662 4.40465 0.0026662 4.266 0.138643 3.57811 0.551904 3.02886 0.965166 2.61559 1.65305 2.34097 1.92767 2.20232 2.20228 1.9277 2.61555L1.65308 2.61555C1.23981 2.61555 0.826538 2.89017 0.690559 3.30343 0.551914 3.44207 0.551914 3.57805 0.415935 3.71669 0.415935 3.71669 0.415935 3.85267 0.27729 3.85267 0.138645 4.26593 0.00266625 4.67919 0.138645 5.09245 0.27729 5.50305 0.27729 5.78033 0.415935 6.05495 0.690559 6.46821 1.10116 6.74283 1.65308 6.74283 1.72773 6.76683 1.80772 6.77749 1.89037 6.77749 2.25831 6.77749 2.66625 6.55353 2.89022 6.32957 2.89022 6.19093 3.02886 6.19093 3.02886 6.05495 3.85273 5.64169 4.40465 4.95381 4.95389 4.12995 5.36716 3.30343 5.77777 2.4769 6.05506 1.65305 6.19103 1.37843 6.19103 1.23978 6.05506 0.965166 6.05506 0.690547 5.77777 0.415928 5.64179 0.277285 5.50314 0.138643 5.22852 0.138643 4.95389 0.0026662Z" fill="#B32B3F" fill-rule="evenodd" transform="matrix(0.972727 -0.231955 -0.231955 -0.972727 843.239 119.458)"/><path d="M0.141312 0 0.141312 0C0.141312 0 0.00266627 0 0.00266627 0.138688L0.141312 0Z" fill="#B32B3F" fill-rule="evenodd" transform="matrix(0.972727 -0.231955 -0.231955 -0.972727 845.43 117.379)"/><path d="M1.50375 0.00266624C0.650559 0.00266624 0 0.901189 0.450592 1.79971L0.58657 2.21031 0.725213 2.34896 0.725213 2.62358 0.725213 2.76222C0.725213 2.76222 0.725213 2.8982 0.725213 3.03685L0.725213 3.45011C0.725213 4.27398 0.861191 5.10052 1.13848 5.92438 1.13848 6.06303 1.27446 6.19901 1.4131 6.33765 1.4131 7.02554 1.54908 7.71343 1.68772 8.5373 1.82636 8.81459 1.82636 9.22519 2.10099 9.50248 2.23696 10.0517 2.51158 10.3263 2.92485 10.601 3.06083 10.7023 3.21014 10.7449 3.36211 10.7449 3.8287 10.7449 4.30062 10.329 4.30062 9.91308 4.30062 9.50248 4.30062 9.08921 4.30062 8.67594 4.30062 8.40132 4.16464 8.1267 4.16464 7.85208L4.16464 5.78841 4.16464 5.51378C4.16464 5.51378 4.16464 5.37514 4.16464 5.37514 4.43926 4.27398 4.43926 3.31147 4.30062 2.21031 4.43926 1.66107 4.43926 0.973177 4.16464 0.55991 3.98601 0.293286 3.69272 0.143977 3.39677 0.143977 3.23413 0.143977 3.07149 0.189303 2.92485 0.285288 2.78887 0.285288 2.51158 0.285288 2.37561 0.423932 2.23696 0.285288 2.23696 0.149309 2.10099 0.149309 1.89835 0.0479923 1.69572 0.00266624 1.50375 0.00266624Z" fill="#B32B3F" fill-rule="evenodd" transform="matrix(0.972727 -0.231955 -0.231955 -0.972727 884.954 155.192)"/><path d="M4.80186 0C4.1593 0 3.5914 0.247957 3.02616 0.586564 2.33827 1.1358 1.65039 1.96232 1.23713 2.78618 0.962505 3.06346 0.826528 3.47406 0.687885 3.75134 0.549241 4.16194 0.413264 4.43656 0.274621 4.71384L0.274621 4.84982C0.138643 4.98846 0.138643 5.12444 0.138643 5.12444 0 5.40172 0 5.81232 0.138643 6.0896 0.138643 6.36422 0.413264 6.77482 0.687885 6.91346 0.962505 7.18808 1.37577 7.32672 1.78903 7.32672 2.19963 7.32672 2.61289 7.18808 2.88752 6.77482 3.1648 6.63884 3.30078 6.36422 3.43942 6.22558 3.43942 6.0896 3.43942 5.95096 3.5754 5.81232 3.71404 5.67634 3.98866 5.5377 4.26328 5.40172 4.5379 5.26308 4.67655 5.12444 4.95117 4.98846 5.22579 4.84982 5.63905 4.5752 5.7777 4.30058 6.19096 4.16194 6.32694 3.75134 6.60156 3.47406 6.87618 2.92482 6.87618 2.23694 6.7402 1.54906 6.46558 0.861183 5.91367 0.311945 5.22579 0.0373268 5.08181 0.013331 4.93784 0 4.80186 0Z" fill="#B32B3F" fill-rule="evenodd" transform="matrix(0.972727 -0.231955 -0.231955 -0.972727 894.189 135.058)"/><path d="M5.18315 0C4.72723 0 4.31129 0.133311 3.98868 0.455925 3.71406 0.455925 3.57808 0.594568 3.43944 0.86919 2.89019 0.86919 2.33828 1.14381 2.06366 1.55708 1.6504 2.10632 1.37577 2.65823 0.962509 3.20747 0.687887 3.75671 0.687887 3.89536 0.55191 4.30862 0.413266 4.4446 0.413266 4.58324 0.274622 4.72189 0.274622 4.85786 0.138644 4.99651 0.138644 5.13248 0 5.95901 0.413266 6.78288 1.2398 7.06017 1.38644 7.09483 1.52242 7.11349 1.65306 7.11349 2.01034 7.11349 2.31162 6.98551 2.61291 6.78288L2.89019 6.78288C3.16481 6.6469 3.43944 6.37228 3.57808 6.23364 3.71406 5.95901 3.8527 5.82037 3.8527 5.68439 4.12732 5.27113 4.2633 4.99651 4.40195 4.58324 4.67657 4.034 4.81521 3.48209 4.95119 2.93285 5.08983 2.65823 5.08983 2.51958 4.95119 2.38361L4.95119 2.24496 5.22848 2.10632 5.36445 1.97034 5.5031 1.97034C5.62841 2.013 5.74839 2.03166 5.86037 2.03166 6.83621 2.03166 7.17749 0.551909 6.19099 0.181303 5.84704 0.0666557 5.50576 0 5.18315 0Z" fill="#B32B3F" fill-rule="evenodd" transform="matrix(0.972727 -0.231955 -0.231955 -0.972727 885.502 87.3649)"/><path d="M1.30909 0.00266623C0.690537 0.00266623 0.0693204 0.34661 0.138641 1.0345 0.138641 1.72239 0.00266617 2.41027 0.00266617 3.23414 0.00266617 3.92203 0.00266617 4.60992 0.00266617 5.43645 0.00266617 5.98569 0.413256 6.39896 0.965153 6.67358 1.10113 7.08685 1.51438 7.36147 1.92764 7.36147 2.47687 7.22283 3.02877 6.80956 3.02877 6.26031 3.02877 5.84705 3.02877 5.57243 2.89013 5.29781 2.89013 4.88454 2.89013 4.3353 2.75148 3.92203 2.75148 3.50876 2.75148 3.64741 2.75148 3.37278 2.89013 3.09816 2.89013 2.82087 2.75148 2.54625 2.75148 2.54625 2.75148 2.41027 2.75148 2.41027L2.75148 2.27163C2.61551 1.99701 2.61551 1.85836 2.47687 1.58374L2.47687 1.0345C2.54619 0.34661 1.92764 0.00266623 1.30909 0.00266623Z" fill="#B32B3F" fill-rule="evenodd" transform="matrix(0.972727 -0.231955 -0.231955 -0.972727 872.571 43.8134)"/></g></svg>