<svg width="960" height="540" xmlns="http://www.w3.org/2000/svg" xmlns:xlink="http://www.w3.org/1999/xlink" overflow="hidden"><defs><clipPath id="clip0"><rect x="0" y="0" width="960" height="540"/></clipPath></defs><g clip-path="url(#clip0)"><rect x="0" y="0" width="960" height="540" fill="#F0E2E2"/><path d="M316.978 0C312.723 0.163349 308.468 1.45757 305.375 3.88896 300.539 6.96746 293.578 7.13081 287.583 7.45436 281.78 7.45436 275.98 6.96746 270.372 6.16014 266.762 5.72663 263.066 5.50988 259.395 5.50988 257.562 5.50988 255.737 5.56329 253.933 5.67323 251.418 5.67323 248.711 5.67323 246.196 5.99679 243.103 6.6439 240.006 6.96746 236.913 7.13081 236.239 7.08683 235.579 7.06798 234.93 7.06798 233.153 7.06798 231.455 7.21876 229.757 7.45436 227.05 8.10462 224.535 8.91508 222.214 9.88575 219.313 10.8596 216.606 11.5067 213.704 12.3171 211.384 13.2878 208.872 13.7747 206.356 14.0983 203.841 14.2616 201.329 15.2323 198.619 15.2323 195.721 15.3956 192.819 15.7192 190.113 16.3694 184.504 17.9872 179.087 19.7715 173.865 21.8793 170.963 22.85 168.066 23.6605 165.164 24.4709 162.262 25.2814 158.975 25.6049 156.268 26.5787 153.947 27.3892 152.013 28.6834 149.883 29.6572 146.986 30.4677 144.084 31.1148 140.987 31.4384 137.49 31.9347 133.977 32.0918 130.457 32.0918 124.361 32.0918 118.247 31.6206 112.155 31.6206 109.122 31.6206 106.097 31.7368 103.083 32.0886 100.567 32.4122 98.0554 33.0593 95.5399 33.7064 93.0282 34.0331 90.5127 34.6802 87.9972 35.4907 85.0956 36.4614 82.3889 38.0823 79.4873 39.0561 76.5894 40.0268 73.6877 41.0006 70.7861 41.6477 64.9829 42.945 60.1506 45.3764 54.5423 46.9974 49.1252 48.4549 43.7118 48.9418 38.2947 50.5628 35.3931 51.6968 32.1053 52.3439 28.8175 52.6674 26.6919 52.8308 24.5626 52.991 22.6319 53.3177 19.5354 53.9648 16.6337 55.0988 14.3132 56.7198 14.3132 56.4904 14.0245 56.2611 13.7846 56.2611 13.6871 56.2611 13.5971 56.302 13.5409 56.3962 11.9926 57.8538 9.67208 58.9878 8.70487 60.6087 7.54647 62.7165 7.35153 65.1479 8.31874 67.416 9.48089 70.4945 10.2532 73.7363 10.6393 77.1384 10.8342 81.0273 10.6393 84.9163 10.6393 88.645 10.2532 104.201 11.0254 119.597 10.6393 135.152 10.6393 142.447 9.28595 149.738 9.28595 157.192L9.28595 180.042 9.28595 214.235C9.28595 217.801 9.67208 221.366 9.28595 224.771 9.091 227.039 8.31874 229.144 7.9326 231.415 7.73766 233.036 7.73766 234.817 7.54647 236.438 7.35153 240.974 6.77046 245.513 5.61206 249.889 4.44991 254.749 0.00374887 260.582 2.71043 265.445 2.90537 265.608 3.09656 265.608 3.29151 265.769 5.22592 265.608 7.35153 265.122 9.28595 264.311 11.9926 263.501 15.0892 263.177 17.7959 262.53 21.7322 261.782 25.6722 261.386 29.6086 261.386 31.6667 261.386 33.7248 261.496 35.7829 261.719 42.3585 262.367 48.934 262.69 55.5095 262.69 57.8375 262.577 60.1431 262.52 62.4411 262.52 66.6286 262.52 70.7936 262.7 75.0411 263.014 87.1162 264.28 98.8277 267.396 111.064 267.396 111.368 267.396 111.675 267.393 111.979 267.39 115.075 267.229 118.168 267.148 121.287 267.148 124.406 267.148 127.548 267.229 130.738 267.39 137.122 268.04 143.308 269.174 150.078 269.658 151.923 269.752 153.775 269.793 155.627 269.793 165.591 269.793 175.653 268.649 185.726 268.649 186.739 268.649 187.747 268.662 188.756 268.687 200.774 268.838 213.476 269.997 225.896 269.997 226.668 269.997 227.44 269.994 228.209 269.984 234.593 269.821 240.973 269.984 247.163 269.497 253.352 269.01 260.119 268.687 266.694 268.363 279.268 268.04 291.838 267.066 304.408 265.445 311.179 264.148 317.945 263.337 324.716 262.69 326.905 262.637 329.098 262.618 331.291 262.618 335.674 262.618 340.056 262.69 344.442 262.69 357.784 262.53 370.935 261.069 384.087 259.775 397.238 258.638 410.775 257.504 423.926 257.02 430.696 256.857 437.272 256.37 443.847 255.883 450.037 255.559 456.222 255.883 462.22 255.236 468.796 254.749 475.371 253.778 481.947 253.615 485.04 253.455 488.181 253.414 491.327 253.414 494.468 253.414 497.61 253.455 500.706 253.455 503.372 253.389 506.033 253.357 508.688 253.357 519.308 253.357 529.831 253.876 540.351 254.912 552.186 256.225 564.021 256.882 575.999 256.882 577.329 256.882 578.664 256.872 579.999 256.857 581.093 256.828 582.192 256.816 583.298 256.816 588.636 256.816 594.083 257.13 599.53 257.667 602.432 258.154 605.525 258.314 608.621 258.314 609.097 258.352 609.577 258.371 610.053 258.371 611.692 258.371 613.307 258.132 614.807 257.504 617.127 256.046 616.55 253.291 616.55 251.183 616.741 249.239 617.127 247.295 617.517 245.513 617.903 242.919 618.095 240.327 618.095 237.572 618.29 227.039 620.996 216.506 620.996 205.81 620.805 200.3 620.996 194.951 620.996 189.604 620.996 186.849 620.415 184.258 620.029 181.503 620.029 178.908 619.643 176.476 619.257 174.048 618.095 169.996 614.807 166.754 613.84 162.702 612.681 157.355 612.295 151.845 612.681 146.335 612.872 143.904 612.872 141.473 612.681 139.044 612.295 136.45 611.328 134.018 611.133 131.59 610.747 126.08 609.975 120.731 609.585 115.384 609.199 109.874 609.199 104.851 608.426 99.6648 607.654 94.4785 606.106 89.9393 604.944 85.0796 604.366 82.4849 604.171 80.0567 603.59 77.6253 603.204 76.1646 603.009 74.707 602.818 73.2494 602.818 71.7918 603.009 70.4945 602.818 69.1971 602.237 65.795 598.368 64.3375 595.275 62.8768 593.341 61.9061 591.215 61.0956 588.895 60.4454 585.607 59.4747 582.51 58.0171 579.223 56.8831 576.793 56.0318 574.203 55.8056 571.594 55.8056 569.221 55.8056 566.829 55.9941 564.527 56.0726 559.196 56.0726 553.865 56.5847 548.403 56.5847 547.717 56.5847 547.035 56.5753 546.345 56.5564 543.057 56.5564 539.964 55.9093 537.063 54.7753 534.547 53.8015 532.617 52.5072 530.101 51.5334 524.879 49.589 519.466 49.589 513.857 48.6183 511.147 48.1314 508.44 47.4811 505.925 46.6707 503.027 46.0235 500.316 45.2131 497.61 44.0791 496.061 42.945 494.131 41.9712 492.388 41.3241 489.876 40.677 487.165 40.3535 484.654 40.1901 480.301 39.8257 475.949 39.6435 471.6 39.6435 470.149 39.6435 468.698 39.6624 467.248 39.7032 466.764 39.7315 466.28 39.744 465.797 39.744 463.379 39.744 460.961 39.4079 458.543 38.7325 455.45 37.9221 452.743 36.6247 449.842 35.4907 444.038 33.5462 438.239 32.0886 432.822 29.9808 427.408 27.873 421.219 26.0918 415.611 23.6605 410.584 21.3924 405.942 18.6375 400.525 17.0166 398.205 16.3694 396.079 15.2323 393.564 14.5852 390.857 13.9381 387.955 13.6145 385.054 13.4512 382.347 12.9642 379.445 11.9936 376.544 11.5067 373.642 11.0198 370.163 10.5329 366.875 10.0491 360.881 9.07529 354.883 7.29416 349.469 4.86277 344.633 2.91829 339.606 1.78427 334.384 1.45757 331.291 1.29737 328.581 0.486905 325.488 0.163349 322.781 0 319.88 0 316.978 0Z" fill="#7093BA" fill-rule="evenodd" transform="matrix(-1 0 0 1 828 485)"/><path d="M1012.12 338C1011.65 338 1011.14 338.045 1010.61 338.136 1006.43 338.808 1001.76 343.661 998.582 346.172 992.233 350.856 986.723 356.043 980.876 361.065 971.024 369.6 958.494 378.469 954.486 391.688 952.482 397.881 953.486 402.568 949.309 408.424 943.63 415.956 937.45 422.817 930.437 429.176 924.59 434.7 918.245 439.553 911.899 444.74 904.715 450.596 898.702 456.454 890.184 459.968 886.176 461.642 882 463.818 877.826 465.158 873.818 466.663 869.807 466.663 865.967 467.834 861.124 468.84 856.947 471.516 853.943 475.364 849.264 481.391 846.26 488.752 842.248 495.279 837.742 503.145 832.73 510.675 827.051 517.704 814.858 532.263 798.991 543.144 781.119 548.999 772.601 551.341 764.251 554.021 756.067 557.365 747.882 560.882 741.536 566.906 732.85 568.246 732.312 567.542 731.597 567.24 730.891 567.24 729.421 567.24 728.003 568.554 728.343 570.254 728.508 570.922 728.508 571.59 728.677 572.427 729.01 573.264 729.677 573.936 730.512 574.101 738.195 576.278 745.043 581.3 752.894 582.471 755.361 582.883 757.828 583.025 760.289 583.025 765.828 583.025 771.342 582.302 776.778 582.302 777.124 582.296 777.471 582.292 777.814 582.292 786.248 582.292 793.814 584.222 801.999 586.153 809.846 587.992 817.866 587.992 825.882 588.66 836.592 589.27 847.244 590 857.909 590 864.869 590 871.833 589.689 878.827 588.829 887.678 587.658 896.53 586.153 905.385 585.481 909.976 585.147 914.654 585.063 919.329 585.063 924.007 585.063 928.682 585.147 933.277 585.147 952.149 585.147 970.855 584.978 989.727 584.978 994.629 584.978 999.602 584.832 1004.6 584.832 1007.1 584.832 1009.6 584.868 1012.11 584.978 1015.24 585.303 1018.36 585.488 1021.49 585.488 1023.21 585.488 1024.92 585.432 1026.64 585.316 1037.66 583.976 1038 574.604 1037.16 565.401 1035.49 550.17 1031.15 535.78 1026.81 521.221 1021.46 503.145 1021.13 484.904 1021.13 466.329 1021.29 447.585 1021.63 429.01 1021.63 410.432 1021.63 393.028 1021.96 375.958 1018.96 358.888 1018 353.801 1020.97 338 1012.12 338Z" fill="#F89097" fill-rule="evenodd"/><path d="M133.46 3.68555C133.47 3.68555 133.48 3.68725 133.491 3.68725L133.491 3.68725C133.509 3.68725 133.528 3.68555 133.547 3.68555ZM51.9831 0.00170076C51.1095 0.00170076 50.2341 0.0884395 49.4453 0.265318 48.6581 0.527235 47.7828 0.702414 46.9957 0.702414L46.8209 0.702414C46.295 0.702414 45.8574 0.702414 45.3332 0.615675 44.6326 0.615675 44.0202 0.527235 43.3195 0.527235 42.7953 0.527235 42.3577 0.615675 41.8318 0.615675 41.5705 0.615675 41.2194 0.790853 40.8699 0.790853 40.4322 0.879293 39.9064 0.966031 39.4687 1.05447L37.0191 1.05447 35.8808 1.14121 33.7806 1.14121C33.7009 1.15822 33.6229 1.16502 33.5482 1.16502 33.2157 1.16502 32.929 1.02216 32.644 0.879293 32.5813 0.816365 32.4761 0.755137 32.3573 0.755137 32.3081 0.755137 32.2572 0.765342 32.2064 0.790853 31.9434 0.790853 31.6805 0.966031 31.5939 1.14121 31.1563 1.66844 31.9434 2.10724 32.3811 2.28242 32.9053 2.54604 33.5177 2.72122 34.1318 2.72122L34.9189 2.72122 36.3185 2.63278C37.0191 2.63278 37.8062 2.54604 38.6815 2.54604 39.4687 2.54604 40.2575 2.4576 41.0446 2.28242 41.8318 2.19398 42.5324 2.10724 43.233 2.10724L43.4943 2.10724C43.8454 2.10724 44.1949 2.10724 44.6326 2.19398L47.1704 2.19398C47.6963 2.19398 48.2205 2.19398 48.7463 2.10724 49.0076 2.10724 49.2705 1.93206 49.4453 1.84362 50.0594 1.66844 50.6718 1.58001 51.2842 1.49327 52.246 1.49327 53.2096 1.49327 54.2597 1.40483L62.3109 1.40483C63.3609 1.40483 64.411 1.49327 65.4611 1.58001L65.724 1.58001C66.4229 1.66844 67.1236 1.84362 67.736 2.19398 68.3484 2.63278 68.9608 2.89639 69.7496 2.98483 70.1873 2.98483 70.625 3.07157 71.1491 3.16001 72.2874 3.33519 73.3375 3.51037 74.4758 3.51037L75.1747 3.51037C75.6124 3.51037 76.0501 3.42363 76.576 3.33519 77.0136 3.24845 77.4513 3.16001 77.8873 3.16001 78.4132 3.16001 78.8509 3.07157 79.2885 2.98483 79.7262 2.89639 80.0757 2.89639 80.4251 2.80965L81.4769 2.80965C82.0011 2.80965 82.527 2.72122 83.1394 2.63278 84.0147 2.54604 84.8019 2.4576 85.6772 2.4576L88.3898 2.4576C89.0022 2.54604 89.5281 2.63278 90.1405 2.80965 90.4899 2.89639 90.8394 2.98483 91.1905 2.98483 91.54 3.07157 91.8895 3.07157 92.1524 3.16001L92.4153 3.16001C92.7648 3.16001 93.116 3.24845 93.3772 3.24845L93.8149 3.33519C94.3408 3.42363 94.865 3.51037 95.3908 3.51037L101.691 3.51037C101.954 3.51037 102.129 3.59881 102.304 3.77399 102.655 4.0376 103.093 4.21278 103.442 4.30122L103.705 4.30122C104.054 4.30122 104.317 4.38796 104.58 4.4764L104.93 4.65158C105.193 4.82676 105.542 4.91519 105.805 5.00193 106.329 5.17711 106.855 5.17711 107.381 5.17711 108.343 5.17711 109.305 5.09037 110.268 4.82676L110.969 4.65158C111.493 4.56314 111.931 4.4764 112.457 4.38796 113.682 4.0376 114.995 3.86242 116.306 3.77399L118.408 3.77399C118.538 3.8182 118.691 3.84031 118.845 3.84031 118.998 3.84031 119.151 3.8182 119.281 3.77399L120.333 3.68555C120.857 3.59881 121.295 3.51037 121.819 3.42363L124.533 3.42363C125.058 3.42363 125.67 3.33519 126.196 3.16001 126.459 3.07157 126.72 2.98483 126.983 2.98483 127.596 2.80965 130.746 3.16001 130.396 1.75688 130.32 1.29768 129.745 1.15482 129.063 1.15482 128.181 1.15482 127.115 1.39462 126.72 1.49327 126.459 1.49327 126.108 1.66844 125.847 1.66844 125.321 1.84362 124.708 1.93206 124.182 2.0188L121.558 2.0188C121.12 2.0188 120.594 2.10724 120.157 2.19398 119.719 2.28242 119.37 2.28242 119.02 2.37086L116.306 2.37086C115.344 2.37086 114.469 2.4576 113.593 2.63278L111.668 3.07157C110.531 3.24845 109.481 3.51037 108.431 3.68555 108.08 3.77399 107.642 3.77399 107.293 3.77399 106.855 3.77399 106.329 3.68555 105.893 3.51037 105.805 3.51037 105.63 3.42363 105.456 3.33519 105.193 3.24845 105.018 3.16001 104.755 3.07157 104.492 2.98483 104.317 2.89639 104.054 2.89639L103.617 2.80965C103.442 2.72122 103.267 2.63278 103.093 2.54604 102.655 2.19398 102.217 2.0188 101.691 2.0188L95.3908 2.0188C94.865 2.0188 94.3408 1.93206 93.8149 1.84362 93.3772 1.75688 92.9412 1.75688 92.5036 1.66844 92.0659 1.66844 91.6282 1.58001 91.2771 1.49327L90.5781 1.40483C89.9657 1.22965 89.3516 1.05447 88.7392 1.05447 87.9521 0.966031 87.165 0.966031 86.3761 0.966031 85.326 0.966031 84.276 0.966031 83.2259 1.14121 82.4388 1.22965 81.5634 1.31809 80.6881 1.31809 80.1639 1.31809 79.7262 1.40483 79.2003 1.49327 78.8509 1.49327 78.5014 1.66844 78.1502 1.66844 77.2749 1.75688 76.4877 1.84362 75.6124 1.93206 75.2629 2.0188 74.8253 2.0188 74.4758 2.0188 73.8617 2.0188 73.3375 2.0188 72.8116 1.93206 72.4622 1.93206 72.0245 1.84362 71.675 1.75688 71.3239 1.66844 70.7115 1.58001 70.0991 1.58001 69.7496 1.49327 69.3985 1.49327 69.1372 1.40483 68.9608 1.31809 68.786 1.22965 68.6995 1.14121L68.3484 0.879293C67.6495 0.527235 66.9488 0.352057 66.2482 0.265318L65.8988 0.176879C65.0234 0.0884395 64.1481 0.00170076 63.2727 0.00170076ZM0.788831 0.176879C0.612404 0.176879 0.437674 0.265318 0.176427 0.265318 0 0.265318 0.176427 1.40483 0.262944 1.40483 0.458031 1.64804 0.787134 1.70246 1.11624 1.70246 1.38088 1.70246 1.64382 1.66844 1.83891 1.66844L2.01364 1.66844C2.53783 1.66844 3.06372 1.75688 3.58791 1.84362L4.55147 2.0188C5.51333 2.28242 6.38868 2.37086 7.35224 2.37086L8.92651 2.37086C9.71534 2.37086 10.589 2.4576 11.4643 2.63278 12.6026 2.89639 13.7409 3.07157 14.8775 3.07157L16.8029 3.07157C17.1541 3.16001 17.4153 3.24845 17.6783 3.33519 18.0278 3.42363 18.4654 3.51037 18.8166 3.59881 19.3408 3.68555 19.7784 3.77399 20.2161 3.94916 20.742 4.21278 21.2662 4.38796 21.8786 4.56314 22.374 4.62607 22.8693 4.68729 23.3647 4.68729 23.5699 4.68729 23.7752 4.67709 23.9788 4.65158L25.2918 4.65158C25.6429 4.74002 25.9924 4.74002 26.3419 4.82676L27.1307 5.00193C27.3919 5.00193 27.6549 5.09037 28.0043 5.09037 28.3555 5.09037 28.705 5.09037 29.0544 5.17711 29.9128 5.32168 30.8289 5.46454 31.7076 5.46454 31.9044 5.46454 32.1012 5.45774 32.2929 5.44073L41.7453 5.44073C42.1829 5.44073 42.6206 5.35399 43.0583 5.26555 44.2729 5.12269 45.5452 4.97982 46.7819 4.97982 47.0584 4.97982 47.3349 4.98663 47.6081 5.00193L52.1595 5.00193C52.9467 5.00193 53.7338 5.09037 54.5226 5.09037 55.3963 5.09037 56.2716 5.09037 57.147 4.91519 58.2853 4.65158 59.4219 4.56314 60.5602 4.4764 61.5237 4.4764 62.4856 4.65158 63.4474 4.91519 63.7104 5.00193 63.9733 5.09037 64.2363 5.17711L64.674 5.44073C65.0234 5.52917 65.2863 5.61591 65.6358 5.61591L66.0735 5.70435C66.9488 5.96796 67.8242 6.0547 68.6995 6.14314L69.4867 6.23158C70.0991 6.31832 70.625 6.31832 71.2374 6.40676 71.8498 6.40676 72.5504 6.4935 73.2493 6.58194 73.9499 6.66868 74.6505 6.66868 75.3495 6.66868L78.8509 6.66868C79.5515 6.66868 80.1639 6.66868 80.8628 6.58194 81.4769 6.4935 82.0893 6.31832 82.6135 6.14314 83.0512 6.0547 83.4888 5.87953 83.9265 5.79279 84.5678 5.66353 85.2548 5.58189 85.9198 5.58189 86.1641 5.58189 86.405 5.5938 86.6391 5.61591 88.3016 5.61591 89.8775 5.79279 91.4535 6.14314 91.9777 6.23158 92.5036 6.31832 93.0278 6.31832L93.2907 6.31832C93.6402 6.31832 94.0778 6.40676 94.5155 6.4935L94.865 6.58194C95.3908 6.66868 95.9167 6.75712 96.4409 6.75712L98.6293 6.75712C99.1535 6.75712 99.6794 6.84556 100.292 6.9323 100.729 7.02073 101.254 7.02073 101.691 7.02073L103.354 7.02073C104.143 7.02073 104.93 7.10747 105.717 7.19591 106.294 7.32517 106.87 7.40511 107.447 7.40511 107.658 7.40511 107.87 7.3949 108.08 7.37109L111.23 7.37109C111.41 7.3966 111.581 7.40851 111.749 7.40851 112.151 7.40851 112.523 7.34558 112.894 7.28435L113.419 7.19591C113.856 7.10747 114.294 7.02073 114.732 6.9323 115.256 6.9323 115.87 6.84556 116.394 6.66868 116.92 6.40676 117.444 6.31832 117.97 6.31832L118.231 6.31832C118.669 6.31832 119.195 6.23158 119.719 6.14314L120.245 5.96796C120.683 5.87953 121.12 5.79279 121.47 5.70435 121.907 5.70435 122.345 5.61591 122.783 5.61591L123.921 5.61591C125.058 5.61591 126.108 5.61591 127.158 5.70435L128.033 5.70435C128.734 5.70435 129.521 5.61591 130.222 5.44073 130.659 5.26555 131.097 5.26555 131.535 5.26555L132.496 5.26555C132.532 5.26555 132.671 5.26895 132.871 5.26895 133.665 5.26895 135.402 5.21283 135.122 4.65158 134.778 4.04611 134.178 3.69745 133.491 3.68725L133.491 3.68725C132.892 3.69235 132.213 3.77399 131.535 3.77399 131.009 3.77399 130.396 3.86242 129.784 4.0376 129.258 4.21278 128.646 4.30122 128.033 4.30122L126.897 4.30122C125.847 4.21278 124.795 4.21278 123.833 4.21278L123.046 4.21278C121.819 4.21278 120.683 4.38796 119.458 4.74002 119.02 4.82676 118.582 4.82676 118.057 4.91519 117.358 4.91519 116.744 5.00193 116.045 5.17711 115.432 5.44073 114.732 5.52917 113.944 5.61591 113.593 5.70435 113.156 5.79279 112.718 5.79279 112.194 5.87953 111.668 5.96796 111.056 5.96796L108.606 5.96796C107.556 5.96796 106.418 5.87953 105.367 5.70435 104.842 5.61591 104.406 5.61591 103.968 5.61591L101.605 5.61591C101.342 5.61591 100.992 5.52917 100.729 5.44073L99.9423 5.26555 96.8786 5.26555C96.6903 5.28936 96.5037 5.29957 96.3137 5.29957 95.7963 5.29957 95.267 5.21793 94.6902 5.09037 94.3408 4.91519 93.9031 4.91519 93.4654 4.91519L93.2025 4.91519C92.5036 4.91519 91.8029 4.82676 91.1905 4.65158 89.9657 4.38796 88.7392 4.21278 87.5144 4.12434L86.902 4.12434C85.9401 4.12434 84.9766 4.21278 84.0147 4.38796 83.4888 4.4764 82.9646 4.65158 82.4388 4.82676 81.8264 5.00193 81.214 5.09037 80.6015 5.17711 80.0757 5.26555 79.4632 5.26555 78.9374 5.26555L75.7006 5.26555C74.8253 5.26555 73.9499 5.26555 73.1628 5.17711 72.4622 5.00193 71.8498 5.00193 71.1491 5.00193 70.4485 4.91519 70.0991 4.91519 69.5749 4.82676 68.2619 4.65158 67.2118 4.56314 65.987 4.30122 65.6358 4.21278 65.1981 4.0376 64.7605 3.94916 64.3228 3.68555 63.8851 3.59881 63.4474 3.51037 62.584 3.29437 61.7205 3.1379 60.8553 3.1379 60.6704 3.1379 60.4838 3.1447 60.2972 3.16001 59.3353 3.16001 58.2853 3.24845 57.3217 3.51037 56.4464 3.68555 55.4845 3.77399 54.6091 3.77399L53.9967 3.77399 50.8465 3.68555C49.6217 3.68555 48.3952 3.59881 47.1704 3.51037L46.6462 3.51037C45.5961 3.51037 44.546 3.59881 43.4943 3.77399 42.7953 3.94916 42.0947 3.94916 41.4823 3.94916L38.9445 3.94916C37.6315 3.94916 36.3185 3.94916 35.0054 4.0376L32.3811 4.0376C30.8933 4.0376 29.4056 3.86242 28.0043 3.59881 27.2172 3.51037 26.5166 3.33519 25.7295 3.24845 25.38 3.24845 25.0679 3.20933 24.7438 3.20933 24.5827 3.20933 24.4164 3.21784 24.2417 3.24845L23.8922 3.24845C23.1916 3.24845 22.5792 3.16001 21.9668 3.07157 21.6174 2.98483 21.3544 2.80965 21.0033 2.63278L20.4791 2.4576C20.0414 2.28242 19.6919 2.19398 19.2543 2.19398L18.9913 2.19398C18.6419 2.10724 18.3789 2.0188 18.116 1.93206 17.853 1.84362 17.5036 1.75688 17.1541 1.66844 16.7164 1.66844 16.3653 1.58001 15.9276 1.58001L15.1405 1.58001C13.9157 1.58001 12.7774 1.49327 11.6408 1.22965 10.7654 0.966031 9.89007 0.879293 9.01472 0.879293L7.52697 0.879293C6.47689 0.879293 5.42682 0.702414 4.46326 0.527235L4.28853 0.527235C3.32666 0.352057 2.3631 0.176879 1.40123 0.176879ZM224.211 67.5593 223.948 67.6477 222.723 67.9981C221.936 68.2617 221.149 68.5253 220.36 68.6137 219.661 68.7889 218.873 68.7889 218.174 68.7889 217.561 68.7889 216.861 68.7889 216.248 68.7005L215.897 68.7005C215.285 68.5253 214.672 68.5253 214.06 68.5253 213.963 68.5083 213.865 68.5015 213.763 68.5015 213.313 68.5015 212.827 68.6444 212.397 68.7889 212.046 68.9641 211.697 69.0508 211.347 69.3145L210.91 69.4896C210.384 69.7532 209.86 69.8417 209.334 69.9284 208.635 70.0169 208.021 70.192 207.322 70.5424 206.709 70.7193 206.097 70.8945 205.396 70.9812L203.296 70.9812C202.945 70.9812 202.507 70.9812 202.158 71.0696L201.196 71.2448 179.404 71.2448C178.091 71.2448 176.78 71.3333 175.467 71.42L175.115 71.42C174.416 71.5084 173.628 71.5084 173.103 71.5084L170.74 71.5084C169.953 71.5084 169.164 71.42 168.465 71.3333 167.853 71.3333 167.327 71.2448 166.715 71.2448L162.601 71.2448C161.989 71.2448 161.376 71.1581 160.852 71.0696 160.414 70.9812 160.063 70.8945 159.714 70.806 159.539 70.806 159.276 70.806 159.101 70.7193 158.489 70.6308 157.963 70.3672 157.525 70.0169 157.001 69.7532 156.475 69.4896 155.951 69.3145 154.638 68.9641 153.325 68.7005 151.925 68.5253 151.725 68.5253 150.848 68.379 150.073 68.379 149.152 68.379 148.371 68.5848 149.036 69.4896 149.649 70.3672 152.975 70.0169 154.026 70.2805 154.638 70.3672 155.162 70.5424 155.776 70.7193 156.126 70.8945 156.475 71.0696 156.826 71.2448 157.001 71.3333 157.176 71.5084 157.351 71.5952 157.876 71.8588 158.489 72.034 159.188 72.1224 159.714 72.2108 160.24 72.2976 160.764 72.386 161.464 72.5612 162.163 72.6496 162.864 72.6496L166.715 72.6496C167.241 72.6496 167.677 72.7364 168.202 72.8248L168.728 72.9116C169.602 73 170.391 73 171.178 73L173.278 73C174.328 73 175.378 72.9116 176.342 72.8248L177.392 72.7364C178.091 72.7364 178.705 72.6496 179.404 72.6496L194.982 72.6496C196.47 72.6496 197.958 72.6496 199.532 72.7364L200.407 72.7364C200.758 72.7364 201.196 72.6496 201.545 72.6496 201.808 72.6496 202.07 72.5612 202.333 72.5612 202.596 72.4728 203.121 72.386 203.557 72.386L205.746 72.386C206.446 72.386 207.059 72.2108 207.759 71.9472 208.284 71.6836 208.896 71.5084 209.508 71.42 210.122 71.3333 210.735 71.2448 211.259 70.9812L212.046 70.6308C212.223 70.4557 212.484 70.3672 212.747 70.192 213.184 70.0169 213.622 69.9284 214.06 69.9284L214.409 69.9284C214.847 69.9284 215.285 70.1053 215.722 70.1053L216.423 70.192C216.947 70.2805 217.385 70.2805 217.911 70.2805L218.611 70.2805C219.923 70.2805 221.236 70.0169 222.549 69.5781 223.161 69.4029 223.862 69.2277 224.474 69.0508 224.562 69.0508 224.649 68.9641 224.737 68.8757 224.824 68.7889 224.912 68.7005 224.912 68.6137 224.998 68.4369 224.998 68.2617 224.912 68.0865L224.998 68.0865C224.998 67.9981 224.912 67.8229 224.824 67.7361 224.737 67.5593 224.562 67.5593 224.386 67.5593Z" fill="#B32B3F" fill-rule="evenodd" transform="matrix(-1 0 0 1 1031 466)"/><path d="M-100 359.003-100 552 445 552C445 552 400.012 495.969 350.609 495.969 339.816 495.969 328.812 498.644 318.02 505.159 294.766 519.2 277.859 526.222 262.416 526.222 237.891 526.222 217.058 508.511 180.365 473.09 163.355 456.588 147.809 450.499 133.425 450.499 92.9637 450.499 61.6574 498.653 32.675 498.653 29.851 498.653 27.0487 498.196 24.262 497.191-27.9679 478.143-62.7226 414.589-100 359.003Z" fill="#313752" fill-rule="evenodd"/><path d="M933.296 59.5811C933.755 58.7104 932.209 57.1508 931.43 58.0674 930.214 59.1022 929.127 60.2079 928.235 61.5856 927.475 63.0291 926.782 64.3428 926.15 65.8573 925.666 66.7764 927.242 67.6068 927.726 66.6878 928.072 66.0309 928.621 65.3114 928.967 64.6546 929.313 63.9977 929.589 63.4733 930.068 62.8862 930.89 61.6409 931.907 60.6676 932.985 59.8925 933.134 59.8081 933.233 59.7008 933.296 59.5811Z" fill="#B32B3F" fill-rule="evenodd"/><path d="M936.416 78.4136C936.503 78.2481 936.559 78.0691 936.585 77.901 936.476 77.5472 936.468 77.2471 936.431 76.8177L936.431 76.8177 936.483 76.5034C936.491 76.1728 936.631 75.908 936.636 75.576L937.189 74.5271C937.535 73.8702 937.288 73.0668 936.632 72.7207 936.369 72.5825 936.035 72.5754 935.634 72.6994L935.234 72.8235C935.164 72.9559 934.894 73.1483 934.824 73.2807 934.663 73.5116 934.518 73.7505 934.388 73.9975 933.972 74.7867 933.744 75.6327 933.828 76.4481 933.82 76.7787 933.884 76.9783 933.878 77.3103 934.001 77.7133 934.125 78.1137 934.381 78.5839 934.441 78.7847 934.703 78.9229 934.968 79.0624 935.231 79.2006 935.43 79.1366 935.632 79.074 936.013 78.956 936.265 78.7013 936.416 78.4136Z" fill="#B32B3F" fill-rule="evenodd"/><path d="M952.153 30.9723C952.608 30.1092 951.883 28.7807 950.651 29.1625 948.182 29.7058 945.838 30.6535 943.754 31.7379 942.545 32.4407 941.404 33.0137 940.388 33.9909 939.867 34.4548 939.441 35.0211 939.106 35.6576 938.832 36.177 938.619 36.7414 938.456 37.3352 937.971 38.8722 940.131 39.903 940.896 38.4518 940.918 38.4111 940.938 38.3665 940.959 38.3193L941.236 37.7948C941.375 37.5301 941.574 37.4686 941.712 37.2064 942.122 36.7492 942.46 36.423 942.868 35.9683 943.545 35.3198 944.425 34.6061 945.365 34.0958 947.379 33.1437 949.322 32.3201 951.396 31.5688 951.77 31.4532 952.015 31.2345 952.153 30.9723Z" fill="#B32B3F" fill-rule="evenodd"/><path d="M948.497 2.11733C948.705 1.72271 948.779 1.26088 948.857 0.797843 948.794 0.595692 948.803 0.265042 948.809-0.0669501 948.706-1.46454 948.403-2.79817 947.966-4.2029 947.966-4.2029 947.836-4.27133 947.766-4.13894 947.885-3.40653 947.931-2.54308 947.849-1.74671 947.904-1.21391 947.827-0.753416 947.549-0.226412L946.996 0.822505C946.927 0.954892 946.788 1.21712 946.851 1.41927 946.505 2.07612 946.353 3.00099 946.139 3.7276 946.061 4.19063 946.588 4.46834 946.926 4.14215 947.534 3.62349 948.081 2.90656 948.497 2.11733Z" fill="#B32B3F" fill-rule="evenodd"/><path d="M819.863 47.0742 819.863 47.0742C819.88 47.0812 819.897 47.0883 819.914 47.0953 819.893 47.0851 819.876 47.078 819.863 47.0742ZM816.781 59.0805C816.962 59.5141 817.431 59.8254 817.839 59.9935 818.19 60.0175 818.742 60.1258 819.091 60.1506 819.525 59.9697 819.959 59.7887 820.392 59.6077 820.681 59.4874 820.884 59.5708 821.317 59.3899 822.303 59.3172 823.313 58.8956 824.121 58.3904 824.553 58.2103 824.517 57.7161 824.396 57.4277 823.338 56.5147 822.026 56.2144 820.667 56.6112 820.088 56.8527 819.451 56.9503 818.875 57.191L818.789 57.3948C818.153 57.4923 817.49 57.9368 816.974 58.3227 816.686 58.4431 816.661 58.7921 816.781 59.0805ZM818.704 47.8844C818.766 48.0337 818.882 48.1797 819.062 48.2988 819.05 48.4743 819.073 48.6327 819.126 48.7597 819.178 48.8848 819.26 48.9785 819.363 49.0208 819.687 49.3947 820.158 49.7051 820.482 50.079 821.217 50.6201 822.034 50.9562 822.962 50.7395 823.022 50.8827 823.165 50.8229 823.251 50.6191 823.606 50.471 823.743 50.0679 823.599 49.7231 823.568 49.6484 823.524 49.5768 823.466 49.5112 823.019 48.8497 822.43 48.25 821.697 47.7081 821.346 47.6841 821.143 47.6007 820.734 47.4306 820.589 47.4912 820.385 47.4077 820.18 47.3232 820.034 47.3837 819.975 47.2405 819.975 47.2405 819.934 47.1437 819.831 47.073 819.827 47.0629L819.827 47.0629C819.826 47.0589 819.834 47.0624 819.863 47.0742L819.863 47.0742C819.675 46.9986 819.481 46.9374 819.217 47.0476 819.074 47.1074 818.929 47.168 818.783 47.2286 818.643 47.3914 818.603 47.6424 818.704 47.8844ZM827.988 23.3887C828.372 23.9058 828.698 24.2788 829.082 24.7959 829.408 25.1689 829.732 25.5428 830.286 25.6502 830.491 25.7328 830.634 25.6731 830.72 25.4693 831.008 25.3489 831.154 25.2883 831.236 25.0833 831.404 24.6746 831.429 24.3255 831.248 23.8919L830.405 21.871C829.959 21.2116 829.166 20.5244 828.443 20.8258 828.298 20.8864 828.155 20.9461 828.01 21.0067 827.865 21.0673 827.721 21.1271 827.637 21.3329 827.553 21.5359 827.469 21.7417 827.446 22.0898ZM833.009 32.9184C833.129 33.2068 833.436 33.3678 833.685 33.3848 834.815 33.2516 835.705 32.5415 836.184 31.6622 836.497 31.1928 836.605 30.6388 836.858 30.0263 837.086 29.7607 837.171 29.5569 837.339 29.1461 837.329 29.0152 837.303 28.9027 837.262 28.8039 837.15 28.5356 836.927 28.3802 836.628 28.256 836.483 28.3166 836.28 28.2332 836.22 28.0879 835.786 28.2689 835.558 28.5345 835.533 28.8835 835.39 28.9433 835.1 29.0645 835.017 29.2694 834.789 29.533 834.62 29.9417 834.391 30.2082 833.646 30.8577 833.164 31.7358 832.974 32.4948 832.942 32.6552 832.959 32.7974 833.009 32.9184ZM893.59 173.452C893.693 173.698 893.911 173.932 894.097 174.093 894.711 174.346 895.241 174.802 895.795 174.91 896.673 175.391 897.49 175.727 898.538 175.799 898.887 175.824 899.343 175.293 899.163 174.861 899.043 174.573 898.778 174.342 898.718 174.199L898.31 174.031 898.249 173.886 897.838 173.718C897.881 173.615 897.887 173.528 897.857 173.457 897.827 173.385 897.76 173.327 897.657 173.285 897.598 173.142 897.334 172.913 897.128 172.828 896.865 172.6 896.599 172.372 896.19 172.204 895.721 171.891 895.024 171.843 894.241 171.999 894.096 172.06 893.953 172.119 893.868 172.325 893.58 172.445 893.412 172.854 893.532 173.143 893.525 173.245 893.547 173.349 893.59 173.452ZM849.596 68.7738C849.747 69.1348 850.15 69.3906 850.654 69.1802 851.376 68.8789 852.098 68.5776 852.76 68.1331L853.049 68.0127C853.277 67.7471 853.65 67.421 854.083 67.24 854.227 67.1803 854.455 66.9167 854.54 66.7109 854.756 66.4621 854.774 66.1039 854.653 65.8134 854.518 65.4887 854.205 65.245 853.793 65.3294 853.155 65.4249 852.433 65.7262 851.772 66.1728 851.543 66.4363 851.315 66.7019 851.087 66.9655L850.919 67.3742C850.63 67.4946 850.342 67.6149 850.052 67.7361 849.547 67.9466 849.446 68.4128 849.596 68.7738ZM843.787 41.1657C844.029 41.7446 844.703 42.1002 845.202 42.3039 845.96 42.4968 846.718 42.6897 847.478 42.8818 848.03 42.9901 849.017 42.9166 849.329 42.4481 849.562 42.0947 849.602 41.7301 849.469 41.4114 849.425 41.3065 849.362 41.2052 849.28 41.1114 848.956 40.7376 848.485 40.4271 847.933 40.3188 847.524 40.1508 846.97 40.0413 846.621 40.0185 846.272 39.9936 845.718 39.8862 845.573 39.9468 845.37 39.8633 845.021 39.8385 844.876 39.8991 844.731 39.9597 844.527 39.8742 844.382 39.9348 844.034 39.912 843.745 40.0323 843.662 40.2353 843.722 40.3805 843.638 40.5863 843.638 40.5863L843.698 40.7295C843.699 40.8874 843.732 41.0326 843.787 41.1657ZM888.177 146.906C888.236 147.049 888.297 147.194 888.5 147.278 888.51 147.335 888.525 147.388 888.546 147.438 888.764 147.963 889.608 148.203 890.113 148.3 890.462 148.325 890.81 148.348 891.159 148.373 891.509 148.395 891.798 148.274 892.086 148.154 892.229 148.094 892.375 148.033 892.663 147.913 893.012 147.938 893.361 147.963 893.711 147.985 894.06 148.01 894.371 147.541 894.25 147.251 894.242 147.129 894.219 147.022 894.181 146.932 894.068 146.661 893.828 146.539 893.458 146.566 893.491 146.481 893.492 146.381 893.455 146.292 893.403 146.167 893.276 146.063 893.072 146.049 893.011 145.904 892.868 145.964 892.868 145.964L892.723 146.025C892.518 145.942 892.374 146.002 892.169 145.917 892.025 145.977 891.965 145.832 891.82 145.892L891.266 145.785C890.305 145.508 889.317 145.582 888.513 146.088 888.224 146.209 888.056 146.617 888.177 146.906ZM832.15 12.0255C832.185 12.1082 832.241 12.1865 832.325 12.2579 832.77 12.9202 833.492 12.6188 834.069 12.3781 834.791 12.0768 835.513 11.7755 836.174 11.3289 836.403 11.0654 836.691 10.945 836.919 10.6795 837.207 10.5591 837.437 10.2927 837.521 10.0897 837.748 9.82417 837.804 9.54776 837.714 9.33194 837.623 9.11414 837.387 8.95892 837.038 8.93408L836.979 8.79088C836.918 8.64566 836.775 8.70541 836.425 8.68341 836.281 8.74316 836.281 8.74316 836.136 8.80377L835.414 9.10509C834.983 9.2852 834.549 9.46616 834.115 9.64711 833.598 10.031 833.165 10.212 832.853 10.6805 832.417 11.0072 831.964 11.5797 832.15 12.0255ZM831.089-4.74809C831.213-4.45161 831.429-4.21739 831.617-4.05661 831.943-3.68358 832.352-3.51553 832.761-3.34747 832.822-3.20226 833.024-3.11884 833.23-3.03419 833.927-2.98651 834.447-3.37126 834.637-4.13022 834.602-4.62244 834.421-5.05606 834.24-5.48969L833.035-8.37584C832.854-8.80946 832.589-9.03728 832.265-9.41115 831.999-9.63898 831.651-9.6618 831.217-9.48085 830.929-9.36049 830.616-8.89111 830.593-8.54294 830.485-7.98895 830.581-7.35153 830.761-6.91992 830.714-6.22072 830.751-5.72935 830.993-5.1505 831.003-5.00578 831.038-4.87112 831.089-4.74809ZM895.36 144.796C895.395 144.881 895.448 144.958 895.526 145.025L895.706 145.457C895.971 145.687 896.236 145.915 896.67 145.734 897.45 145.577 898.137 144.783 898.063 143.796 898.055 143.179 897.967 142.595 897.723 142.01 897.634 141.796 897.523 141.582 897.388 141.366 897.124 141.137 896.798 140.764 896.45 140.742 895.813 140.837 895.294 141.224 895.392 141.86 895.367 142.209 895.344 142.558 895.465 142.846 895.295 143.258 895.332 143.749 895.307 144.098 895.292 144.346 895.275 144.592 895.36 144.796ZM846.856 4.1834C847.051 4.65131 847.418 5.0692 847.878 5.25842 848.347 5.57169 848.695 5.59453 849.514 5.93266 850.128 6.1833 851.091 6.46083 851.848 6.65173 852.463 6.90442 853.196 7.44632 853.942 6.79601 854.443 6.58728 854.654 5.98752 854.449 5.49539 854.418 5.42075 854.378 5.34749 854.325 5.27927 854.266 5.13606 854.145 4.84766 854.002 4.90741 853.676 4.53436 853.267 4.36632 852.858 4.19827 852.123 3.65718 851.16 3.37965 850.197 3.10414 849.849 3.0813 849.295 2.97385 848.863 3.15396 848.514 3.1291 848.369 3.18971 848.141 3.45528L848.081 3.31006C847.96 3.02165 847.552 2.85359 847.203 2.82875 846.914 2.94911 846.684 3.21552 846.721 3.70689 846.746 3.86725 846.791 4.02811 846.856 4.1834ZM845.834-11.0054C846.281-10.3439 846.727-9.68251 847.171-9.02225 847.617-8.36079 848.146-7.90434 848.676-7.44586 849.206-6.98938 850.193-7.06288 850.71-7.44679 851.166-7.97795 851.011-8.75856 850.769-9.33742 850.75-9.58267 850.681-9.84995 850.576-10.1021 850.469-10.3562 850.328-10.5931 850.167-10.7795 849.926-11.3583 849.335-11.9571 848.95-12.4762 848.421-12.9327 847.952-13.246 847.338-13.4966 846.868-13.8099 846.026-13.797 845.509-13.4131 845.281-13.1475 845.196-12.9437 845.172-12.5927ZM906.381 118.393C906.432 118.514 906.499 118.624 906.581 118.718 906.762 119.151 907.146 119.668 907.472 120.041 907.592 120.33 907.916 120.704 908.096 121.135 908.423 121.508 908.747 121.882 909.217 122.193 909.278 122.338 909.482 122.423 909.687 122.506L909.807 122.794C909.803 122.86 909.815 122.921 909.839 122.98 909.948 123.24 910.295 123.408 910.48 123.193 910.853 122.867 911.021 122.458 910.985 121.964 911.219 121.395 911.085 120.823 910.869 120.305 910.695 119.888 910.467 119.507 910.333 119.186 909.972 118.321 909.467 117.513 909.02 116.852 908.636 116.335 908.228 116.167 907.674 116.059 907.528 116.12 907.385 116.18 907.24 116.24 906.808 116.42 906.435 116.744 906.41 117.093 906.22 117.554 906.229 118.028 906.381 118.393ZM895.82 88.4657C895.94 88.7541 896.349 88.9222 896.783 88.7412 897.071 88.6209 897.359 88.5005 897.648 88.3801 897.793 88.3195 897.936 88.2598 897.936 88.2598L898.37 88.0788 900.246 87.2961C900.679 87.1151 901.195 86.7292 901.715 86.3444 902.086 85.9124 902.38 85.2878 902.153 84.7453 902.103 84.6243 902.025 84.5053 901.917 84.3961L902.061 84.3363C901.448 84.0828 900.726 84.3841 900.149 84.6248 899.631 85.0116 899.054 85.2523 898.68 85.5765L898.392 85.6968C898.021 86.0222 897.647 86.3463 897.334 86.8157 896.961 87.1419 896.59 87.4672 896.301 87.5876 895.868 87.7685 895.7 88.1773 895.82 88.4657ZM933.862 175.972C934.307 176.635 935.149 176.622 935.788 176.523 935.992 176.609 936.137 176.548 936.341 176.634 936.834 176.596 937.268 176.415 937.556 176.295 938.194 176.199 938.77 175.958 939.143 175.632 939.432 175.512 939.72 175.391 939.865 175.331 940.163 175.131 940.212 174.829 940.11 174.582 939.985 174.284 939.636 174.072 939.239 174.238 938.975 174.009 938.626 173.984 938.277 173.959 937.784 173.997 937.146 174.093 936.568 174.334 935.725 174.347 934.8 174.565 933.995 175.069 933.765 175.336 933.742 175.684 933.862 175.972ZM936.722 171.049C937.023 171.771 937.41 172.29 937.856 172.949 938.325 173.262 938.794 173.576 939.407 173.829L939.467 173.972C939.587 174.261 939.877 174.139 940.106 173.876 940.249 173.816 940.395 173.756 940.538 173.696 940.768 173.429 940.851 173.226 940.73 172.936 940.429 172.216 939.84 171.614 939.164 171.216L938.635 170.76C938.372 170.531 938.021 170.507 937.818 170.424 937.552 170.196 937.203 170.171 937.06 170.231 936.687 170.557 936.601 170.761 936.722 171.049ZM885.333 30.8759C885.426 31.0997 885.563 31.3031 885.767 31.4786 885.826 31.6218 886.091 31.8525 886.379 31.7321 886.584 31.8147 886.872 31.6944 886.958 31.4906 887.101 31.4308 887.246 31.3702 887.39 31.3105 887.908 30.9237 888.015 30.3697 888.124 29.8177 888.177 29.0328 888.075 28.2607 887.788 27.573 887.564 27.0345 887.226 26.548 886.762 26.1469 886.437 25.7759 886.088 25.7511 885.654 25.932 885.572 26.137 885.572 26.137 885.572 26.137 885.486 26.3408 885.341 26.4014 885.258 26.6064 885.03 26.8699 885.006 27.2209 884.983 27.5691 884.958 27.9181 885.139 28.3518 885.114 28.7008 885.169 29.4334 885.064 30.2325 885.333 30.8759ZM900.318 64.7261C900.764 65.3855 901.414 66.1324 902.232 66.4685 902.618 66.9847 903.291 67.3835 903.905 67.6341 904.313 67.8022 904.808 67.7664 905.241 67.5855 905.673 67.4054 906.131 66.8754 906.094 66.382 906.055 66.1874 906.002 66.0084 905.933 65.843 905.726 65.3488 905.383 64.9854 904.877 64.6873L904.817 64.5421C904.493 64.1702 904.167 63.7972 903.698 63.4839 903.289 63.3159 903.169 63.0274 902.64 62.571 902.11 62.1125 901.29 61.7772 900.631 62.2229 900.257 62.5471 899.943 63.0164 899.981 63.5098 900.017 64.004 900.137 64.2925 900.318 64.7261ZM917.726 106.441C917.992 106.669 918.195 106.752 918.483 106.632 918.544 106.777 918.604 106.92 918.81 107.005 919.013 107.09 919.159 107.03 919.243 106.824L919.532 106.704C919.82 106.583 919.903 106.378 920.048 106.318 920.216 105.909 920.301 105.705 920.469 105.296L920.409 105.151C920.552 105.091 920.637 104.886 920.865 104.622 921.033 104.213 921.058 103.864 921.02 103.371L921.166 103.31 920.985 102.877C921.213 102.613 921.441 102.348 921.67 102.084 921.804 101.929 921.798 101.716 921.716 101.52 921.658 101.381 921.563 101.25 921.453 101.156 921.393 101.013 921.248 101.074 920.899 101.049 920.779 100.76 920.227 100.652 919.853 100.976 919.48 101.302 919.167 101.772 919.059 102.326L918.976 102.529C918.891 102.734 918.951 102.878 918.808 102.937 918.784 103.288 918.555 103.552 918.53 103.901L918.159 104.226C918.074 104.43 917.989 104.636 917.846 104.696 917.701 104.756 917.617 104.959 917.617 104.959L917.738 105.25C917.57 105.658 917.545 106.007 917.726 106.441ZM854.761-39.8183C854.822-39.6711 854.959-39.5413 855.143-39.464 855.614-39.1536 856.106-39.1885 856.622-39.5744 856.767-39.635 856.913-39.6956 857.056-39.7554L857.201-39.816C857.838-39.9115 858.415-40.1522 858.728-40.6216 858.956-40.8872 859.39-41.0681 859.824-41.2491 860.28-41.7782 860.941-42.2247 861.338-42.8971 861.879-43.632 862.336-44.1611 862.732-44.8355 863.105-45.1596 863.07-45.6539 862.889-46.0875 862.503-46.6037 862.094-46.7718 861.6-46.736L861.745-46.7966C860.53-46.4576 859.376-45.9761 858.28-45.3506 857.33-44.7838 856.56-43.7853 856.2-42.6167 856.117-42.4137 856.092-42.0647 856.069-41.7165 855.924-41.6559 855.696-41.3904 855.551-41.3298 855.468-41.1268 855.322-41.0662 855.179-41.0065 854.951-40.7409 854.867-40.535 854.926-40.3919 854.722-40.2119 854.684-40.0019 854.761-39.8183ZM927.677 113.788C927.741 113.944 927.824 114.089 927.92 114.219 928.101 114.653 928.367 114.881 928.547 115.312 928.668 115.603 928.871 115.686 928.992 115.975 929.197 116.059 929.257 116.203 929.546 116.082L929.667 116.373C929.872 116.455 930.076 116.541 930.221 116.48 930.484 116.709 930.978 116.671 931.266 116.551 931.555 116.43 931.725 116.021 931.604 115.732 931.747 115.672 931.772 115.323 931.855 115.118 931.735 114.83 931.7 114.338 931.519 113.904L931.097 112.894C930.831 112.666 930.568 112.437 930.301 112.207 930.038 111.979 929.627 111.812 929.136 111.849 928.93 111.764 928.787 111.824 928.642 111.884 928.233 111.716 927.595 111.812 927.631 112.306 927.442 112.766 927.482 113.322 927.677 113.788ZM903.934 58.8222C904.024 59.038 904.253 59.186 904.562 59.0572 905.489 58.8385 906.354 58.4774 907.16 57.9732 907.966 57.466 908.508 56.7311 908.926 55.7086 909.012 55.5048 909.012 55.5048 909.096 55.299 909.107 55.1263 909.083 54.9659 909.031 54.8409 908.978 54.7138 908.896 54.6201 908.795 54.5769L908.856 54.7221C908.384 54.4097 907.725 54.8554 907.291 55.0364 906.858 55.2173 906.486 55.5406 906.052 55.7216 905.245 56.2287 904.646 56.8176 904.105 57.5526 904.019 57.7563 903.937 57.9613 904.057 58.2497 903.883 58.4005 903.856 58.6367 903.934 58.8222ZM856.949-54.3007C857.205-53.6875 857.843-53.1345 858.373-52.8464 859.168-52.1602 859.78-51.9086 860.515-51.3676 861.972-51.1278 863.259-50.4784 864.463-49.6241 865.075-49.3726 865.797-49.6739 866.05-50.2865 866.175-50.5943 866.164-50.9282 866.043-51.2166 865.923-51.505 865.694-51.748 865.387-51.8757L865.121-52.1036C865.121-52.1036 865.121-52.1036 864.978-52.0438L864.51-52.3551C864.04-52.6683 863.775-52.8961 863.305-53.2094 862.716-53.8111 861.981-54.3522 861.103-54.8335 860.489-55.0842 859.814-55.4821 859.202-55.7336 858.587-55.9862 857.77-56.3223 857.229-55.5874L857.084-55.5268C856.777-55.1314 856.78-54.704 856.949-54.3007ZM873.925-57.1509C874.129-56.6628 874.448-56.2089 874.913-55.8509L875.299-55.3327 876.203-53.1686C876.624-52.1581 877.395-51.1228 878.814-51.3764 879.657-51.3893 880.198-52.1243 880.042-52.9069 879.927-53.6524 879.736-54.3091 879.483-54.9142 879.304-55.3438 879.095-55.749 878.86-56.1412 878.416-56.8035 878.175-57.3803 877.934-57.9572 877.633-58.6792 877.186-59.3406 876.596-59.9424 875.741-60.7718 874.467-60.5788 873.841-59.6401 873.758-59.4351 873.673-59.2313 873.648-58.8823 873.611-58.3225 873.69-57.7136 873.925-57.1509ZM871.542-40.3778C871.844-39.6558 872.662-39.3176 873.384-39.6189 873.816-39.799 874.394-40.0406 874.85-40.5718 875.018-40.9805 875.331-41.4499 875.643-41.9184 875.727-42.1242 875.895-42.533 875.981-42.7368 876.063-42.9418 876.149-43.1456 876.292-43.2053L876.472-42.7737C876.943-42.4613 877.436-42.4962 877.929-42.534 878.712-42.69 879.516-43.1964 880.324-43.7014 880.755-43.8816 881.274-44.2683 881.79-44.6543 882.595-45.1585 883.197-45.7483 883.678-46.6284 883.767-46.8408 883.751-47.0545 883.674-47.238 883.53-47.5829 883.169-47.83 882.847-47.807 881.632-47.4679 880.621-47.0462 879.671-46.4813 878.66-46.0597 877.855-45.5534 877.111-44.9039L877.111-44.9039C877.133-45.2521 877.158-45.601 877.181-45.9492 877.172-46.0733 877.145-46.1898 877.101-46.2947 876.968-46.6133 876.682-46.8445 876.267-46.9248L876.41-46.9846C875.856-47.092 875.425-46.9119 875.052-46.5857 874.282-45.5872 873.453-44.7319 872.683-43.7334 872.37-43.2641 872.058-42.7955 871.806-42.1809 871.349-41.6518 871.302-40.9546 871.542-40.3778ZM904.648 15.415C904.891 15.9978 905.611 16.4105 906.343 16.6213 907.511 16.9814 908.762 17.1365 909.954 17.1485 910.568 17.3992 910.771 17.4846 911.529 17.6775 912.431 17.8078 913.54 18.0247 914.079 17.2906 914.38 16.9948 914.353 16.6246 914.202 16.2636 914.052 15.9046 913.778 15.5527 913.587 15.2937 913.055 14.8361 912.586 14.5249 911.974 14.2713 911.359 14.0187 910.805 13.9112 910.251 13.8038 909.902 13.7789 909.699 13.6955 909.411 13.8158 909.35 13.6706 909.205 13.7312 909.062 13.791 908.303 13.6009 907.46 13.6118 906.619 13.6239 905.92 13.577 904.646 13.77 904.573 14.8162 904.543 15.0326 904.571 15.2314 904.648 15.415ZM944.017 99.3749C944.104 99.5847 944.219 99.7737 944.323 99.9171 944.973 100.662 945.768 101.348 946.647 101.83 946.767 102.118 947.033 102.346 947.296 102.574 947.827 103.03 948.645 103.366 949.343 103.416 950.27 103.197 950.749 102.32 950.388 101.455 950.267 101.164 950.087 100.733 949.823 100.504 949.354 100.191 949.028 99.8177 948.619 99.6496 948.09 99.1931 947.355 98.652 946.537 98.3159 946.331 98.2313 946.128 98.1459 945.923 98.0633L945.659 97.8346C945.453 97.75 945.308 97.8106 945.105 97.7272 944.899 97.6425 944.611 97.7629 944.468 97.8226 943.734 98.129 943.786 98.8223 944.017 99.3749ZM893.54-37.7149C893.593-37.5878 893.675-37.494 893.777-37.4538 893.897-37.1653 894.103-37.0807 894.392-37.2011 894.595-37.1156 894.741-37.1762 894.884-37.236 895.029-37.2966 895.112-37.5016 895.196-37.7074L895.282-37.9112C895.425-37.9709 895.51-38.1767 895.593-38.3797 895.761-38.7885 895.785-39.1395 895.81-39.4885 895.858-40.1857 895.76-40.8223 895.459-41.5443 895.338-41.8327 895.135-41.9182 894.869-42.146L894.809-42.2892C894.485-42.6631 893.931-42.7705 893.557-42.4464 893.041-42.0604 892.788-41.4459 892.886-40.8093 892.922-40.315 892.959-39.8237 893.14-39.39 893.165-39.0406 893.19-38.6911 893.296-38.437 893.339-38.3321 893.399-38.2408 893.476-38.1758 893.464-38.0003 893.488-37.8399 893.54-37.7149ZM958.579 119.051C958.845 119.279 959.108 119.508 959.314 119.592L959.519 119.675C959.783 119.903 959.843 120.049 960.049 120.133 960.661 120.385 961.275 120.637 961.829 120.745 962.299 121.058 962.792 121.02 963.284 120.985 963.633 121.01 963.924 120.889 964.151 120.624 964.5 120.648 964.728 120.383 964.753 120.034 964.793 119.932 964.784 119.808 964.74 119.701 964.694 119.592 964.612 119.498 964.512 119.457L964.246 119.227C963.921 118.856 963.451 118.543 963.043 118.375 962.839 118.289 962.634 118.207 962.428 118.122L961.876 118.014C961.527 117.989 961.322 117.906 961.202 117.618 960.648 117.511 960.095 117.4 959.456 117.499 959.168 117.619 958.736 117.799 958.566 118.209 958.484 118.414 958.518 118.906 958.579 119.051ZM884.306-59.3208C884.414-59.0607 884.688-58.8529 885.007-58.8771 885.705-58.8294 886.342-58.9249 886.919-59.1656 887.558-59.262 888.278-59.5624 888.797-59.9492 889.541-60.5987 890.082-61.3336 890.503-62.357 891.049-63.1768 891.173-64.0785 890.819-64.9256 890.768-65.0486 890.705-65.1714 890.633-65.2909 889.574-66.2059 888.421-65.7245 887.674-65.0741 887.446-64.8086 887.217-64.545 886.989-64.2794 886.844-64.2188 886.701-64.1591 886.762-64.0139 886.471-63.8927 886.099-63.5693 885.872-63.3038 885.581-63.1826 885.498-62.9796 885.27-62.714 885.27-62.714 885.017-62.0995 885.017-62.0995 884.872-62.0388 884.872-62.0388 884.789-61.8359 884.704-61.6301 884.62-61.4271 884.536-61.2213 884.307-60.9577 884.285-60.6076 884.055-60.3432L884.295-59.7663C884.237-59.6214 884.247-59.462 884.306-59.3208ZM903.233-13.7166C903.304-13.5472 903.413-13.382 903.548-13.2277 903.872-12.8539 904.283-12.6866 904.692-12.5186 904.896-12.4331 905.244-12.4103 905.45-12.3257L905.798-12.3028C906.147-12.278 906.556-12.1099 906.964-11.9419 907.988-11.5211 908.951-11.2456 910.059-11.0287 910.757-10.981 911.538-11.1391 912.138-11.728 912.419-12.4063 912.458-13.1001 912.21-13.6951 912.159-13.8181 912.095-13.9361 912.017-14.0502 911.88-14.1899 911.739-14.3249 911.593-14.4535L911.593-14.4535C911.687-14.448 911.777-14.4594 911.836-14.4839 912.137-13.7618 913.017-13.2813 913.737-13.5818 913.882-13.6424 914.171-13.7628 914.05-14.0512 914.13-14.4562 914.131-14.8284 913.975-15.2035 913.918-15.3387 913.839-15.4763 913.736-15.6156 913.99-16.2282 913.977-17.0706 913.821-17.8532 913.71-18.3163 913.567-18.7631 913.386-19.1967 913.205-19.6303 912.987-20.0488 912.737-20.451 912.35-20.9692 911.508-20.9563 911.461-20.2571 911.377-20.0541 911.293-19.8483 911.207-19.6445 911.207-19.6445 911.064-19.5848 911.064-19.5848 910.63-19.4038 910.403-19.1382 910.378-18.7892 910.187-18.0323 910.14-17.3331 910.44-16.6131L911.207-14.7757C910.163-15.5878 908.923-16.1242 907.6-16.105 906.963-16.0075 906.181-15.8514 905.398-15.6953 905.11-15.5749 904.678-15.3948 904.305-15.0686 903.751-15.1761 903.319-14.9959 903.21-14.4411 903.112-14.2039 903.134-13.9546 903.233-13.7166ZM920.856-24.1423C921.07-23.628 921.476-23.1956 922.022-22.9712 922.228-22.8865 922.576-22.8637 922.721-22.9243 922.864-22.9841 922.864-22.9841 922.864-22.9841 923.213-22.9592 923.358-23.0198 923.502-23.0796 924.224-23.3809 924.211-24.2233 923.97-24.8001 924.02-25.4981 923.862-26.2799 923.765-26.9194L923.668-27.556C923.633-28.0482 923.512-28.3386 923.535-28.6868 923.559-29.0358 923.524-29.53 923.547-29.8782 923.529-30.1243 923.46-30.3915 923.354-30.6457 923.249-30.8978 923.107-31.1347 922.945-31.3203 922.68-31.5509 922.27-31.7181 921.981-31.5978 921.259-31.2964 921.069-30.5375 921.081-29.6971L921.057-29.3461 920.972-29.1423C920.949-28.7941 920.781-28.3853 920.613-27.9746 920.503-27.4218 920.602-26.7831 920.697-26.1457 920.674-25.7976 920.71-25.3033 920.687-24.9552 920.69-24.6747 920.749-24.3984 920.856-24.1423ZM914.43-49.2905C914.61-48.8589 915.018-48.6909 915.452-48.8718 915.884-49.0519 916.258-49.3761 916.426-49.7849 916.571-49.8455 916.571-49.8455 916.653-50.0504 916.967-50.5198 917.219-51.1344 917.122-51.771 917.29-52.1797 917.254-52.674 917.277-53.0222 917.241-53.5164 917.35-54.0684 917.314-54.5626 917.337-54.9107 917.156-55.3444 916.975-55.778L916.854-56.0664C916.795-56.2096 916.531-56.4383 916.325-56.5229 916.001-56.8968 915.362-56.7984 914.991-56.4751L914.931-56.6183C914.641-56.4971 914.352-56.3767 914.269-56.1738 914.101-55.765 914.077-55.414 914.052-55.0649L914.089-54.5736 914.004-54.3678C914.042-53.8744 913.933-53.3224 914.114-52.8888L914.235-52.6004C914.018-51.4916 914.151-50.3607 914.43-49.2905ZM950.841-20.4646C950.886-20.3577 950.937-20.2513 950.995-20.1475 951.381-19.6313 951.682-18.9092 952.069-18.391L952.55-17.2373C952.601-17.0193 952.672-16.798 952.762-16.5822 953.055-15.8803 953.554-15.2123 954.272-14.7351 954.68-14.567 955.257-14.8078 955.425-15.2165 955.763-16.0349 955.605-16.8167 955.304-17.5388 955.003-18.2608 954.558-18.9231 954.257-19.6451L954.136-19.9335 954.1-20.4249C954.064-20.9191 953.883-21.3528 953.846-21.8441 953.794-22.0641 953.727-22.2754 953.642-22.4791 953.369-23.1346 952.916-23.6917 952.245-24.0579 952.039-24.1426 951.751-24.0222 951.607-23.9624 950.638-22.9374 950.354-21.6304 950.841-20.4646ZM935.111-57.4997C935.187-57.3181 935.298-57.1538 935.431-57.0389 935.426-56.9775 935.438-56.916 935.461-56.8595 935.571-56.5953 935.953-56.4086 936.31-56.5576L939.052-57.7022 940.64-58.3646C941.795-58.8469 942.829-59.6167 943.454-60.5575 943.911-61.0866 944.019-61.6386 943.923-62.278 943.919-62.5036 943.87-62.7225 943.786-62.9242 943.554-63.4788 943.056-63.9175 942.501-64.0574L942.441-64.2006C941.538-64.3329 940.612-64.117 939.807-63.6107 939.146-63.1642 938.87-62.2035 938.269-61.6117 938.101-61.203 937.727-60.8788 937.293-60.6978 937.065-60.4323 936.837-60.1687 936.609-59.9031 935.947-59.4566 935.057-58.7465 935.01-58.0493 934.998-57.8738 935.036-57.6792 935.111-57.4997ZM975.899 0.136261C976.164 0.364075 976.49 0.737122 976.754 0.965759 976.899 0.905167 976.959 1.04836 977.163 1.13382L977.308 1.07321C977.657 1.09808 978.005 1.12091 978.354 1.14578 978.908 1.25323 979.545 1.15572 979.978 0.974762L980.124 0.914154C980.327 0.999603 980.473 0.938995 980.555 0.734039 980.7 0.673447 980.844 0.613678 980.989 0.553085 981.049 0.698288 981.193 0.638519 981.132 0.493317L981.566 0.312378C981.854 0.192017 982.083-0.0715485 981.902-0.505173 981.908-0.569397 981.898-0.626892 981.876-0.679321 981.78-0.911255 981.454-1.02658 981.169-1.0471 981.169-1.0471 981.024-0.986511 981.024-0.986511L980.326-1.03419 979.978-1.05704 979.569-1.22711C979.22-1.24995 978.81-1.41718 978.401-1.58522 977.559-1.57231 976.512-1.64487 976.031-0.766724 975.803-0.50116 975.778-0.152161 975.899 0.136261ZM976.157-9.23105C976.211-9.10397 976.282-8.98448 976.376-8.87711 976.618-8.29828 977.002-7.78119 977.471-7.46793 977.676-7.38533 977.737-7.24013 977.94-7.15668 978.326-6.63843 978.795-6.32718 979.204-6.15912 979.904-6.11026 980.3-6.78461 980.407-7.33858 980.432-7.68761 980.312-7.97601 980.131-8.40964 979.89-8.98647 979.564-9.35948 979.035-9.81595 978.914-10.1044 978.649-10.3322 978.445-10.4176 978.264-10.8513 977.998-11.0791 977.59-11.2471L977.65-11.1019C977.444-11.1865 977.096-11.2094 976.808-11.089 976.519-10.9687 976.145-10.6445 975.977-10.2357 976.005-9.88708 976.03-9.53761 976.157-9.23105ZM982.775 17.199C983.049 17.8545 983.859 18.0255 984.644 17.8401 985.569 17.6243 986.437 17.2624 987.241 16.7561 987.53 16.6357 987.615 16.4319 987.758 16.3722 987.988 16.1058 988.131 16.046 988.277 15.9854 988.649 15.6621 989.022 15.3359 989.395 15.0117 989.539 14.952 989.478 14.8068 989.563 14.601L989.708 14.5404C989.865 14.4747 989.89 14.2109 989.808 14.0153 989.741 13.854 989.601 13.7395 989.407 13.8203 989.262 13.881 989.262 13.881 989.117 13.9415 988.996 13.6511 988.648 13.6283 988.504 13.688 988.216 13.8084 987.926 13.9296 987.637 14.05 986.566 14.3264 985.496 14.6049 984.631 14.966L984.57 14.8207C983.705 15.1818 982.549 15.6641 982.682 16.7949 982.694 16.9465 982.726 17.08 982.775 17.199ZM968.86-33.7884C969.101-33.2116 969.488-32.6934 969.986-32.3095 970.313-31.9365 970.636-31.5646 971.023-31.0464 971.552-30.5899 972.142-29.9882 972.588-29.3268 973.298-28.4367 974.68-29.1837 974.198-30.3373L973.234-32.6487C972.632-34.0907 971.538-35.4979 970.045-36.2319 969.491-36.3394 968.769-36.0381 968.601-35.6293 968.523-35.0047 968.619-34.3653 968.86-33.7884ZM1001.65 29.9126C1001.66 29.959 1001.7 29.9946 1001.76 30.0193 1002.35 30.621 1002.88 31.0766 1003.49 31.3302 1003.76 31.558 1003.96 31.6434 1004.23 31.8712 1004.64 32.0393 1004.84 32.1219 1005.19 32.1467 1005.45 32.3754 1005.8 32.3994 1006.01 32.4828 1006.21 32.5675 1006.42 32.6509 1006.62 32.7355 1006.68 32.8807 1006.89 32.9642 1006.89 32.9642 1007.24 32.9882 1007.44 33.0716 1007.73 32.9513 1008.16 32.7703 1008.33 32.3615 1008.21 32.0731L1008.15 31.9279C1007.85 31.2079 1007.11 30.6668 1006.44 30.2681 1006.09 30.2452 1005.83 30.0174 1005.42 29.8494 1004.89 29.3909 1004.07 29.0556 1003.23 29.0677L1003.29 29.2129C1002.88 29.0437 1002.53 29.0208 1002.18 28.996 1001.89 29.1163 1001.75 29.1769 1001.66 29.3819 1001.65 29.6285 1001.6 29.8017 1001.65 29.9126ZM1008.91 44.0539C1008.94 44.1285 1008.99 44.1996 1009.06 44.2602 1009.12 44.4055 1009.32 44.4889 1009.32 44.4889L1009.38 44.6341C1009.5 44.9225 1009.56 45.0657 1009.91 45.0897 1011.16 45.2449 1012.5 45.1971 1013.8 44.6551 1013.94 44.5945 1014.03 44.3895 1014.05 44.0405 1014.05 44.0405 1014.13 43.8375 1014.07 43.6923 1014.01 43.5491 1013.81 43.4636 1013.6 43.379 1013.6 43.379 1013.46 43.4388 1013.46 43.4388 1012.11 42.647 1010.43 42.672 1009.05 43.4178 1008.88 43.6131 1008.82 43.8502 1008.91 44.0539ZM989.194-31.8497C989.31-31.5733 989.671-31.3713 989.984-31.5018 990.417-31.6827 990.849-31.8629 991.077-32.1284 991.222-32.189 991.367-32.2496 991.51-32.3094 992.027-32.6933 992.34-33.1647 992.508-33.5734L992.448-33.7166C992.736-33.837 993.025-33.9574 993.255-34.2238 994.145-34.9339 994.769-35.8718 995.333-36.9549 995.606-37.6181 995.787-38.6695 995.485-39.3936 995.321-39.7869 995.015-40.0831 994.502-40.1672 994.359-40.1074 994.213-40.0468 994.068-39.9862 993.805-40.2149 993.539-40.4427 993.251-40.3224 991.663-39.66 990.437-38.1323 989.969-36.4118 989.449-35.4158 988.423-33.9244 988.95-32.6618 988.996-32.5509 989.054-32.4402 989.128-32.3313L989.188-32.1881C989.141-32.0737 989.15-31.9566 989.194-31.8497Z" fill="#B32B3F" fill-rule="evenodd"/><path d="M155.686 21.4946C153.913 21.3269 153.725 23.8987 155.306 24.1543 155.41 24.1711 155.52 24.179 155.638 24.1732 155.783 24.0702 156.032 24.1105 156.156 24.1304L156.656 24.2113 157.632 24.4956C158.215 24.8479 158.819 25.072 159.568 25.1931 159.608 25.207 159.646 25.2157 159.685 25.222 160.449 25.3454 160.705 24.2186 159.893 23.9657L159.664 23.8022 159.541 23.7822C159.289 23.7416 159.186 23.596 159.081 23.4499 158.726 23.2661 158.518 22.9768 158.183 22.6673 157.517 22.0461 156.685 21.656 155.686 21.4946Z" fill="#B32B3F" fill-rule="evenodd"/><path d="M58.2315 64.8594C58.0647 64.8324 57.8952 64.8224 57.7229 64.8293 57.3283 64.892 56.9158 65.0808 56.5005 65.2716 55.5473 65.6285 54.8228 66.1513 54.2041 66.8178 53.8921 67.1518 53.8315 67.5265 53.8967 67.9215 53.8361 68.2962 54.0448 68.5854 54.3792 68.895 54.5416 69.0105 54.7665 69.1387 55.0227 69.1801 55.1291 69.1973 55.2402 69.2004 55.3577 69.1797 55.7499 69.1166 56.0415 68.9082 56.3307 68.6995L56.4947 68.468C56.7839 68.2593 57.2192 67.9452 57.5084 67.7365 57.7797 67.6538 58.0694 67.4427 58.3383 67.3596L58.464 67.38C58.5873 67.3999 58.7333 67.2945 58.8765 67.1912L59.0225 67.0858 59.1458 67.1057C59.5404 67.043 59.7267 66.6887 59.7873 66.314 59.8479 65.9393 59.6391 65.65 59.428 65.3604 59.0927 65.1177 58.6811 64.9321 58.2315 64.8594Z" fill="#B32B3F" fill-rule="evenodd"/><path d="M138.307-5.67554C138.32-5.86906 138.238-6.0693 138.154-6.26969 138.042-6.39887 137.937-6.63537 137.84-6.97532L137.84-6.97532 137.919-6.83884 137.8-7.12252C137.814-7.0715 137.827-7.02238 137.84-6.97532L137.84-6.97532 137.673-7.26812C137.683-7.40607 137.564-7.68975 137.574-7.82771L137.642-8.78763C137.661-9.06161 137.544-9.34517 137.425-9.62885 137.161-9.78606 136.897-9.94135 136.623-9.96061 136.349-9.97987 136.065-9.86307 135.917-9.73482L135.76-9.47053C135.614-9.34213 135.605-9.20609 135.586-8.93211 135.508-8.65066 135.456-8.36938 135.436-8.09538 135.409-7.70836 135.45-7.33385 135.587-7.0027L135.824-6.43342C135.941-6.14986 135.931-6.01383 136.06-5.86619 136.314-5.57294 136.569-5.2797 136.833-5.1225 137.098-4.96719 137.226-4.81955 137.51-4.93825 137.646-4.92869 137.784-4.91899 137.941-5.1833 138.077-5.17374 138.224-5.30006 138.234-5.43802 138.28-5.51567 138.301-5.59506 138.307-5.67554ZM130.064-18.6125C130.088-18.9478 129.929-19.2959 129.57-19.4135 129.041-19.726 128.472-19.4907 128.297-18.9523 127.663-17.7569 127.3-16.5424 127.077-15.3161 126.99-14.0822 126.904-12.8483 126.953-11.6048 127.181-10.8995 128.141-10.832 128.325-11.5084 128.363-12.0564 128.549-12.7326 128.588-13.2825 128.636-13.9665 128.665-14.3785 128.849-15.0548 129.064-16.1411 129.406-17.0817 129.895-18.1507 129.995-18.2823 130.052-18.4458 130.064-18.6125ZM128.498 45.5902C128.548 44.8851 127.625 44.1733 126.851 44.7486 125.385 46.0242 123.917 47.2977 122.703 48.8664 122.097 49.6518 121.618 50.5827 121.141 51.5119 120.969 51.9832 120.864 52.4918 120.828 53.0072 120.792 53.5207 120.824 54.039 120.929 54.5296 121.428 55.2541 122.536 55.1933 122.73 54.3809L122.759 53.9689 122.945 53.2927C122.974 52.8827 123.139 52.4803 123.306 52.0781 123.637 51.2753 124.098 50.6184 124.694 49.9709 125.612 48.6568 126.806 47.364 128.127 46.2168 128.371 46.0356 128.483 45.8125 128.498 45.5902ZM122.833-63.9802C122.846-64.1642 122.842-64.3493 122.819-64.5358 122.838-64.8098 122.867-65.2217 122.75-65.5053 122.622-65.651 122.503-65.9366 122.377-66.0822 121.896-67.0807 121.268-67.9527 120.502-68.8326L120.366-68.8422C120.737-68.2654 120.975-67.6961 121.201-66.9928 121.446-66.5616 121.417-66.1497 121.524-65.7282L121.485-65.1802C121.413-65.1159 121.374-65.0513 121.369-64.9823 121.364-64.9134 121.394-64.8419 121.456-64.7683L121.427-64.3582C121.527-63.8006 121.617-63.1049 121.714-62.5455 121.823-62.1258 122.381-62.2233 122.4-62.4973 122.636-62.9851 122.798-63.4782 122.833-63.9802ZM108.85 10.687C108.879 10.2751 108.763 9.9915 108.792 9.57957 108.566 8.8763 108.202 8.16141 107.683 7.71097 107.428 7.41772 107.29 7.40804 107.016 7.38878 106.384 7.34435 105.956 7.79176 105.922 8.27269 105.904 8.52368 105.994 8.78221 106.215 8.98642 106.343 9.13214 106.469 9.27966 106.598 9.4254L106.705 9.84689C106.833 9.99454 106.823 10.1306 106.804 10.4046L106.775 10.8165C106.756 11.0905 106.873 11.3741 106.854 11.648 106.982 11.7957 106.972 11.9336 107.11 11.9433 107.237 12.0889 107.365 12.2366 107.501 12.2461 107.913 12.2751 108.196 12.1564 108.354 11.8921 108.499 11.7637 108.509 11.6277 108.657 11.4994 108.666 11.3634 108.821 11.0989 108.831 10.961ZM103.776-43.3864C103.809-43.8616 103.812-44.3332 103.792-44.789 103.665-44.9365 103.527-44.9462 103.382-44.8178 103.157-43.5936 102.796-42.3789 102.307-41.31 101.81-40.1049 101.321-39.0379 100.832-37.969 100.811-37.932 100.8-37.8942 100.798-37.8578 100.782-37.6317 101.09-37.4387 101.225-37.666 101.675-38.1851 101.988-38.7157 102.446-39.3709 102.761-39.9014 102.935-40.4398 103.248-40.9686 103.563-41.7339 103.718-42.5645 103.776-43.3864ZM96.2322 41.2182C96.2515 40.9442 96.1347 40.6607 96.0064 40.513 96.016 40.377 95.8896 40.2294 95.7612 40.0837 95.6425 39.8 95.3783 39.6429 95.114 39.4856 94.9875 39.34 94.7213 39.1827 94.4568 39.0274 94.1925 38.8702 93.7806 38.8412 93.5066 38.822 93.3706 38.8124 93.2326 38.8027 93.0869 38.9311 92.9489 38.9214 92.811 38.9117 92.6654 39.0382 92.3721 39.293 92.2124 39.5937 92.1907 39.9021 92.169 40.2106 92.2853 40.5288 92.54 40.822 92.8045 40.9773 93.0688 41.1345 93.3428 41.1538 93.4807 41.1635 93.7547 41.1827 93.8926 41.1924 94.0287 41.202 94.0287 41.202 94.1666 41.2117 94.2931 41.3573 94.4311 41.367 94.5574 41.5145L94.5574 41.5145 94.4311 41.367 94.4311 41.367C94.5574 41.5145 94.6857 41.6621 94.9597 41.6814 95.0881 41.8271 95.0881 41.8271 95.2241 41.8367L95.0881 41.8271C95.6263 42.0036 96.0672 41.6206 96.2322 41.2182ZM93.7555 15.6895C93.7748 15.4155 93.5181 15.1222 93.2538 14.965 93.1178 14.9554 92.9798 14.9457 92.7058 14.9265L91.8936 14.7307 90.2573 14.479C89.9833 14.4598 89.6997 14.5766 89.5521 14.7048 89.2684 14.8235 89.2492 15.0975 89.0919 15.3618 89.2106 15.6455 89.1914 15.9195 89.4557 16.0767 89.5744 16.3604 89.8484 16.3796 90.1224 16.3989L91.7875 16.2406 92.6191 16.1604C92.8834 16.3176 93.0214 16.3273 93.1671 16.1989 93.4411 16.2181 93.7363 15.9635 93.7555 15.6895ZM86.8275 47.5853C86.9237 46.2153 84.8679 46.0708 84.7716 47.4408L84.7565 51.5737C84.7275 51.9856 84.9823 52.2789 85.3942 52.3078 85.8611 52.46 86.2554 52.1912 86.2799 51.8425 86.2835 51.7908 86.2798 51.7347 86.2644 51.6797L86.8275 47.5853ZM98.4626-79.7873C98.4791-80.023 98.3851-80.2742 98.1691-80.4607 98.0311-80.4704 97.9048-80.6179 97.7668-80.6276L97.7764-80.7636C97.6886-81.4591 97.3248-82.174 96.9418-82.6149 96.0686-83.9163 95.0498-85.0912 93.8832-86.1359 92.9749-86.7735 92.0301-85.9599 91.9693-85.0939 91.9422-84.7088 92.0896-84.3133 92.4951-84.0288 92.6216-83.8832 92.7499-83.7355 93.0239-83.7163L93.1407-83.4327C93.407-83.2773 93.6616-82.9821 93.7784-82.6986 94.2898-82.112 94.6613-81.5352 95.1803-81.0847L95.5633-80.6438 95.6917-80.4981 95.9272-79.9309C96.1818-79.6357 96.3005-79.352 96.5649-79.1967 96.8292-79.0395 96.9652-79.03 97.1032-79.0203L97.2411-79.0106C97.3772-79.001 97.6512-78.9818 97.7988-79.11 98.2029-79.1606 98.4395-79.4597 98.4626-79.7873ZM86.0718 6.88159C86.0791 6.77812 86.0519 6.67224 85.9876 6.60031 85.5949 6.29739 85.2139 5.85664 84.8309 5.41574L84.7122 5.13206C84.7219 4.99411 84.6051 4.71056 84.6146 4.57452 84.6339 4.30054 84.5056 4.15289 84.2413 3.99568 84.1034 3.98598 83.8294 3.96674 83.5554 3.94748 83.4097 4.07587 83.262 4.20413 83.1067 4.46855 83.0329 4.5327 82.9913 4.63182 82.9828 4.75252 82.9745 4.87132 82.9993 5.0117 83.0585 5.1545 83.294 5.72173 83.6751 6.16248 84.0678 6.46541 84.5965 6.77791 84.9989 6.9429 85.3915 7.24776 85.6654 7.26701 85.8015 7.27657 85.9491 7.14832 86.0229 7.08417 86.0646 6.98505 86.0718 6.88159ZM84.2188 35.6893C84.2477 35.2773 84.2765 34.8673 84.0315 34.4361 83.9225 34.0145 83.5317 33.7117 83.1295 33.5448 82.7175 33.5158 82.3075 33.487 81.8762 33.734 81.4547 33.8411 81.2897 34.2434 81.1228 34.6457 80.9387 35.3201 80.6146 35.9867 80.2924 36.6534L80.4496 36.3891 80.4496 36.3891C80.1371 36.9178 79.813 37.5844 79.4908 38.251 79.3452 38.3775 79.3258 38.6534 79.1686 38.9177L79.1011 39.8776C79.2198 40.1613 79.2103 40.2973 79.3269 40.5828 79.7004 41.1597 80.5242 41.2176 80.9632 40.8345L81.2468 40.7177C81.4041 40.4515 81.5594 40.1871 81.7166 39.9228L81.8835 39.5205C82.0484 39.1201 82.3416 38.8653 82.6445 38.4726 83.3882 37.6989 83.8676 36.7679 84.2188 35.6893ZM73.8681 75.3814C73.9839 73.7337 71.2165 73.5758 71.0955 75.2983 71.0928 75.3366 71.0919 75.3769 71.0929 75.4174 71.0255 76.3774 71.094 77.3469 71.0266 78.3068L71.401 80.815C71.3335 81.7749 72.8433 81.8811 72.9108 80.9211L73.4944 78.4802C73.6998 77.53 73.7673 76.57 73.8347 75.6101 73.8517 75.5324 73.8629 75.4561 73.8681 75.3814ZM73.9439 42.6845C74.0605 41.0253 71.6696 41.0999 71.5659 42.5752 71.5581 42.6863 71.5631 42.806 71.5833 42.9307L71.6923 43.3523 71.6538 43.9003C71.4964 44.1665 71.4772 44.4405 71.3219 44.7049 71.1454 45.2432 70.9593 45.9195 70.911 46.6054 70.8533 47.4274 72.0794 47.6521 72.2829 46.7018L72.2829 46.7018 72.1373 46.8283 72.1661 46.4182C72.3119 46.2899 72.3311 46.0159 72.4788 45.8876 72.6341 45.6232 72.9273 45.3684 73.0845 45.1042 73.6807 44.4567 73.8861 43.5065 73.9439 42.6845ZM83.1228-60.3956C83.1465-60.7328 83.0197-61.0922 82.7657-61.2872 82.237-61.5997 81.6698-61.3642 81.3649-60.9716 80.4467-59.6595 79.7926-58.1882 78.882-57.0121 78.7267-56.7477 78.4432-56.6309 78.2858-56.3647 77.9926-56.11 77.8354-55.8457 77.5421-55.591 77.0936-55.0718 76.9074-54.3956 76.8592-53.7096 76.8504-53.666 76.8455-53.6239 76.8427-53.5837 76.7739-52.6046 78.2893-52.4134 78.4954-53.456L78.4954-53.456 78.3574-53.4657C78.5148-53.7319 78.6604-53.8584 78.8176-54.1227L78.9729-54.3871 79.1302-54.6533C79.5807-55.1724 80.0196-55.5555 80.4701-56.0745 81.3807-57.2505 82.0346-58.7199 82.9433-59.8961 83.0513-60.0348 83.1099-60.2117 83.1228-60.3956ZM75.7382 2.19086C75.7452 2.09123 75.7352 1.98654 75.708 1.88066 75.6008 1.46107 75.3462 1.16591 74.9343 1.13696L74.7963 1.12727 74.5223 1.10802C74.3863 1.09845 74.1104 1.07907 73.9743 1.0695 73.9743 1.0695 73.9743 1.0695 73.8364 1.05981 73.7003 1.05025 73.5624 1.04056 73.5624 1.04056 73.4264 1.03099 73.298 0.885269 73.1619 0.875717 72.886 0.856323 72.7597 0.708801 72.6217 0.699112L72.4953 0.553528C72.093 0.386612 71.8286 0.231323 71.5643 0.0741272 71.1716-0.228836 70.8976-0.248077 70.6141-0.131287 70.3401-0.150543 70.0448 0.105972 69.8895 0.370407 69.7782 0.557053 69.6688 0.74382 69.6552 0.937332 69.6495 1.01781 69.6592 1.09937 69.6938 1.18266 69.6745 1.45665 69.9292 1.74989 70.1858 2.0452 70.8505 2.36726 71.6552 2.69913 72.4579 3.0309 72.8602 3.19588 73.2625 3.36278 73.6725 3.3916 73.9562 3.2729 74.2321 3.29228 74.5254 3.03755L74.5157 3.17551C74.7993 3.05681 75.0829 2.94002 75.2208 2.94971 75.5439 2.76447 75.7169 2.49358 75.7382 2.19086ZM75.1463 10.3672C75.1619 10.1449 75.0772 9.89828 74.8847 9.67873 74.4921 9.37387 73.9441 9.33536 73.6508 9.59201 73.5033 9.71835 73.3672 9.70879 73.3575 9.84674L73.21 9.9731C72.9263 10.0918 72.6428 10.2086 72.497 10.337 72.0658 10.582 71.5082 10.6815 71.077 10.9265 70.5194 11.024 70.0881 11.271 69.6569 11.516 69.2257 11.7611 68.7867 12.1442 68.4742 12.6729 68.419 12.7191 68.3934 12.7828 68.3886 12.8498 68.3671 13.1564 68.7858 13.5824 69.2577 13.2787L69.248 13.4166C69.5317 13.2979 69.6793 13.1696 69.9629 13.0529L70.1086 12.9245 70.5301 12.8174 71.2353 12.5916 71.5093 12.6109 71.793 12.4922C72.9198 12.1574 73.9182 11.6768 74.798 10.9126 75.0146 10.7892 75.1305 10.5913 75.1463 10.3672ZM75.1356-89.2151C75.146-89.3627 75.141-89.5113 75.1131-89.6615 75.0059-90.0811 74.8969-90.5027 74.6421-90.796 74.1423-91.5204 73.6426-92.2449 72.9855-92.7031 72.7309-92.9983 72.3189-93.0272 71.8973-92.9182 71.3513-92.8487 70.9502-92.4283 70.9136-91.9071 70.9037-91.7673 70.9202-91.6179 70.9693-91.4681 71.0764-91.0466 71.1951-90.7629 71.4594-90.6057L71.5878-90.4599C71.9786-90.1571 72.2333-89.8639 72.4898-89.5686 72.6163-89.423 72.735-89.1393 72.7158-88.8653L72.7061-88.7274C72.8324-88.5799 72.9704-88.5702 72.9608-88.4341L73.0872-88.2866 73.0776-88.1506C73.3342-87.8572 73.5888-87.562 74.0086-87.6712 74.2845-87.6518 74.5681-87.7705 74.7234-88.0349 74.9528-88.4212 75.1075-88.8147 75.1356-89.2151ZM68.4328 35.2096C68.4378 35.1387 68.4333 35.0652 68.4211 34.9931 68.1857 34.424 67.6646 33.9753 67.1071 34.0728 65.8539 34.2601 64.5814 34.7233 63.554 35.6157 62.8006 36.5275 62.0472 37.4392 61.4222 38.4966 61.3839 38.5767 61.3627 38.658 61.3574 38.7347 61.3179 39.2961 62.0912 39.7182 62.6079 39.2693L62.5982 39.4072C63.0488 38.8863 63.4896 38.5052 63.9286 38.1221 64.3694 37.7391 64.5266 37.4748 64.9656 37.0916L65.2589 36.8369C65.4064 36.7106 65.5443 36.7203 65.828 36.6016 65.828 36.6016 65.9736 36.4751 65.9736 36.4751 66.1116 36.4848 66.2476 36.4943 66.5313 36.3756 66.6789 36.2474 67.2269 36.2859 67.5105 36.1691 67.9959 36.0838 68.3997 35.6809 68.4328 35.2096ZM58.8876 93.4967C58.8949 93.3933 58.8704 93.276 58.8209 93.159 58.5758 92.7278 58.3211 92.4345 58.0664 92.1413L57.4382 91.2711 56.0364 89.6553C55.5412 89.0853 54.7212 89.5744 54.6797 90.1646 54.6677 90.3351 54.7189 90.512 54.8614 90.676L56.2633 92.2899C56.518 92.5832 56.7843 92.7405 57.039 93.0337 57.2937 93.327 57.5485 93.6202 57.9411 93.9232 58.2054 94.0804 58.4891 93.9617 58.6366 93.8353 58.8013 93.766 58.8774 93.6424 58.8876 93.4967ZM48.0578 136.5 48.0578 136.5C47.971 136.447 47.8976 136.396 47.8334 136.351L47.8334 136.351C47.8844 136.364 47.9743 136.401 48.0578 136.5ZM49.343 137.83C49.3816 137.28 49.1365 136.851 48.5982 136.674L48.3223 136.655C48.2065 136.522 47.974 136.378 47.8298 136.347L47.8298 136.347C47.707 136.259 47.6193 136.192 47.5293 136.185 47.4125 135.902 47.1461 135.746 47.0294 135.463 46.5393 134.6 46.0471 133.74 45.695 132.887 45.4576 132.32 44.6549 131.988 44.078 132.361 43.6992 132.518 43.4259 132.928 43.396 133.353 43.3809 133.568 43.4253 133.785 43.5504 133.978 43.7666 134.82 44.1303 135.534 44.4941 136.249 44.9843 137.11 45.6124 137.98 46.4055 138.45 46.7982 138.753 47.2004 138.92 47.6104 138.948 47.8844 138.968 48.3061 138.859 48.5896 138.742L48.4536 138.732C49.0112 138.633 49.3142 138.24 49.343 137.83ZM42.6403 182.712C42.656 182.489 42.5669 182.277 42.3716 182.125L41.6266 180.971C41.2436 180.53 40.9889 180.237 40.6059 179.796L38.8305 177.605C38.4495 177.164 37.7635 177.116 37.3226 177.499 37.1032 177.69 36.9805 177.957 36.9613 178.231 36.942 178.505 37.0262 178.786 37.2167 179.007L39.13 181.208C39.3847 181.501 39.7658 181.942 40.0205 182.235L41.051 183.272C41.4436 183.575 41.9916 183.613 42.4228 183.368L42.2849 183.359C42.5043 183.168 42.6246 182.936 42.6403 182.712ZM53.5629-15.6512C53.5692-15.7413 53.5605-15.8362 53.5349-15.9382 53.3187-16.7794 52.955-17.4943 52.4552-18.2187L51.827-19.0889C51.7083-19.3726 51.5915-19.6561 51.3272-19.8133L51.199-19.961C51.0803-20.2446 50.9635-20.5282 50.7088-20.8214L50.728-21.0954 50.4925-21.6627 50.5504-22.4865C50.5007-22.7654 50.4855-23.0418 50.5047-23.3158 50.524-23.5898 50.5779-23.8633 50.6661-24.1324 50.7142-24.8164 50.0764-25.5505 49.2525-25.6084 48.4306-25.6662 47.8344-25.0188 47.7863-24.3348 47.7012-23.946 47.647-23.557 47.6196-23.1681 47.5133-21.6544 47.8282-20.1632 48.5065-18.9102 49.0063-18.1857 49.508-17.4611 50.1554-16.865L51.0671-16.1116C51.3121-15.6804 51.7029-15.3776 52.0956-15.0746 52.6737-14.6701 53.5167-14.994 53.5629-15.6512ZM55.5581-62.3732C55.5966-62.9211 55.3611-63.4884 55.1142-63.9197 54.7427-64.4965 54.3692-65.0734 53.9862-65.5143 53.3677-66.5224 52.6035-67.4022 51.9755-68.2742 51.5944-68.715 51.1825-68.7439 50.7416-68.361 50.5959-68.2326 50.5125-68.0324 50.4981-67.8274 50.4835-67.6205 50.5381-67.4106 50.6644-67.2631 51.4306-66.3832 52.2043-65.6395 52.8325-64.7693 53.0871-64.4742 53.2136-64.3286 53.4702-64.0352L53.725-63.742 53.8513-63.5945C54.0963-63.1633 54.2055-62.7435 54.4505-62.3123 54.686-61.7451 55.3815-61.8329 55.5581-62.3732ZM52.168-37.6688C52.0396-37.8145 51.923-38.1 51.7946-38.2457 51.6683-38.3933 51.6778-38.5293 51.5496-38.6769L50.9214-39.5471 50.9214-39.5471 51.0401-39.2634 51.0401-39.2634C50.9214-39.5471 50.795-39.6946 50.6667-39.8404L50.4119-40.1336 50.1669-40.5648C50.0386-40.7124 50.0482-40.8485 49.9218-40.996L49.9508-41.4079C50.0086-42.2299 49.3611-42.8261 48.6752-42.8743 47.8532-42.9321 47.2648-42.4227 47.2071-41.6007 47.1202-40.3649 47.5834-39.0924 48.4856-38.2029 48.8666-37.7622 49.2593-37.4592 49.7881-37.1467L50.3071-36.6963 50.5734-36.5409C50.6998-36.3934 50.9738-36.3741 51.2477-36.3548 51.6597-36.3259 52.1006-36.7089 52.1295-37.1208ZM50.6679-131.454C50.6688-131.468 50.6525-131.509 50.6341-131.549L50.6294-131.482C50.658-131.451 50.6672-131.445 50.6679-131.454ZM50.639-131.618C50.6122-131.649 50.6031-131.655 50.6024-131.646 50.6014-131.632 50.6178-131.591 50.6341-131.549ZM40.5354 23.9375C40.545 23.8015 40.5642 23.5275 40.2999 23.3703 40.1812 23.0866 39.9169 22.9294 39.7693 23.0577 39.505 22.9005 39.2213 23.0191 39.066 23.2836 38.7804 23.4021 38.7611 23.6761 38.7516 23.8122L38.607 25.87 38.7257 26.1537C38.7161 26.2897 38.8444 26.4373 38.9707 26.5848 38.9707 26.5848 39.2351 26.7401 39.3731 26.7498 39.5091 26.7594 39.785 26.7788 39.9306 26.6523 40.0783 26.524 40.224 26.3956 40.3715 26.2693ZM56.2991-126.374C56.3135-126.579 56.2513-126.789 56.0998-126.964 55.8451-127.257 55.7186-127.402 55.4524-127.56 55.1881-127.717 54.9237-127.872 54.7974-128.02L53.8855-128.771 53.6193-128.929 53.493-129.076 52.9642-129.389 52.0525-130.142 51.6598-130.445 51.5314-130.591C51.2767-130.884 51.0124-131.041 50.886-131.189L50.6294-131.482C50.3603-131.899 49.9324-132.112 49.5008-132.108L49.5008-132.108 49.5816-132.245 49.5912-132.381 49.7465-132.645 49.7562-132.783 49.9134-133.048 50.061-133.176C50.2066-133.302 50.3543-133.431 50.3639-133.567 50.4999-133.557 50.6378-133.547 50.6475-133.685L50.9215-133.666C51.069-133.792 51.343-133.773 51.4791-133.764 51.4791-133.764 51.4791-133.764 51.617-133.754 51.6267-133.892 51.7627-133.882 51.9007-133.873 52.1842-133.989 52.3416-134.256 52.3608-134.53 52.3897-134.94 52.2711-135.225 51.8592-135.254 51.8687-135.39 51.7327-135.4 51.5947-135.41 51.4587-135.419 51.1847-135.438 50.9088-135.458 50.6348-135.477 50.3512-135.36 50.2055-135.232 49.6459-135.132 49.3527-134.878 48.9119-134.497 48.6185-134.24 48.3157-133.849 48.0033-133.321 47.9936-133.183 47.8363-132.918 47.8267-132.78L47.8074-132.506C47.7881-132.232 47.7689-131.958 47.8876-131.675 47.8697-131.42 48.0894-131.148 48.3399-131.096L48.3399-131.096C48.336-131.069 48.3322-131.043 48.3304-131.016 48.3153-130.801 48.3616-130.584 48.4868-130.393 49.1148-129.52 49.8791-128.641 50.8005-128.025 51.3195-127.575 51.7122-127.272 52.2312-126.821 52.7618-126.509 53.2906-126.196 53.9573-125.874 54.0933-125.865 54.3576-125.707 54.6238-125.55 55.0338-125.521 55.4458-125.492 55.7294-125.611 56.0726-125.754 56.2769-126.058 56.2991-126.374ZM37.0661 63.99C37.0801 63.7907 37.0827 63.5887 37.0741 63.3821 37.1223 62.6962 36.4654 62.236 35.9174 62.1975 35.6434 62.1783 35.3597 62.297 35.2025 62.5613 34.9093 62.816 34.8803 63.228 34.861 63.502L34.7551 65.0098C34.5979 65.2741 34.4521 65.4025 34.3046 65.5289 34.1396 65.9313 33.8445 66.1859 33.5415 66.5786 33.396 66.705 33.3766 66.9809 33.2194 67.2452 33.0738 67.3717 33.0641 67.5097 33.0545 67.6457 32.9758 67.7788 32.9341 67.8798 32.9269 67.9814 32.9197 68.0849 32.9469 68.1907 33.0063 68.3316 32.9774 68.7436 33.5061 69.0561 33.9373 68.811L33.9276 68.949C34.0733 68.8206 34.221 68.6923 34.3666 68.5658L34.6695 68.1732 34.6791 68.0371 34.9743 67.7806C35.2676 67.5259 35.7064 67.1447 36.0113 66.7521 36.6465 65.8783 36.9962 64.9844 37.0661 63.99ZM36.8727 45.178C36.8896 44.9385 36.8031 44.6898 36.6124 44.4704 36.3558 44.177 35.8078 44.1385 35.3766 44.3836 34.6444 45.0214 33.92 45.5212 33.3238 46.1686 32.8829 46.5516 32.5801 46.9424 32.2772 47.3351 32.2579 47.6091 32.1007 47.8734 31.9435 48.1377L31.9048 48.6876C32.0332 48.8333 32.0235 48.9713 32.014 49.1073 32.0845 50.0769 33.464 50.0372 33.5314 49.0772L33.5411 48.9393C33.5507 48.8032 33.6983 48.675 33.7079 48.5389L33.7176 48.401 33.8729 48.1366 34.0301 47.8723C34.1854 47.6078 34.333 47.4796 34.4807 47.3513 35.0672 46.8418 35.9276 46.3516 36.516 45.8423 36.7356 45.6498 36.8559 45.4175 36.8727 45.178ZM25.9856 172.155C26.0145 171.743 25.9151 171.185 25.3768 171.008 24.9744 170.844 24.4072 171.079 24.2307 171.617 23.979 173.254 23.4419 175.007 22.7782 176.614 22.456 177.281 21.9959 177.938 21.6737 178.604 21.2137 179.259 21.0197 180.074 20.962 180.896 21.0788 181.179 21.6171 181.356 21.784 180.953 22.1062 180.287 22.5662 179.632 23.0167 179.111 23.4748 178.455 23.935 177.798 24.2669 176.994 25.0588 175.534 25.5959 173.781 25.9856 172.155ZM25.6857 90.1411C25.7146 89.7292 25.3315 89.2902 24.9196 89.2612 24.5095 89.2324 24.0688 89.6135 24.0398 90.0255L23.8278 93.0432C23.9369 93.4629 23.908 93.8748 23.8887 94.1488 24.0055 94.4323 24.2698 94.5896 24.4077 94.5993 24.8101 94.7643 25.1034 94.5095 25.1226 94.2355L25.2587 94.2451C25.2779 93.9711 25.4448 93.5688 25.4736 93.1588ZM32.3899 82.583C32.3982 82.4642 32.3747 82.3336 32.3069 82.2017 31.9914 80.8009 30.3745 80.2733 29.1501 80.0506L28.3282 79.9928C28.1902 79.9831 28.0542 79.9735 27.9162 79.9638 27.7783 79.9541 27.7783 79.9541 27.6422 79.9446L27.24 79.7777 27.104 79.7681 26.8378 79.6108C26.7113 79.4652 26.7113 79.4652 26.5733 79.4555 25.7987 78.4499 24.5755 79.1976 24.5099 80.1307 24.4901 80.4124 24.5749 80.7129 24.8137 80.9858 25.3232 81.5723 25.9899 81.8945 26.6642 82.0805 27.2045 82.2552 27.8808 82.4413 28.4287 82.4799L29.2507 82.5376C29.3984 82.4094 29.5344 82.4189 29.6627 82.5666L29.9366 82.5858 30.3486 82.6148 30.4846 82.6243 30.613 82.7701C30.7413 82.9177 30.8676 83.0652 31.0056 83.0749L31.1416 83.0845C31.6777 83.4572 32.3527 83.1118 32.3899 82.583ZM31.913 10.843C31.9261 10.6552 31.9061 10.4478 31.8516 10.236 31.8901 9.68802 31.6547 9.12079 31.5457 8.69914L31.1934 7.84837 31.2031 7.71042 31.0844 7.42671C30.9869 6.86919 30.7399 6.43785 30.6328 6.01637 30.407 5.31117 29.5831 5.25327 29.261 5.91995 29.096 6.32233 28.9291 6.72458 28.8906 7.27255 28.8521 7.82054 28.8134 8.37044 28.9225 8.79016 29.0199 9.34961 28.9911 9.75964 29.1001 10.1813L29.188 10.8768 29.1687 11.1507C29.2971 11.2965 29.2874 11.4344 29.2777 11.5724 29.4042 11.718 29.3945 11.8559 29.5132 12.1396 29.4939 12.4136 29.7487 12.7068 30.013 12.8641 30.4057 13.167 30.8273 13.058 31.1301 12.6672L31.1205 12.8033C31.2758 12.5388 31.433 12.2745 31.5883 12.0101 31.7455 11.7458 31.7552 11.6078 31.7745 11.3339 31.8531 11.2008 31.8996 11.0327 31.913 10.843ZM24.8204 41.1617C24.8277 41.0583 24.8004 40.9524 24.7381 40.8806L24.7478 40.7427 24.6195 40.595 24.3744 40.1657 24.2557 39.8821 24.3618 38.3722C24.3747 38.325 24.3799 38.2792 24.3829 38.2351 24.433 37.5223 23.453 37.2475 23.0206 37.8659 22.9664 38.0624 22.935 38.2623 22.9209 38.4635 22.8868 38.9483 22.9504 39.4399 23.0122 39.9314 23.1309 40.2151 23.2477 40.4986 23.3662 40.7842 23.4946 40.9299 23.6114 41.2135 23.7397 41.3611 24.0136 41.3804 24.1401 41.526 24.2684 41.6736 24.4044 41.6832 24.5521 41.5549 24.6996 41.4286 24.7715 41.3643 24.8132 41.2633 24.8204 41.1617ZM23.1611 83.6789C23.1686 83.5717 23.1592 83.4593 23.1305 83.3475 22.8757 83.0543 22.6307 82.6231 22.376 82.3299 21.993 81.889 21.6003 81.586 21.1998 81.4212 20.4146 80.8134 19.4642 80.6099 18.514 80.4045 17.9563 80.5039 17.5156 80.885 17.4769 81.4349 17.4384 81.9829 17.8214 82.4238 18.3694 82.4623 18.5073 82.472 18.6453 82.4817 18.7813 82.4912L18.9193 82.5009C19.0553 82.5105 19.0553 82.5105 19.1933 82.5202 19.3293 82.5297 19.5956 82.6852 19.7317 82.6947 19.7958 82.7685 19.7958 82.7685 19.797 82.7513 19.7982 82.7341 19.8007 82.6996 19.8696 82.7044L20.1339 82.8616C20.3984 83.0169 20.7909 83.3218 21.0457 83.615L21.4364 83.9178 21.7028 84.0732C21.8099 84.4947 22.3482 84.6712 22.7795 84.4243 22.9947 84.2391 23.1404 83.974 23.1611 83.6789ZM13.7201 127.059C13.749 126.647 13.6419 126.225 13.5328 125.806 13.4527 124.972 12.3568 124.895 12.0249 125.7 12.0056 125.974 11.7124 126.228 11.6834 126.64 11.5262 126.905 11.507 127.179 11.342 127.581L11.1752 127.981 11.018 128.246 10.5598 128.903C10.2376 129.569 9.92317 130.098 9.60098 130.765 9.44569 131.029 9.42644 131.303 9.26909 131.569L9.16313 133.077C9.37936 133.918 10.6036 134.143 11.0637 133.486L11.2114 133.358C11.3667 133.093 11.5334 132.693 11.6889 132.427 11.8556 132.026 11.8749 131.752 12.0322 131.486 12.0322 131.486 12.1001 131.37 12.1029 131.329 12.1044 131.308 12.0891 131.307 12.0418 131.35L12.1971 131.086 12.364 130.683 12.8318 129.89C13.0179 129.214 13.3306 128.683 13.507 128.145 13.5358 127.735 13.7008 127.333 13.7201 127.059ZM18.249 92.5317C18.2529 92.4762 18.2451 92.4236 18.2254 92.3741 17.8522 91.7953 17.4595 91.4923 17.0687 91.1895 16.676 90.8866 16.2833 90.5836 15.8811 90.4167 15.362 89.9663 14.9616 89.8015 14.4214 89.6248 13.883 89.4503 13.3447 89.2738 12.7948 89.2352 12.2468 89.1967 11.8156 89.4417 11.777 89.9916 11.7546 90.0632 11.74 90.1334 11.7352 90.2024 11.7042 90.6431 12.0378 90.9919 12.3859 91.1358 12.7881 91.3027 13.3265 91.4772 13.7288 91.6441 13.7288 91.6441 13.9552 91.7371 13.9566 91.7179L13.9566 91.7179C13.957 91.7122 13.9314 91.693 13.8667 91.6538L14.3955 91.9663C14.5315 91.9759 14.8074 91.9953 15.0717 92.1525 15.2077 92.162 15.8744 92.4842 16.2768 92.6492 16.6676 92.952 17.0698 93.1189 17.6178 93.1574 17.9649 93.0682 18.2311 92.7865 18.249 92.5317ZM22.2828-17.0368C22.3066-17.376 22.2973-17.7097 22.2598-17.9974 21.9812-19.4033 20.0891-19.1935 20.0032-17.9711 19.9951-17.8561 20.002-17.7343 20.0274-17.6035L19.9889-17.0556C19.96-16.6436 19.8047-16.3792 19.7854-16.1052L19.6378-15.9769 19.3348-15.5843 18.8651-14.7912C18.2888-14.1251 17.9823-13.2705 17.9193-12.3738 17.8839-11.8699 17.9247-11.3549 18.0378-10.854 18.0184-10.5781 18.4208-10.4131 18.6947-10.3939 19.097-10.227 19.3999-10.6197 19.4192-10.8936L19.4963-11.9915 19.7991-12.3823 20.1021-12.775 20.2497-12.9032C20.543-13.158 20.7078-13.5584 20.8652-13.8247 21.3156-14.3437 21.6378-15.0104 21.96-15.677 22.1491-16.0662 22.2491-16.5578 22.2828-17.0368ZM18.0368 31.6007C18.1003 30.6982 16.9878 29.8421 16.0874 30.6261 15.2173 31.2542 14.4736 32.028 13.5822 32.93L12.3803 34.3609 12.2231 34.6252C11.9297 34.8819 11.7744 35.1463 11.6172 35.4106L11.4503 35.8128C11.4062 35.9195 11.3812 36.0294 11.3735 36.1386 11.3524 36.4394 11.4595 36.7512 11.6395 37.0661 11.8943 37.3594 12.2947 37.5242 12.7162 37.4171 13.1379 37.3081 13.569 37.0631 13.8623 36.8084L14.6041 36.0345C14.9089 35.6419 15.2214 35.1132 15.5244 34.7205L16.5807 33.4161 16.8739 33.1614 17.0215 33.035C17.1769 32.7687 17.3341 32.5044 17.6176 32.3876 17.8904 32.1507 18.0177 31.8727 18.0368 31.6007ZM-0.230484 66.8143C-0.221191 66.6821-0.255432 66.5391-0.343994 66.4019L-0.598724 66.1087-0.726974 65.9611C-0.726974 65.9611-0.717422 65.825-0.855377 65.8153L-0.643311 62.7976C-0.604797 62.2496-0.849838 61.8184-1.39783 61.7799-1.9458 61.7414-2.24873 62.1341-2.4252 62.6724L-2.59862 65.1402C-2.51857 65.9738-2.02835 66.8343-1.24489 67.44-0.729218 67.5821-0.260498 67.2415-0.230484 66.8143ZM-7.16731 78.6691C-7.14807 78.3951-7.29933 78.1091-7.63745 78.016-7.77541 78.0063-7.77541 78.0063-7.77541 78.0063L-8.16617 77.7035C-8.29443 77.5559-8.55885 77.4006-8.82315 77.2434-8.97079 77.3716-8.97079 77.3716-9.09715 77.2241L-9.36145 77.0669C-9.63734 77.0475-9.76382 76.9019-10.0281 76.7447-10.0186 76.6087-10.1565 76.599-10.2829 76.4515L-10.4112 76.3057C-10.5376 76.1582-10.666 76.0125-10.9303 75.8553-11.1753 75.4241-11.5584 74.9851-11.8035 74.5539-12.1865 74.113-13.0085 74.0553-13.4493 74.4383-13.6736 74.6978-13.7988 74.9991-13.8192 75.2903-13.8397 75.5815-13.7555 75.8628-13.565 76.0841-12.9465 77.0922-12.1726 77.834-11.2609 78.5874-10.7303 78.9-10.2017 79.2145-9.66327 79.389-8.98701 79.5752-8.2914 79.4854-7.72417 79.2499-7.37634 79.205-7.18657 78.943-7.16731 78.6691ZM-14.1911 51.6482C-14.1526 51.1003-14.5433 50.7975-15.0933 50.7588-15.5033 50.73-15.9345 50.975-15.973 51.523L-16.397 57.5565C-16.4067 57.6945-16.2783 57.8402-16.1519 57.9877-15.9165 58.555-15.2305 58.6032-14.7801 58.0841L-14.6151 57.6817ZM-12.4484 68.0313C-12.4002 67.3454-13.6149 66.9847-13.8088 67.799-14.181 69.1496-14.9614 70.4734-15.872 71.6494L-16.4971 72.7087C-16.7904 72.9635-16.9571 73.3638-17.1126 73.6302-17.4346 74.2949-17.8948 74.9519-18.3454 75.4729-18.4208 75.56-18.4583 75.6555-18.4649 75.7494-18.4974 76.2112-17.8066 76.6564-17.4335 76.2243-16.847 75.7148-16.2586 75.2055-15.8101 74.6863-15.3787 74.4394-15.0759 74.0486-14.909 73.6464L-14.146 72.5967C-13.3657 71.2748-12.7001 69.6676-12.4484 68.0313ZM-10.3018-50.7408C-10.2344-51.7007-10.5789-52.6896-11.2167-53.4218-11.3431-53.5693-11.6171-53.5886-11.755-53.5983-12.029-53.6175-12.3127-53.4988-12.4602-53.3725-12.5681-53.2337-12.6236-53.0739-12.6347-52.9168-12.6546-52.6333-12.5216-52.3621-12.2634-52.2553-12.1349-52.1096-12.0086-51.9621-11.8802-51.8164-11.8899-51.6784-11.752-51.6687-11.7617-51.5308-11.6449-51.2472-11.6544-51.1112-11.6641-50.9732L-11.6737-50.8372C-11.6834-50.6992-11.5551-50.5516-11.5647-50.4156-11.4384-50.268-11.3004-50.2583-11.1644-50.2488-10.762-50.0838-10.3308-50.3288-10.3018-50.7408ZM-21.2962 156.782C-21.2743 156.47-21.4178 156.156-21.7983 155.981-21.7983 155.981-21.9151 155.697-21.9343 155.971L-22.0626 155.823-22.0433 155.549-22.2981 155.256-22.2788 154.982C-22.5046 154.277-22.8683 153.562-23.2418 152.985-24.1247 151.822-25.1435 150.647-26.1739 149.61-26.5647 149.307-27.1146 149.268-27.5439 149.514-27.7652 149.704-27.8861 149.973-27.9042 150.23-27.9222 150.486-27.8375 150.733-27.6403 150.885-27.1308 151.472-26.6213 152.058-26.1101 152.647-25.8553 152.94-25.6006 153.233-25.3459 153.527L-24.9629 153.968-24.8461 154.251C-24.7177 154.397-24.7274 154.535-24.6106 154.818L-24.4823 154.966-24.2661 155.807C-24.1571 156.229-24.0403 156.512-23.7856 156.806-23.3929 157.109-23.0002 157.412-22.5999 157.578-21.9115 157.892-21.3357 157.344-21.2962 156.782ZM-38.6605 5.21342C-38.6316 4.8015-38.7731 4.37756-39.092 4.0105-39.7297 3.27635-40.6897 3.20889-41.4238 3.84663-42.432 4.8502-43.3301 6.12144-43.8454 7.42726L-43.8454 7.42726C-43.9759 7.72232-44.1261 7.99673-44.3457 8.18925-44.5029 8.45357-44.6601 8.71785-44.8154 8.98228L-44.992 9.52249C-45.0325 9.63324-45.0558 9.74519-45.0636 9.85632-45.122 10.6879-44.3256 11.4659-43.4617 11.2821-43.1781 11.1653-42.8944 11.0466-42.6089 10.9299-42.1797 10.6848-41.8863 10.4281-41.5816 10.0375-41.2786 9.64481-41.1136 9.24242-40.9469 8.8421-40.4887 8.18497-40.1549 7.38048-39.5588 6.73495L-39.2559 6.34227C-38.8888 6.02341-38.6893 5.62346-38.6605 5.21342Z" fill="#B32B3F" fill-rule="evenodd"/></g></svg>